<svg width="459" height="370" viewBox="0 0 459 370" fill="none" xmlns="http://www.w3.org/2000/svg">
<g opacity="0.5">
<line x1="93.0668" y1="368.874" x2="457.848" y2="58.8062" stroke="#D4D6D9" stroke-opacity="0.5"/>
<line x1="60.8373" y1="368.874" x2="425.619" y2="58.8062" stroke="#D4D6D9" stroke-opacity="0.5"/>
<line x1="76.9525" y1="368.874" x2="441.734" y2="58.8062" stroke="#D4D6D9" stroke-opacity="0.5"/>
<line x1="28.6083" y1="368.874" x2="393.39" y2="58.8062" stroke="#D4D6D9" stroke-opacity="0.5"/>
<line x1="44.7235" y1="368.874" x2="409.505" y2="58.8062" stroke="#D4D6D9" stroke-opacity="0.5"/>
<line x1="-3.6207" y1="368.874" x2="361.161" y2="58.8062" stroke="#D4D6D9" stroke-opacity="0.5"/>
<line x1="12.494" y1="368.874" x2="377.275" y2="58.8062" stroke="#D4D6D9" stroke-opacity="0.5"/>
<line x1="-19.735" y1="368.874" x2="345.046" y2="58.8062" stroke="#D4D6D9" stroke-opacity="0.5"/>
<line x1="-35.8492" y1="368.874" x2="328.932" y2="58.8062" stroke="#D4D6D9" stroke-opacity="0.5"/>
<line x1="-68.0782" y1="368.874" x2="296.703" y2="58.8062" stroke="#D4D6D9" stroke-opacity="0.5"/>
<line x1="-51.964" y1="368.874" x2="312.817" y2="58.8062" stroke="#D4D6D9" stroke-opacity="0.5"/>
<line x1="-100.307" y1="368.874" x2="264.474" y2="58.8062" stroke="#D4D6D9" stroke-opacity="0.5"/>
<line x1="-84.193" y1="368.874" x2="280.588" y2="58.8062" stroke="#D4D6D9" stroke-opacity="0.5"/>
<line x1="-164.765" y1="368.874" x2="200.016" y2="58.8062" stroke="#D4D6D9" stroke-opacity="0.5"/>
<line x1="-132.536" y1="368.874" x2="232.245" y2="58.8062" stroke="#D4D6D9" stroke-opacity="0.5"/>
<line x1="-196.995" y1="368.874" x2="167.787" y2="58.8062" stroke="#D4D6D9" stroke-opacity="0.5"/>
<line x1="-116.422" y1="368.874" x2="248.359" y2="58.8062" stroke="#D4D6D9" stroke-opacity="0.5"/>
<line x1="-180.879" y1="368.874" x2="183.902" y2="58.8062" stroke="#D4D6D9" stroke-opacity="0.5"/>
<line x1="-148.651" y1="368.874" x2="282.704" y2="1.33656" stroke="#0047FF"/>
<line x1="-229.224" y1="368.874" x2="135.558" y2="58.8062" stroke="#D4D6D9" stroke-opacity="0.5"/>
<line x1="-213.109" y1="368.874" x2="151.672" y2="58.8062" stroke="#D4D6D9" stroke-opacity="0.5"/>
<line x1="-261.453" y1="368.874" x2="103.329" y2="58.8062" stroke="#D4D6D9" stroke-opacity="0.5"/>
<line x1="-245.338" y1="368.874" x2="119.443" y2="58.8062" stroke="#D4D6D9" stroke-opacity="0.5"/>
<line x1="-277.567" y1="368.874" x2="87.2145" y2="58.8062" stroke="#D4D6D9" stroke-opacity="0.5"/>
<line x1="-148.651" y1="368.874" x2="282.704" y2="1.33656" stroke="#0047FF"/>
</g>
<path d="M153.578 142.569L68.8125 214.221L92.2428 214.221L176.248 142.57L153.578 142.569Z" fill="#EEEEEE"/>
</svg>
