<svg width="440" height="312" viewBox="0 0 440 312" fill="none" xmlns="http://www.w3.org/2000/svg">
<line x1="371.249" y1="311.44" x2="736.031" y2="1.37263" stroke="#D4D6D9"/>
<line x1="339.02" y1="311.44" x2="703.801" y2="1.37263" stroke="#D4D6D9"/>
<line x1="355.135" y1="311.44" x2="719.917" y2="1.37263" stroke="#D4D6D9"/>
<line x1="306.791" y1="311.44" x2="671.573" y2="1.37263" stroke="#D4D6D9"/>
<line x1="322.906" y1="311.44" x2="687.687" y2="1.37263" stroke="#D4D6D9"/>
<line x1="274.562" y1="311.44" x2="639.343" y2="1.37263" stroke="#D4D6D9"/>
<line x1="290.677" y1="311.44" x2="655.459" y2="1.37263" stroke="#D4D6D9"/>
<line x1="258.448" y1="311.44" x2="623.229" y2="1.37263" stroke="#D4D6D9"/>
<line x1="242.333" y1="311.44" x2="607.115" y2="1.37263" stroke="#D4D6D9"/>
<line x1="210.105" y1="311.44" x2="574.886" y2="1.37263" stroke="#D4D6D9"/>
<line x1="226.219" y1="311.44" x2="591.001" y2="1.37263" stroke="#D4D6D9"/>
<line x1="177.875" y1="311.44" x2="542.657" y2="1.37263" stroke="#D4D6D9"/>
<line x1="193.99" y1="311.44" x2="558.771" y2="1.37263" stroke="#D4D6D9"/>
<line x1="113.417" y1="311.44" x2="478.199" y2="1.37263" stroke="#D4D6D9"/>
<line x1="145.646" y1="311.44" x2="510.427" y2="1.37263" stroke="#D4D6D9"/>
<line x1="81.1879" y1="311.44" x2="445.969" y2="1.37263" stroke="#D4D6D9"/>
<line x1="161.76" y1="311.44" x2="526.542" y2="1.37263" stroke="#D4D6D9"/>
<line x1="97.3031" y1="311.44" x2="462.085" y2="1.37263" stroke="#D4D6D9"/>
<line x1="129.532" y1="311.44" x2="494.313" y2="1.37263" stroke="#D4D6D9"/>
<line x1="48.9594" y1="311.44" x2="413.741" y2="1.37263" stroke="#D4D6D9"/>
<line x1="65.0736" y1="311.44" x2="429.855" y2="1.37263" stroke="#D4D6D9"/>
<line x1="16.7299" y1="311.44" x2="381.511" y2="1.37263" stroke="#D4D6D9"/>
<line x1="32.8451" y1="311.44" x2="397.627" y2="1.37263" stroke="#D4D6D9"/>
<line x1="0.615627" y1="311.44" x2="365.397" y2="1.37263" stroke="#D4D6D9"/>
</svg>
