<svg width="610" height="370" viewBox="0 0 610 370" fill="none" xmlns="http://www.w3.org/2000/svg">
<g opacity="0.5">
<line x1="244.102" y1="368.765" x2="608.883" y2="58.6969" stroke="#D4D6D9" stroke-opacity="0.5"/>
<line x1="211.872" y1="368.765" x2="576.654" y2="58.6969" stroke="#D4D6D9" stroke-opacity="0.5"/>
<line x1="227.988" y1="368.765" x2="592.769" y2="58.6969" stroke="#D4D6D9" stroke-opacity="0.5"/>
<line x1="179.644" y1="368.765" x2="544.425" y2="58.6969" stroke="#D4D6D9" stroke-opacity="0.5"/>
<line x1="195.758" y1="368.765" x2="560.54" y2="58.6969" stroke="#D4D6D9" stroke-opacity="0.5"/>
<line x1="147.414" y1="368.765" x2="512.196" y2="58.6969" stroke="#D4D6D9" stroke-opacity="0.5"/>
<line x1="163.53" y1="368.765" x2="528.311" y2="58.6969" stroke="#D4D6D9" stroke-opacity="0.5"/>
<line x1="131.3" y1="368.765" x2="496.082" y2="58.6969" stroke="#D4D6D9" stroke-opacity="0.5"/>
<line x1="115.186" y1="368.765" x2="479.967" y2="58.6969" stroke="#D4D6D9" stroke-opacity="0.5"/>
<line x1="82.9574" y1="368.765" x2="447.739" y2="58.6969" stroke="#D4D6D9" stroke-opacity="0.5"/>
<line x1="99.0717" y1="368.765" x2="463.853" y2="58.6969" stroke="#D4D6D9" stroke-opacity="0.5"/>
<line x1="50.7279" y1="368.765" x2="415.509" y2="58.6969" stroke="#D4D6D9" stroke-opacity="0.5"/>
<line x1="66.8422" y1="368.765" x2="431.624" y2="58.6969" stroke="#D4D6D9" stroke-opacity="0.5"/>
<line x1="-13.7301" y1="368.765" x2="351.051" y2="58.6969" stroke="#D4D6D9" stroke-opacity="0.5"/>
<line x1="18.4984" y1="368.765" x2="383.28" y2="58.6969" stroke="#D4D6D9" stroke-opacity="0.5"/>
<line x1="-45.9596" y1="368.765" x2="318.822" y2="58.6969" stroke="#D4D6D9" stroke-opacity="0.5"/>
<line x1="34.6127" y1="368.765" x2="399.394" y2="58.6969" stroke="#D4D6D9" stroke-opacity="0.5"/>
<line x1="-29.8443" y1="368.765" x2="334.937" y2="58.6969" stroke="#D4D6D9" stroke-opacity="0.5"/>
<line x1="2.38373" y1="368.765" x2="433.739" y2="1.22719" stroke="#0047FF"/>
<line x1="-78.1881" y1="368.765" x2="286.593" y2="58.6969" stroke="#D4D6D9" stroke-opacity="0.5"/>
<line x1="-62.0738" y1="368.765" x2="302.708" y2="58.6969" stroke="#D4D6D9" stroke-opacity="0.5"/>
<line x1="-110.418" y1="368.765" x2="254.364" y2="58.6969" stroke="#D4D6D9" stroke-opacity="0.5"/>
<line x1="-94.3023" y1="368.765" x2="270.479" y2="58.6969" stroke="#D4D6D9" stroke-opacity="0.5"/>
<line x1="-126.532" y1="368.765" x2="238.25" y2="58.6969" stroke="#D4D6D9" stroke-opacity="0.5"/>
<path d="M235.929 228.072L168.984 284.36L226.247 284.36L292.769 228.072L235.929 228.072Z" fill="#0047FF"/>
<line x1="2.38373" y1="368.765" x2="433.739" y2="1.22719" stroke="#0047FF"/>
<path d="M235.929 228.072L168.984 284.36L226.247 284.36L292.769 228.072L235.929 228.072Z" fill="#0047FF"/>
</g>
<line x1="2.38373" y1="368.764" x2="433.739" y2="1.22621" stroke="#0047FF"/>
<path d="M235.929 228.072L168.984 284.36L226.247 284.36L292.769 228.072L235.929 228.072Z" fill="#0047FF"/>
</svg>
