<svg width="918" height="491" viewBox="0 0 918 491" fill="none" xmlns="http://www.w3.org/2000/svg">
<path d="M547.215 241.921C542.539 241.921 538.735 236.554 538.735 229.955C538.735 223.355 542.539 217.988 547.215 217.988C551.891 217.988 555.698 223.355 555.698 229.955C555.698 236.551 551.894 241.921 547.215 241.921ZM547.215 218.84C543.01 218.84 539.59 223.827 539.59 229.952C539.59 236.08 543.01 241.063 547.215 241.063C551.42 241.063 554.843 236.077 554.843 229.952C554.843 223.827 551.42 218.84 547.215 218.84Z" fill="url(#paint0_linear)"/>
<path d="M895.331 288.928L881.711 296.666C866.957 307.124 814.842 316.285 812.56 316.677C801.841 317.634 781.428 317.776 770.212 317.776C765.871 317.776 763.076 317.753 763.039 317.753C747.893 316.955 663.177 309.126 662.322 309.047C662.12 309.03 661.93 308.939 661.788 308.794L644.872 291.484C644.625 291.231 644.56 290.853 644.707 290.53C644.855 290.209 645.176 289.999 645.537 290.033L763.144 296.993C763.144 296.993 766.9 297.262 771.059 297.529C775.309 297.802 788.128 305.619 789.579 306.514C795.5 310.211 804.108 310.762 808.711 310.762C810.484 310.762 811.594 310.68 811.631 310.677C820.828 310.166 830.007 300.596 830.024 300.596C830.035 300.579 830.047 300.565 830.058 300.551C830.061 300.548 830.061 300.545 830.064 300.542C834.774 293.403 844.116 291.197 844.454 291.123C860.085 286.355 895.856 272.762 896.217 272.623C896.495 272.521 896.808 272.566 897.044 272.748C897.28 272.93 897.405 273.219 897.37 273.517L895.76 288.278C895.728 288.55 895.569 288.795 895.331 288.928ZM662.79 307.374C665.731 307.647 688.479 309.743 711.807 311.816L708.696 304.415C708.261 304.356 707.934 303.987 707.954 303.541C707.963 303.368 708.036 303.211 708.133 303.075L704.849 295.258L647.642 291.873L662.79 307.374ZM770.945 299.239C766.786 298.969 763.027 298.699 763.03 298.699L705.801 295.312L708.917 302.726L785.767 306.23C780.974 303.436 773.553 299.406 770.945 299.239ZM808.708 312.474C803.972 312.474 795.142 311.895 788.875 308.084L709.647 304.472L712.77 311.901C734.313 313.812 756.124 315.68 763.087 316.047C763.087 316.047 765.877 316.069 770.209 316.069C781.394 316.069 801.75 315.927 812.333 314.987C812.813 314.905 855.289 307.437 874.79 298.532L875.955 288.979C870.23 291.487 851.727 299.063 831.149 301.874C829.683 303.368 820.941 311.878 811.739 312.389C811.694 312.389 810.549 312.474 808.708 312.474ZM832.7 299.92C853.678 296.757 872.119 288.832 876.196 286.997L876.847 281.673C865.829 285.714 852.818 290.362 844.894 292.779C844.809 292.798 837.371 294.573 832.7 299.92ZM877.748 281.341L877.108 286.594C877.523 286.432 877.995 286.608 878.188 287.014C878.392 287.44 878.211 287.951 877.782 288.153C877.756 288.164 877.435 288.318 876.867 288.57L875.705 298.109C877.696 297.16 879.421 296.195 880.793 295.221L894.106 287.653L895.518 274.716C892.74 275.772 885.844 278.367 877.748 281.341Z" fill="url(#paint1_linear)"/>
<path d="M808.773 307.797C807.972 307.797 807.153 307.746 806.344 307.644C793.945 306.079 784.357 294.102 785.402 281.488C786.482 268.5 795.869 263.874 804.295 263.874C814.548 263.874 826.418 270.754 828.228 283.507C829.117 289.766 827.168 296.354 823.02 301.13C819.287 305.429 814.227 307.797 808.773 307.797ZM826.535 283.746C824.861 271.95 813.827 265.583 804.298 265.583C796.633 265.583 788.093 269.797 787.11 281.627C786.153 293.156 795.241 304.518 806.56 305.946C812.321 306.676 817.824 304.506 821.731 300.006C825.557 295.598 827.353 289.522 826.535 283.746Z" fill="url(#paint2_linear)"/>
<path d="M345.108 360.969L345.298 360.972C347.29 361.037 349.125 362.099 350.46 363.959C351.773 365.788 352.452 368.176 352.369 370.689C352.202 375.874 348.909 379.938 344.875 379.938L344.684 379.935C342.693 379.869 340.86 378.807 339.522 376.947C338.21 375.119 337.531 372.728 337.613 370.215C337.781 365.029 341.073 360.969 345.108 360.969ZM340.218 376.448C341.397 378.092 342.994 379.026 344.713 379.08L344.875 379.083C348.386 379.083 351.364 375.306 351.514 370.663C351.588 368.338 350.969 366.134 349.764 364.459C348.585 362.817 346.988 361.883 345.27 361.829L345.108 361.826C341.596 361.826 338.619 365.603 338.468 370.243C338.394 372.569 339.016 374.772 340.218 376.448Z" fill="url(#paint3_linear)"/>
<path d="M350.077 340.104C350.074 340.115 350.068 340.124 350.065 340.135L349.807 342.503C349.759 342.941 349.386 343.264 348.957 343.264C348.926 343.264 348.895 343.262 348.864 343.259C348.392 343.208 348.054 342.785 348.105 342.313L348.29 340.626C347.523 340.496 346.747 340.402 345.963 340.374C345.426 340.354 344.892 340.371 344.361 340.405L344.44 342.197C344.46 342.671 344.096 343.068 343.622 343.088C343.608 343.091 343.596 343.091 343.582 343.091C343.128 343.091 342.747 342.733 342.727 342.273L342.613 339.732C342.613 339.723 342.608 339.718 342.605 339.706C342.602 339.689 342.611 339.672 342.611 339.655L340.466 291.515C340.446 291.041 340.809 290.643 341.281 290.623C341.738 290.581 342.153 290.967 342.173 291.438L342.758 304.557C344.202 304.444 345.662 304.393 347.119 304.438C348.813 304.495 350.511 304.68 352.191 304.949L353.628 291.807C353.679 291.339 354.117 290.998 354.571 291.049C355.043 291.1 355.381 291.524 355.33 291.992L350.074 340.002C350.077 340.041 350.085 340.073 350.077 340.104ZM347.065 306.153C345.656 306.105 344.239 306.159 342.838 306.27L344.284 338.732C344.861 338.698 345.44 338.653 346.017 338.667C346.844 338.695 347.662 338.795 348.474 338.928L352.006 306.659C350.372 306.386 348.716 306.204 347.065 306.153Z" fill="url(#paint4_linear)"/>
<path d="M324.968 354.95C325.081 354.998 325.178 355.069 325.257 355.152L326.809 356.109C327.212 356.359 327.337 356.884 327.087 357.287C326.925 357.548 326.644 357.693 326.357 357.693C326.203 357.693 326.05 357.651 325.908 357.565L325.078 357.054C324.448 358.721 323.931 360.453 323.547 362.242L324.743 362.623C325.195 362.768 325.442 363.248 325.3 363.696C325.184 364.06 324.845 364.293 324.485 364.293C324.399 364.293 324.311 364.278 324.223 364.253L286.406 352.204C285.955 352.059 285.708 351.58 285.85 351.131C285.994 350.679 286.477 350.435 286.926 350.574L296.018 353.471C296.921 349.311 298.143 345.259 299.657 341.391L290.813 335.942C290.409 335.692 290.284 335.166 290.532 334.763C290.782 334.36 291.307 334.238 291.711 334.485L300.859 340.122C300.927 340.13 300.992 340.133 301.058 340.159C301.22 340.224 301.336 340.34 301.427 340.474L324.908 354.942C324.931 354.947 324.951 354.944 324.968 354.95ZM297.657 353.993L321.916 361.723C322.337 359.797 322.894 357.929 323.593 356.137L301.146 342.305C299.697 346.051 298.523 349.969 297.657 353.993Z" fill="url(#paint5_linear)"/>
<path d="M336.946 297.406C335.332 298.446 333.855 299.536 332.451 300.641L333.096 307.212C333.127 307.26 333.167 307.303 333.187 307.359C333.261 307.564 333.244 307.774 333.17 307.961L336.497 341.784L336.5 341.787C336.63 342.009 336.642 342.261 336.565 342.488L336.991 346.819C337.037 347.287 336.693 347.708 336.224 347.753C336.196 347.756 336.167 347.756 336.139 347.756C335.704 347.756 335.332 347.424 335.289 346.984L334.971 343.763C333.306 344.908 331.758 346.319 330.346 347.972L332.61 349.951C332.965 350.261 333.002 350.803 332.693 351.158C332.525 351.351 332.286 351.45 332.048 351.45C331.849 351.45 331.647 351.379 331.485 351.24L319.559 340.822C309.581 331.661 313.703 322.154 313.717 322.125C313.914 321.569 318.223 309.759 331.036 299.562C331.076 299.53 331.11 299.494 331.156 299.468C332.667 298.273 334.267 297.091 336.019 295.964C336.417 295.705 336.946 295.822 337.204 296.219C337.457 296.623 337.341 297.151 336.946 297.406ZM320.698 339.552L329.056 346.853C330.781 344.837 332.701 343.156 334.781 341.847L331.542 308.901C326.718 310.804 322.144 313.643 317.931 317.372C316.11 320.555 315.334 322.688 315.303 322.767C315.266 322.85 311.638 331.232 320.698 339.552ZM320.814 312.877C324.161 310.455 327.695 308.532 331.369 307.132L330.857 301.933C326.488 305.627 323.209 309.483 320.814 312.877Z" fill="url(#paint6_linear)"/>
<path d="M359.605 352.679C359.321 352.679 359.045 352.54 358.883 352.282C358.63 351.884 358.747 351.353 359.145 351.101L361.511 349.593C360.25 347.801 358.829 346.236 357.272 344.924L356.542 348.147C356.451 348.545 356.099 348.815 355.707 348.815C355.644 348.815 355.582 348.809 355.517 348.792C355.056 348.69 354.767 348.23 354.872 347.77L355.843 343.485C355.809 343.277 355.858 343.062 355.983 342.874L358.991 329.619C360.531 323.352 362.98 319.192 366.27 317.252C369.003 315.639 371.298 316.23 371.284 316.238C371.475 316.264 373.262 316.534 376.06 317.687C376.188 317.707 376.307 317.755 376.418 317.834C380.483 319.569 386.535 323.164 393.001 330.408C393.027 330.439 393.061 330.459 393.083 330.493C393.086 330.499 393.086 330.505 393.089 330.51C394.407 331.993 395.74 333.594 397.081 335.397C397.362 335.778 397.282 336.315 396.905 336.593C396.524 336.874 395.987 336.795 395.708 336.417C394.529 334.827 393.353 333.413 392.186 332.081L387.793 334.881C387.72 334.966 387.629 335.04 387.521 335.094C387.487 335.111 387.452 335.105 387.418 335.116L360.068 352.546C359.923 352.637 359.764 352.679 359.605 352.679ZM370.955 317.911C370.884 317.894 369.19 317.488 367.082 318.757C365.125 319.936 362.417 322.846 360.656 330.008L357.696 343.062C359.653 344.589 361.417 346.472 362.957 348.67L385.984 333.997C383.114 328.415 379.614 323.491 375.549 319.365C372.773 318.195 371.037 317.925 370.955 317.911ZM379.873 321.583C382.734 325.007 385.254 328.869 387.43 333.08L391.038 330.78C386.978 326.393 383.117 323.505 379.873 321.583Z" fill="url(#paint7_linear)"/>
<path d="M388.552 416.4C387.837 418.595 387.027 420.855 386.061 423.195C385.925 423.527 385.606 423.726 385.268 423.726C385.16 423.726 385.049 423.706 384.942 423.661C384.504 423.482 384.297 422.979 384.476 422.545C385.345 420.435 386.078 418.393 386.74 416.394L362.185 382.997C361.904 382.617 361.986 382.083 362.367 381.802C362.748 381.523 363.284 381.603 363.563 381.986L364.571 383.358C365.39 381.387 366.032 379.314 366.492 377.159L364.606 377.264C364.137 377.298 363.731 376.929 363.702 376.457C363.677 375.983 364.037 375.583 364.509 375.554L367.205 375.404C367.364 375.327 367.54 375.282 367.731 375.313C367.782 375.322 367.822 375.35 367.87 375.367L378.99 374.745C391.541 374.404 392.484 385.34 392.484 385.38C392.575 385.97 394.362 398.59 388.552 416.394C388.555 416.397 388.555 416.397 388.552 416.4ZM387.39 414.386C389.22 408.403 390.183 403.036 390.655 398.601C389.033 402.911 387.067 407.001 384.754 410.8L387.39 414.386ZM390.788 385.57C390.76 385.186 389.999 376.253 379.063 376.455L368.265 377.057C367.708 379.822 366.87 382.475 365.753 384.956L383.646 409.292C386.785 404.013 389.294 398.206 391.07 391.979C391.129 387.989 390.8 385.655 390.788 385.57Z" fill="url(#paint8_linear)"/>
<path d="M318.669 436.56C320.345 436.927 321.942 437.157 323.493 437.324L325.902 431.545C325.905 431.429 325.931 431.31 325.985 431.199C326.019 431.128 326.073 431.074 326.124 431.02L339.397 399.191C339.4 399.174 339.394 399.157 339.4 399.14C339.428 399.026 339.48 398.927 339.545 398.841L340.647 396.195C340.829 395.758 341.329 395.559 341.767 395.735C342.204 395.917 342.409 396.419 342.227 396.854L341.451 398.716C342.318 398.878 343.193 399 344.076 399.026C344.753 399.049 345.44 399.015 346.122 398.955L345.548 396.854C345.423 396.396 345.693 395.928 346.147 395.803C346.608 395.681 347.074 395.948 347.199 396.402L352.023 414.056C355.841 429.132 348.398 433.681 348.162 433.811C347.792 434.09 340.608 439.34 328.306 439.34C326.948 439.34 325.516 439.264 324.033 439.122H324.03C324.027 439.122 324.025 439.119 324.022 439.119C322.203 438.943 320.303 438.662 318.308 438.227C317.845 438.128 317.553 437.671 317.655 437.21C317.752 436.75 318.212 436.458 318.669 436.56ZM350.361 414.491L346.574 400.63C345.926 400.696 345.278 400.744 344.628 400.744C344.423 400.744 344.218 400.741 344.014 400.735C342.923 400.701 341.841 400.545 340.772 400.324L327.914 431.162C332.67 433.354 337.664 434.567 342.778 434.749C345.591 433.559 347.136 432.44 347.204 432.392C347.48 432.227 353.838 428.215 350.361 414.491ZM338.829 436.129C334.866 435.595 330.991 434.456 327.258 432.741L325.275 437.497C330.726 437.869 335.289 437.142 338.829 436.129Z" fill="url(#paint9_linear)"/>
<path d="M288.244 358.561C288.722 358.519 289.134 358.857 289.185 359.325C289.42 361.634 289.736 363.783 290.085 365.851L294.62 366.867C294.753 366.793 294.901 366.745 295.063 366.756C295.33 366.768 295.554 366.91 295.702 367.111L321.731 372.941C321.788 372.924 321.842 372.896 321.905 372.89C322.166 372.873 322.396 372.97 322.567 373.129L325.092 373.694C325.553 373.796 325.845 374.256 325.74 374.716C325.652 375.113 325.297 375.383 324.905 375.383C324.842 375.383 324.78 375.378 324.717 375.363L322.987 374.974C323.089 375.792 323.209 376.607 323.362 377.405C323.623 378.757 323.987 380.074 324.396 381.363L325.66 380.074C325.99 379.736 326.533 379.734 326.871 380.06C327.209 380.392 327.215 380.932 326.882 381.27L324.666 383.53C324.629 383.576 324.592 383.618 324.544 383.655L315.39 392.995C312.043 396.254 308.819 397.899 305.788 397.899C305.515 397.899 305.245 397.884 304.978 397.859C301.287 397.495 299.35 394.73 299.321 394.681C298.981 394.275 291.77 385.507 288.489 366.762C288.477 366.72 288.472 366.68 288.469 366.637C288.08 364.391 287.733 362.031 287.474 359.495C287.432 359.03 287.776 358.61 288.244 358.561ZM294.122 368.815C294.125 368.713 294.131 368.614 294.134 368.514L290.398 367.676C291.591 373.961 293.236 379.058 294.864 383.022C294.233 378.365 293.966 373.611 294.122 368.815ZM300.685 393.648C300.702 393.67 302.285 395.891 305.177 396.164C307.904 396.411 310.941 394.945 314.186 391.788L323.044 382.749C322.484 381.131 322.015 379.452 321.683 377.732C321.484 376.698 321.336 375.642 321.217 374.58L295.83 368.892C295.614 375.653 296.199 382.337 297.569 388.755C297.569 388.758 297.569 388.758 297.569 388.758C299.316 391.978 300.634 393.582 300.685 393.648Z" fill="url(#paint10_linear)"/>
<path d="M353.789 393.725C354.224 393.549 354.727 393.756 354.906 394.193L355.403 395.406C356.593 394.554 357.724 393.56 358.786 392.441L357.869 391.004C357.616 390.607 357.732 390.076 358.13 389.823C358.528 389.573 359.059 389.69 359.312 390.084L377.745 418.972C377.753 418.977 377.762 418.98 377.767 418.986C377.887 419.094 377.955 419.23 378 419.372L384.08 428.902C384.336 429.3 384.216 429.831 383.819 430.083C383.677 430.174 383.517 430.217 383.358 430.217C383.077 430.217 382.799 430.078 382.637 429.822L377.031 421.039C374.486 423.771 371.747 426.19 368.861 428.246L373.176 438.773C373.355 439.21 373.145 439.71 372.707 439.889C372.602 439.931 372.491 439.951 372.384 439.951C372.048 439.951 371.727 439.749 371.591 439.42L353.317 394.843C353.141 394.403 353.349 393.904 353.789 393.725ZM376.085 419.551L359.73 393.923C358.579 395.099 357.352 396.135 356.065 397.027L368.193 426.613C370.983 424.594 373.631 422.229 376.085 419.551Z" fill="url(#paint11_linear)"/>
<path d="M327.391 390.539C327.448 390.389 327.53 390.247 327.669 390.144C327.675 390.142 327.681 390.142 327.686 390.136L328.857 388.537C329.138 388.157 329.672 388.071 330.053 388.353C330.434 388.631 330.516 389.168 330.237 389.548L329.283 390.851C330.237 392.075 331.274 393.186 332.385 394.162L332.99 392.919C333.198 392.496 333.706 392.32 334.135 392.524C334.562 392.731 334.738 393.242 334.53 393.668L333.507 395.764C333.493 395.818 333.459 395.863 333.434 395.915L318.771 425.998C318.754 426.157 318.709 426.313 318.598 426.443C318.578 426.469 318.547 426.478 318.524 426.5L313.419 436.976C313.271 437.279 312.964 437.458 312.649 437.458C312.524 437.458 312.396 437.43 312.274 437.37C311.848 437.163 311.671 436.652 311.879 436.226L316.828 426.074C314.106 423.786 311.558 421.147 309.225 418.214L303.015 426.685C302.847 426.912 302.586 427.034 302.324 427.034C302.148 427.034 301.972 426.98 301.819 426.869C301.438 426.591 301.356 426.054 301.634 425.674L327.391 390.539ZM317.606 424.487L331.613 395.755C330.408 394.733 329.274 393.575 328.235 392.285L310.274 416.791C312.518 419.662 314.981 422.241 317.606 424.487Z" fill="url(#paint12_linear)"/>
<path d="M345.474 355.501C343.619 355.441 342.167 353.542 342.241 351.267C342.314 349.015 343.809 347.252 345.735 347.252H345.738C346.516 347.278 347.261 347.63 347.84 348.246C348.599 349.055 349.011 350.236 348.971 351.489C348.897 353.741 347.4 355.507 345.562 355.507C345.556 355.504 345.485 355.501 345.474 355.501ZM347.261 351.429C347.286 350.64 347.036 349.887 346.59 349.413C346.403 349.214 346.096 348.973 345.647 348.961C344.769 348.961 343.994 350.043 343.951 351.324C343.908 352.633 344.63 353.763 345.528 353.792L345.562 354.649V353.794C346.442 353.792 347.221 352.71 347.261 351.429Z" fill="url(#paint13_linear)"/>
<path d="M357.593 360.535C359.38 359.848 361.363 361.171 361.832 363.355C362.298 365.513 361.298 367.731 359.559 368.401C359.227 368.528 358.88 368.594 358.534 368.594C357.025 368.594 355.704 367.353 355.321 365.581C354.855 363.423 355.855 361.205 357.593 360.535ZM356.994 365.22C357.247 366.393 358.11 367.129 358.943 366.802C359.883 366.439 360.44 365.024 360.159 363.715C359.949 362.736 359.315 362.051 358.622 362.051C358.485 362.051 358.346 362.077 358.21 362.131C357.269 362.497 356.713 363.908 356.994 365.22Z" fill="url(#paint14_linear)"/>
<path d="M354.764 388.126C354.179 388.645 353.488 388.918 352.764 388.918C351.61 388.918 350.559 388.217 349.954 387.041C349.002 385.198 349.397 382.747 350.849 381.458C352.369 380.112 354.673 380.629 355.662 382.54C356.611 384.386 356.216 386.839 354.764 388.126ZM354.139 383.33C353.832 382.733 353.349 382.378 352.849 382.378C352.551 382.378 352.253 382.503 351.986 382.742C351.122 383.508 350.889 385.119 351.474 386.257C351.966 387.206 352.906 387.484 353.628 386.845C354.491 386.078 354.727 384.468 354.139 383.33Z" fill="url(#paint15_linear)"/>
<path d="M338.44 381.06C339.806 382.44 340.042 384.91 338.974 386.685C338.335 387.75 337.309 388.383 336.227 388.383C335.448 388.383 334.695 388.054 334.101 387.455C332.735 386.074 332.502 383.604 333.567 381.829C334.667 380.003 337.022 379.628 338.44 381.06ZM335.036 382.712C334.374 383.811 334.505 385.433 335.317 386.253C335.994 386.938 336.951 386.728 337.505 385.805C338.164 384.706 338.036 383.084 337.224 382.264C336.951 381.991 336.639 381.843 336.315 381.843C335.832 381.843 335.366 382.161 335.036 382.712Z" fill="url(#paint16_linear)"/>
<path d="M331.778 367.734C331.369 367.734 330.968 367.643 330.587 367.467C328.894 366.686 328.039 364.409 328.644 362.284C329.255 360.132 331.326 358.939 333.056 359.743C334.749 360.524 335.602 362.801 335 364.925C334.522 366.606 333.227 367.734 331.778 367.734ZM332.337 361.299C332.181 361.228 332.022 361.191 331.863 361.191C331.187 361.191 330.556 361.819 330.289 362.753C329.923 364.042 330.386 365.49 331.303 365.914C332.119 366.291 333.022 365.613 333.352 364.46C333.718 363.17 333.255 361.722 332.337 361.299Z" fill="url(#paint17_linear)"/>
<path d="M306.37 110.723C306.233 111.056 305.915 111.254 305.577 111.254C305.469 111.254 305.358 111.234 305.253 111.192L296.392 107.568C295.955 107.39 295.744 106.89 295.923 106.452C296.102 106.015 296.605 105.802 297.04 105.984L305.901 109.607C306.338 109.786 306.549 110.286 306.37 110.723Z" fill="url(#paint18_linear)"/>
<path d="M297.018 115.162L305.979 119.168C306.41 119.361 306.604 119.867 306.41 120.298C306.268 120.617 305.956 120.804 305.629 120.804C305.513 120.804 305.393 120.778 305.28 120.73L296.319 116.723C295.887 116.53 295.694 116.025 295.887 115.593C296.078 115.162 296.583 114.971 297.018 115.162Z" fill="url(#paint19_linear)"/>
<path d="M150.986 170.595C150.716 170.595 150.452 170.581 150.191 170.564C149.41 172.063 147.205 175.451 143.171 175.533C143.111 175.533 141.682 175.49 140.426 174.119C139.085 172.654 138.474 170.291 138.588 167.102C137.875 166.889 136.903 166.486 135.494 165.799C133.221 164.711 131.88 162.641 131.815 160.119C131.727 156.644 134.221 153.844 136.585 152.381C137.446 151.85 140.014 150.681 142.04 150.681C143.87 150.681 144.523 151.626 144.756 152.339L149.375 147.781C149.509 147.688 152.688 145.521 155.055 146.532C156.248 147.04 157.001 148.233 157.293 150.078C157.299 150.121 157.299 150.167 157.293 150.209L156.495 155.511C158.89 156.996 161.49 159.949 161.052 163.496C160.484 168.158 155.558 170.595 150.986 170.595ZM141.037 173.523C142.04 174.63 143.139 174.678 143.168 174.681C146.651 174.61 148.659 171.594 149.398 170.223C145.137 166.653 141.708 165.188 140.475 166.864C140.33 167.062 140.045 167.295 139.528 167.295C139.503 167.295 139.463 167.284 139.435 167.281C139.358 170.112 139.903 172.265 141.037 173.523ZM154.719 147.324C152.799 146.503 149.932 148.443 149.921 148.44L145.006 153.299C145.179 153.83 145.409 153.994 146.145 154.417C149.444 156.124 153.037 156.524 155.62 155.403C155.628 155.4 155.64 155.403 155.648 155.397L156.438 150.152C156.188 148.656 155.609 147.705 154.719 147.324ZM155.873 157.146C152.884 158.262 148.958 157.802 145.327 155.922C143.895 155.105 143.509 154.579 143.156 152.972C143.117 152.785 143.031 152.398 142.04 152.398C140.46 152.398 138.173 153.418 137.486 153.841C135.525 155.054 133.457 157.331 133.528 160.08C133.576 161.962 134.537 163.445 136.372 164.325C138.205 165.217 139.006 165.478 139.335 165.552C139.989 164.836 140.881 164.461 141.938 164.461C144.6 164.461 148 166.818 150.461 168.871C150.634 168.88 150.807 168.885 150.986 168.885C154.074 168.885 158.85 167.397 159.356 163.294C159.677 160.676 157.754 158.407 155.873 157.146Z" fill="url(#paint20_linear)"/>
<path d="M1.86707 250.295C1.84436 248.134 1.65393 228.813 1.46643 217.69C1.27325 206.17 3.65979 171.344 5.29907 165.441C5.3985 164.651 7.83038 145.981 15.3846 135.988C15.7227 135.616 23.3935 127.256 26.8624 123.9C24.6379 118.57 24.4304 102.185 24.4219 101.461C24.4191 101.194 24.5413 100.939 24.7543 100.777C24.9674 100.612 25.2458 100.558 25.5044 100.629L28.4504 101.433V99.5329C28.4504 99.195 28.6465 98.8912 28.9562 98.752C32.9421 96.9602 45.2921 96.6081 46.7012 96.574C52.5054 94.3591 58.0652 92.1499 58.7954 91.6018C58.8465 91.5621 58.9033 91.5308 58.963 91.5024L64.8183 88.9155C64.9064 88.8786 64.9944 88.8673 65.0854 88.8587C65.4178 84.25 75.3586 77.2049 85.5209 70.3784C87.3846 69.1261 88.9954 68.0471 89.9102 67.3571C91.1773 66.4029 92.6489 65.1819 94.2087 63.887C100.243 58.8836 107.735 52.679 114.337 52.2076C115.11 51.7391 118.778 49.5242 122.982 47.0821L133.341 40.5083C136.651 38.407 139.94 36.2546 143.228 34.0993C149.143 30.2232 155.259 26.2165 161.447 22.576C185.539 8.39776 214.798 0.566057 243.837 0.526302C247.482 0.534821 250.928 0.807425 254.206 1.29584C254.226 1.293 254.24 1.28165 254.26 1.28165C279.741 -0.362501 307.458 -0.0331042 341.485 2.31811C408.638 6.95523 474.325 18.876 535.308 31.0637C542.743 32.5488 550.047 35.3629 557.209 38.5916C557.232 38.6001 557.263 38.6115 557.283 38.6228C557.289 38.6256 557.292 38.6313 557.297 38.6313C561.198 40.3919 565.059 42.2689 568.872 44.1317C571.633 45.4805 574.361 46.8123 577.051 48.0674C592.765 55.4136 608.274 63.6599 623.147 72.5735C639.69 82.4923 656.06 93.3738 671.89 103.895C677.191 107.419 682.49 110.94 687.8 114.432C697.337 120.702 705.28 125.939 713.426 131.465C713.698 131.649 714.309 132.001 715.107 132.464C720.201 135.417 723.307 137.451 724.19 139.015C728.224 138.975 730.753 138.924 730.85 138.921C730.946 138.924 731.06 138.939 731.162 138.973L758.231 148.886C760.93 149.695 810.449 170.83 812.512 171.711C815.54 172.812 821.376 175.669 827.794 178.977C829.268 179.596 860.09 192.531 868.449 196.705C876.168 200.564 880.543 207.621 883.438 212.292C883.858 212.971 884.253 213.607 884.625 214.18C887.04 217.912 886.472 223.804 886.06 228.106C885.941 229.35 885.836 230.426 885.836 231.19C885.836 233.973 887.944 235.029 888.029 235.071C888.063 235.088 888.088 235.114 888.117 235.134C888.14 235.148 888.165 235.151 888.185 235.168C889.282 236.011 898.935 243.536 899.748 247.64C900.078 248.585 907.842 270.879 909.456 279.497C909.663 281.448 914.561 327.456 914.291 339.402C914.297 339.567 914.857 355.955 917.709 362.432C917.743 362.511 917.766 362.594 917.777 362.679C917.823 363.074 918.848 372.388 916.081 377.919C916.053 377.976 916.013 378.036 915.973 378.084C915.948 378.118 913.266 381.463 914.021 389.11C913.999 389.652 913.408 402.434 908.058 406.653C907.996 406.702 907.927 406.741 907.853 406.773C907.555 406.898 877.503 419.241 836.879 427.201C836.558 427.292 804.014 436.407 754.041 441.72C753.348 441.794 684.433 448.981 657.597 450.043C656.807 450.071 578.392 452.988 559.306 451.653C558.761 451.656 505.04 452.068 498.75 452.005C496.946 452.576 480.383 457.676 466.183 457.676C464.95 457.676 463.734 457.636 462.549 457.554C462.481 457.545 460.555 457.335 457.379 456.892C447.282 474.802 442.756 476.914 442.27 477.096C442.216 477.116 442.159 477.13 442.103 477.139C441.549 477.227 399.416 483.772 372.27 487.665C366.009 489.346 359.551 490.258 353.037 490.258C352.997 490.258 352.957 490.255 352.917 490.255C352.906 490.255 352.895 490.258 352.886 490.258C352.88 490.258 352.875 490.255 352.869 490.255C350.235 490.249 347.596 490.105 344.957 489.803C316.831 486.609 289.205 467.541 274.579 441.226C267.295 428.118 262.295 412.991 259.729 397.163L90.2 332.252C88.4612 341.782 74.1454 350.52 73.5147 350.9C73.3812 350.98 73.2278 351.022 73.0743 351.022C73.063 351.022 73.0516 351.022 73.0374 351.022L30.7829 349.262C30.6749 349.264 30.5755 349.287 30.4676 349.287C29.9107 349.287 29.3369 349.245 28.7573 349.176L28.6664 349.174C28.6635 349.174 28.6578 349.171 28.655 349.171C28.6351 349.168 28.6152 349.171 28.5953 349.168C20.7058 348.163 15.3448 340.799 12.9612 334.24C7.64569 319.619 7.41559 303.961 7.19397 288.817C7.17126 287.199 7.14569 285.586 7.11725 283.976C6.17688 282.718 1.63696 276.425 0.878418 271.123C-0.0846558 264.456 -0.826233 256.076 1.86707 250.295ZM30.1607 100.112V102.551C30.1607 102.818 30.0358 103.068 29.8227 103.233C29.6096 103.395 29.334 103.452 29.0784 103.378L26.1521 102.577C26.2601 107.751 26.7742 118.246 28.192 122.557C31.2404 119.2 35.2434 112.652 36.1582 110.094L37.769 105.868C37.894 105.536 38.2122 105.317 38.5702 105.317H40.4708L37.8372 100.981C37.7036 100.762 37.6753 100.496 37.7605 100.254C37.8458 100.013 38.0332 99.8226 38.2719 99.7345C39.2833 99.3626 40.3912 98.9508 41.539 98.522C37.6469 98.7662 32.6381 99.2348 30.1607 100.112ZM59.7272 93.0387C57.7982 94.2938 43.9625 99.4563 39.8401 100.981L42.7237 105.729C42.8828 105.993 42.8914 106.322 42.7379 106.592C42.5873 106.862 42.3004 107.03 41.9907 107.03H41.8402L57.9743 113.527C62.162 107.555 70.685 102.418 78.8842 98.0904C77.4551 97.0199 75.5375 96.5825 73.5261 96.1225C72.9323 95.9862 72.3442 95.8528 71.7703 95.7023C68.8923 94.9469 66.0854 93.121 65.3098 90.5739L59.7272 93.0387ZM123.926 141.588C123.849 141.738 123.698 141.824 123.542 141.824C123.477 141.824 123.411 141.809 123.352 141.778C120.178 140.194 79.0887 122.957 78.6796 122.787L59.0994 114.904C58.8238 115.318 58.5624 115.736 58.338 116.156C57.5283 117.681 57.2158 120.711 56.9118 123.644C56.6561 126.129 56.389 128.696 55.8009 130.508C53.7014 136.973 51.5281 143.658 49.8916 150.561C38.8685 197.071 54.0026 249.167 67.3582 295.13L68.5855 299.352C70.2276 305.02 79.1939 308.269 85.126 310.418C86.1913 310.804 87.1771 311.159 88.038 311.497C99.1066 315.845 110.283 320.17 121.428 324.452C124.906 317.827 124.656 309.961 124.377 302.339C124.329 301.042 124.284 299.755 124.255 298.492L124.238 297.688C124.031 288.116 123.818 278.217 123.707 268.769C123.451 247.336 123.534 225.508 123.951 202.032C124.321 181.283 125.287 162.553 133.395 143.459L133.543 143.11C138.983 130.209 141.574 124.953 142.98 122.858C142.901 122.835 142.821 122.815 142.739 122.792C142.733 122.792 142.73 122.792 142.725 122.792C142.719 122.792 142.716 122.787 142.711 122.787C134.699 120.631 126.5 118.309 121.843 116.647C120.548 116.185 90.3279 105.323 80.3389 99.2632C75.1454 101.972 64.449 107.666 59.6136 114.194L79.0035 122C80.6968 122.71 120.534 139.421 123.732 141.017C123.946 141.119 124.031 141.375 123.926 141.588ZM248.288 307.882C248.973 301.175 249.68 294.241 250.078 287.5L250.121 286.758C251.507 263.275 252.939 238.993 257.425 215.464C258.113 211.855 270.11 162.292 278.156 154.349L165.021 128.543C164.882 128.509 158.694 126.978 150.85 124.936C150.847 124.936 150.844 124.936 150.841 124.936C150.839 124.936 150.836 124.933 150.833 124.933C148.873 124.422 146.81 123.88 144.711 123.321C143.782 124.434 140.807 130.295 135.122 143.774L134.974 144.127C126.985 162.939 126.034 181.493 125.664 202.061C125.247 225.519 125.167 247.333 125.42 268.747C125.534 278.188 125.747 288.082 125.951 297.648L125.968 298.452C125.994 299.707 126.042 300.985 126.088 302.271C126.372 310.058 126.653 318.094 123.059 325.074C134.02 329.282 144.944 333.445 155.685 337.542C184.417 348.492 214.119 359.816 243.183 371.459C244.322 370.306 248.036 365.49 246.732 352.612C245.234 337.818 246.786 322.6 248.288 307.882ZM127.724 46.3353C122.127 49.4986 116.181 53.0907 115.201 53.6842L81.7053 98.0819C85.8305 100.49 93.0978 103.656 100.362 106.601C115.263 71.4518 131.724 46.1819 131.889 45.9292C131.954 45.8298 132.037 45.7474 132.133 45.6821C148.154 35.1272 166.828 28.3575 184.888 21.8065L188.692 20.4264C189.013 20.31 189.36 20.4066 189.59 20.6423L195.73 19.0691C196.065 18.7539 196.264 18.592 196.312 18.5523C196.681 18.2598 197.221 18.3251 197.514 18.6971C197.514 18.6971 197.514 18.6999 197.517 18.6999L203.653 17.8481C203.713 17.76 203.753 17.6976 203.761 17.689C203.909 17.4676 204.145 17.3511 204.392 17.3256C204.412 17.3199 204.429 17.3085 204.452 17.3057C207.557 16.8939 209.963 16.6384 212.247 16.4737C221.711 15.7893 231.793 15.5536 241.427 18.4075C250.095 20.9745 257.968 25.7053 264.192 32.086C268.94 36.9503 272.61 42.7829 276.159 48.4252C277.332 50.2909 278.505 52.1537 279.713 53.9767C279.852 54.1868 279.892 54.4509 279.818 54.6951L263.357 109.585C264.258 112.11 264.178 114.342 263.084 116.352C262.263 117.86 260.491 118.919 258.709 119.709H265.121L281.599 60.258C281.693 59.9201 281.983 59.673 282.332 59.6361C282.673 59.602 283.017 59.7752 283.182 60.0848C287.173 67.5956 292.807 78.1505 295.202 82.5491L295.878 78.46C295.955 77.9943 296.393 77.6706 296.861 77.7558C296.901 77.7615 296.932 77.7842 296.969 77.7955C290.634 63.7649 283.062 50.3505 274.352 37.7681L273.446 36.4675C267.562 28.0679 261.866 22.4227 255.516 18.7028C247.328 13.9067 238.029 12.2682 228.37 12.2682C220.671 12.2682 212.742 13.3103 204.963 14.6279C204.778 14.6705 186.457 18.9243 183.34 20.0914L164.478 27.5766C164.163 27.7271 133.81 42.8993 127.724 46.3353ZM150.356 123.037C154.492 103.418 171.507 60.6073 171.692 60.1416C183.016 34.4429 191.178 23.922 194.573 20.2504L189.795 21.4743C189.752 21.6163 189.687 21.7497 189.573 21.8576C188.9 22.488 188.479 23.2888 188.036 24.135C187.789 24.6035 187.539 25.0778 187.246 25.535C178.794 38.7705 172.385 49.7428 167.081 60.0706C162.714 68.5696 158.686 78.0199 154.012 90.7159L152.452 94.9214C149.262 103.497 145.978 112.36 143.935 121.338C146.123 121.923 148.287 122.497 150.356 123.037ZM250.871 146.367C254.959 140.764 253.124 137.354 252.541 136.531L229.745 131.575L191.087 126.14C190.627 126.078 179.789 124.533 174.325 119.694C172.706 118.257 170.533 116.503 170.53 116.5C170.163 116.204 170.106 115.671 170.399 115.301C170.311 114.887 170.365 114.535 170.464 114.285C170.802 113.439 171.76 112.885 172.533 112.558C170.635 109.838 170.254 103.733 170.217 102.869C170.797 96.7927 174.391 93.8309 178.556 90.4007L178.894 90.1224C182.448 87.1947 186.474 83.8752 191.048 82.6911C192.92 82.2055 195.008 81.9812 197.625 81.9812C198.866 81.9812 200.11 82.0266 201.352 82.0749C202.562 82.1203 203.77 82.1686 204.966 82.1686H218.404C219.321 82.1828 220.248 82.1913 221.179 82.197C231.74 82.285 242.66 82.3759 249.979 91.0538C252.175 93.6577 254.203 96.3355 256.093 98.8571C256.587 99.5159 257.175 100.234 257.8 101.001C259.326 102.869 261.033 104.979 262.278 107.228L278.065 54.5816C276.929 52.8551 275.821 51.0945 274.713 49.3311C271.21 43.7654 267.587 38.0123 262.968 33.2758C256.948 27.1024 249.331 22.5278 240.942 20.0431C231.572 17.2659 221.674 17.5016 212.372 18.1746C210.196 18.3336 207.892 18.5778 204.966 18.9612C203.369 21.3664 192.994 37.2058 188.102 49.6718C187.974 49.9757 175.337 80.3313 172.561 90.5057C172.484 90.7727 164.998 116.599 163.413 126.37C164.64 126.677 165.373 126.859 165.419 126.87L250.871 146.367ZM255.141 139.012C259.618 138.552 280.341 135.642 282.724 121.421H282.722H255.033C254.647 121.421 254.334 121.162 254.226 120.81L235.748 119.126V124.689C235.748 124.831 235.677 124.968 235.558 125.044C233.515 126.402 230.901 128.602 230.367 129.96L253.203 134.92C253.377 134.957 253.533 135.048 253.652 135.179C253.746 135.284 254.919 136.63 255.141 139.012ZM290.236 112.476L294.773 85.1076C293.62 83.3697 290.847 78.1533 282.673 62.7824L266.897 119.709H282.702C289.747 119.532 290.208 112.854 290.236 112.476ZM260.959 108.364C259.783 106.141 258.025 103.985 256.473 102.089C255.828 101.299 255.226 100.561 254.72 99.8879C252.845 97.3862 250.834 94.7311 248.666 92.1612C241.854 84.0853 231.336 83.9973 221.159 83.9121C220.225 83.9036 219.296 83.8979 218.387 83.8837H204.963C203.744 83.8837 202.517 83.8354 201.281 83.79C200.062 83.7446 198.838 83.6963 197.619 83.6963C195.119 83.6963 193.221 83.8979 191.471 84.3494C187.263 85.4398 183.391 88.6287 179.865 91.5365L179.638 91.7239C175.609 95.0435 172.428 97.6644 171.919 102.909C172.061 105.607 172.768 110.258 174.075 111.792L255.326 119.192L255.391 119.169C257.348 118.465 260.627 117.286 261.579 115.537C262.661 113.547 262.457 111.201 260.959 108.364ZM171.604 115.168C171.626 115.185 173.831 116.968 175.459 118.414C175.581 118.522 175.718 118.618 175.845 118.723L227.586 124.042C228.736 123.568 229.739 122.863 229.717 122.54C229.717 122.537 229.677 122.202 228.353 121.887C225.114 121.117 194.11 116.238 180.257 114.072L173.604 113.467C173.419 113.45 173.246 113.373 173.107 113.248C172.402 113.518 171.501 113.984 171.254 114.603C171.203 114.731 171.2 114.867 171.212 115.003C171.354 115.029 171.487 115.077 171.604 115.168ZM229.518 129.818C230.188 127.787 233.723 125.254 234.893 124.462V119.05L193.411 115.27C208.119 117.59 226.072 120.464 228.552 121.052C229.387 121.25 230.506 121.614 230.569 122.477C230.654 123.647 228.475 124.61 227.805 124.877C227.754 124.897 227.702 124.908 227.646 124.908C227.631 124.908 227.617 124.908 227.603 124.905L177.229 119.726C182.664 123.204 191.221 124.434 191.32 124.448L229.518 129.818ZM161.742 125.956C163.39 115.989 170.598 91.1219 170.911 90.0486C173.712 79.7804 185.996 50.271 186.513 49.0386C191.084 37.3904 200.363 22.8685 203.025 18.8022L197.619 19.5518C197.565 19.6825 197.488 19.8074 197.369 19.9011C197.275 19.9749 187.903 27.5994 173.268 60.806C173.095 61.2433 156.086 104.048 152.012 123.471C155.901 124.479 159.325 125.348 161.742 125.956ZM142.279 120.893C144.344 111.829 147.643 102.932 150.844 94.325L152.401 90.1252C157.097 77.3611 161.154 67.8512 165.552 59.2897C170.882 48.9136 177.317 37.8959 185.8 24.6149C186.067 24.1975 186.292 23.7659 186.516 23.3399C186.581 23.2178 186.647 23.0929 186.712 22.9679L185.471 23.4194C167.561 29.9137 149.043 36.6266 133.224 47.0139C131.855 49.1323 116.198 73.6383 101.95 107.24C112.334 111.405 122.244 114.963 122.42 115.029C126.866 116.616 134.594 118.817 142.279 120.893ZM297.515 79.0279L291.935 112.658C291.932 112.72 291.628 117.218 288.117 119.745L281.798 153.438L298.435 157.547L310.038 144.581C317.209 138.169 312.581 120.458 312.541 120.302C310.001 111.729 306.933 102.713 303.163 92.7348C301.413 88.1062 299.523 83.5373 297.515 79.0279ZM286.185 120.765C285.429 121.049 284.571 121.248 283.602 121.341C281.284 136.394 259.704 139.401 255.172 139.867C255.155 141.693 254.547 144.016 252.669 146.779L280.13 153.043L286.185 120.765ZM90.9415 68.7229C89.9897 69.4413 88.4386 70.4835 86.4755 71.8011C79.6797 76.3644 67.0287 84.8605 66.7844 89.0064C66.6395 91.4684 69.4009 93.3113 72.2021 94.0468C72.759 94.1916 73.33 94.3222 73.9039 94.4528C76.1937 94.9753 78.5518 95.5177 80.3303 97.0653L112.672 54.1954C107.016 55.5044 100.584 60.8287 95.2996 65.2075C93.7257 66.5137 92.237 67.7461 90.9415 68.7229ZM534.967 32.7448C474.041 20.5656 408.417 8.65617 341.36 4.02757C310.169 1.87229 284.31 1.42647 260.613 2.63615C264.681 3.74361 268.414 5.26849 271.744 7.26475C275.281 9.3888 278.858 12.342 282.44 16.0392C289.185 16.2153 397.842 19.0947 428.5 22.1984C432.702 22.63 517.873 31.413 547.624 36.459C543.436 34.8915 539.214 33.5938 534.967 32.7448ZM379.524 129.812C379.529 129.812 379.532 129.815 379.535 129.818C379.541 129.818 379.546 129.818 379.552 129.818C387.447 131.132 469.072 131.68 469.922 131.686C477.615 131.95 545.007 133.549 545.72 133.566C554.263 134.097 605.001 135.96 605.538 135.98C621.175 137.039 671.833 137.584 672.427 137.593C678.37 138.234 686.05 138.609 693.874 138.822C661.836 101.927 618.973 76.9067 577.486 52.7187C570.247 48.4991 562.775 44.1402 555.488 39.7927C541.121 35.5276 429.489 24.0186 428.329 23.8993C399.234 20.9546 299.603 18.2087 284.102 17.7941C286.321 20.2305 288.543 22.9395 290.756 25.9552C299.56 37.9498 307.521 50.856 315.22 63.3361L315.655 64.0432C320.484 72.3378 349.69 115.029 349.963 115.426C358.693 126.984 379.316 129.786 379.524 129.812ZM714.241 133.952C713.394 133.461 712.747 133.083 712.457 132.887C704.32 127.367 696.382 122.136 686.851 115.869C681.538 112.377 676.239 108.853 670.932 105.326C655.119 94.8135 638.766 83.9434 622.257 74.0472C607.436 65.162 591.981 56.9441 576.318 49.6235C574.986 49.0017 573.642 48.3599 572.292 47.7068C574.312 48.8881 576.349 50.0779 578.344 51.2421C620.399 75.7595 663.878 101.112 696.212 138.882C705.823 139.103 715.4 139.095 722.042 139.044C720.866 137.984 718.264 136.283 714.241 133.952ZM811.875 173.312C794.059 165.708 759.819 151.16 757.683 150.519L730.716 140.645C730.065 140.656 727.5 140.702 723.733 140.739C723.693 140.745 723.659 140.762 723.619 140.762H723.616C723.574 140.762 723.54 140.745 723.5 140.739C716.764 140.801 706.297 140.83 695.837 140.583C695.831 140.583 695.825 140.585 695.82 140.585C695.814 140.585 695.808 140.583 695.803 140.583C687.28 140.381 678.774 139.998 672.316 139.299C671.805 139.293 621.098 138.751 605.441 137.689C604.93 137.669 554.172 135.804 545.641 135.275C544.959 135.258 477.559 133.662 469.882 133.398C466.831 133.378 401.482 132.941 383.279 131.862L426.594 156.257C440.483 160.596 454.393 165.875 467.845 170.984C474.436 173.485 481.249 176.072 487.954 178.509C494.735 180.974 501.503 183.455 508.261 185.934C541.541 198.145 575.952 210.773 610.905 220.399C613.976 221.245 617.024 222.222 619.973 223.168C621.371 223.616 622.766 224.062 624.166 224.497C629.567 226.172 634.968 227.839 640.369 229.5L665.228 237.156C675.276 237.735 695.769 239.041 704.931 240.498C670.18 219.763 631.937 202.455 595.614 186.517C592.822 185.29 590.026 184.069 587.225 182.859C555.732 169.263 520.975 157.484 477.84 145.791C477.613 145.728 477.476 145.495 477.539 145.265C477.601 145.038 477.828 144.902 478.064 144.964C521.239 156.669 556.033 168.459 587.563 182.073C590.367 183.282 593.162 184.503 595.958 185.73C633.008 201.993 672.077 219.655 707.405 240.958C708.067 241.109 708.602 241.259 708.962 241.41C713.917 240.614 770.973 231.576 790.247 233.39C791.684 233.49 824.913 235.781 831.177 237.247C829.885 233.288 828.686 229.724 826.112 224.295C812.253 195.052 792.375 175.678 757.498 157.419C757.288 157.308 757.208 157.05 757.319 156.84C757.43 156.632 757.689 156.553 757.899 156.661C792.954 175.013 812.941 194.504 826.887 223.929C829.487 229.415 830.694 233.004 831.995 236.997C841.223 233.839 851.888 230.434 855.226 230.329C858.184 225.485 864.977 213.615 864.775 210.333C864.775 210.267 864.818 203.608 854.476 195.274C854.15 195.089 820.614 176.49 811.875 173.312ZM432.085 179.684L432.776 180.32L477.476 196.515C478.263 196.515 482.644 197.089 490.099 208.762L528.762 259.481C528.896 259.654 528.876 259.901 528.717 260.052C528.634 260.131 528.529 260.168 528.424 260.168C528.325 260.168 528.225 260.134 528.146 260.066C527.879 259.836 503.355 238.74 488.766 231.783L491.903 234.665L491.943 234.657L492.269 235.003C492.445 235.191 509.815 254.023 510.219 276.632L510.222 276.743L509.219 280.866L568.38 303.603L565.409 299.134C561.062 297.109 540.621 288.661 526.654 282.95C526.435 282.86 526.33 282.613 526.421 282.391C526.509 282.172 526.759 282.067 526.981 282.158C534.873 285.384 543.445 288.905 550.612 291.892L537.66 271.251L511.929 264.45C511.702 264.391 511.566 264.155 511.625 263.928C511.685 263.698 511.915 263.559 512.148 263.624L548.129 273.131L542.234 264.266C540.399 261.707 539.376 259.379 539.138 257.286C535.964 257.618 535.316 259.751 535.288 259.847C535.248 260.009 535.118 260.131 534.953 260.162C534.927 260.168 534.899 260.171 534.873 260.171C534.737 260.171 534.609 260.106 534.527 259.995L505.781 220.254C502.79 215.455 502.094 211.747 503.71 209.236C506.642 204.69 516.003 205.863 516.427 205.92L554.59 213.175L476.976 184.458C467.956 180.55 465.143 176.799 464.373 174.34C463.984 173.094 464.078 172.105 464.243 171.449C452.109 166.846 439.651 162.172 427.204 158.239C427.307 159.923 427.304 161.633 427.301 163.3C427.287 169.45 427.278 175.263 432.085 179.684ZM486.849 230.023C498.346 234.606 518.208 250.641 525.719 256.9L489.4 209.254C481.687 197.174 477.513 197.355 477.465 197.37C477.397 197.381 477.331 197.372 477.266 197.347L434.412 181.82L486.849 230.023ZM420.804 401.996C420.789 401.999 420.775 401.999 420.758 401.999C420.542 401.999 420.355 401.835 420.335 401.616C417.281 371.629 414.005 349.318 409.383 327.007C404.243 302.2 396.266 278.81 385.691 257.453L372.54 262.565C373.026 263.283 373.498 264.024 373.972 264.765C373.995 264.794 374.012 264.825 374.032 264.856C389.126 288.567 397.084 323.58 400.226 340.405C400.235 340.445 400.246 340.481 400.249 340.518C401.34 346.374 401.845 350 401.862 350.125C405.726 367.322 407.468 406.236 407.846 415.769C407.985 415.749 408.133 415.752 408.292 415.806C408.61 415.911 408.991 416.044 409.027 417.665C413.002 418.921 424.287 422.376 445.151 427.979C450.799 429.495 455.745 430.265 459.845 430.265H459.848C471.578 430.262 472.635 424.117 472.692 423.774L475.948 410.39V410.387L508.509 276.553C508.097 256.326 493.661 239.161 491.335 236.522L386.538 257.221C397.107 278.6 405.084 302.007 410.229 326.831C414.857 349.174 418.139 371.513 421.193 401.528C421.207 401.761 421.036 401.971 420.804 401.996ZM370.52 262.644L369.898 261.753L369.904 261.75C368.361 259.535 366.137 256.559 363.333 253.362C360.438 253.234 342.38 252.876 322.774 261.596C339.3 255.256 356.466 255.636 370.665 262.866C370.62 262.795 370.571 262.718 370.52 262.644ZM293.495 280.577C293.503 280.568 293.503 280.557 293.512 280.548C318.399 253.131 352.954 251.556 361.764 251.618C350.639 239.567 331.863 225.916 310.697 238.59C301.154 244.306 292.75 253.804 286.401 266.063C280.599 277.26 277.986 289.97 275.457 302.263C275.329 302.882 275.196 303.492 275.071 304.111C280.199 295.246 286.375 287.349 293.495 280.577ZM398.754 341.87L392.382 345.252C393.598 349.23 394.501 353.376 395.089 357.599L401.246 356.065C400.908 354.012 400.553 352.11 400.175 350.426C400.158 350.292 399.706 347.078 398.754 341.87ZM393.422 358.013C392.862 353.93 391.996 349.923 390.839 346.07L367.543 358.428C368.08 360.282 368.466 362.205 368.714 364.167L393.422 358.013ZM401.516 357.763L394.902 359.41C394.785 359.498 394.658 359.567 394.501 359.586C394.464 359.592 394.427 359.592 394.393 359.592C394.348 359.592 394.308 359.575 394.263 359.569L366.313 366.529C366.242 366.546 366.174 366.555 366.105 366.555C365.722 366.555 365.372 366.297 365.276 365.907C365.162 365.447 365.441 364.985 365.898 364.871L367.046 364.584C366.827 362.764 366.466 360.984 365.986 359.257L365.063 359.748C364.935 359.816 364.799 359.848 364.662 359.848C364.355 359.848 364.06 359.683 363.906 359.393C363.685 358.976 363.844 358.459 364.262 358.238L398.43 340.112C397.161 333.379 395.152 323.938 392.268 313.53C392.192 313.477 392.118 313.417 392.061 313.335C380.526 297.083 364.764 287.832 347.679 287.281C347.144 287.261 346.619 287.255 346.088 287.255C311.689 287.255 282.804 323.239 281.346 368.406C280.628 390.666 286.599 411.799 298.162 427.911C309.674 443.955 325.354 453.09 342.312 453.635C373.02 454.643 396.572 430.393 403.757 390.396C403.84 389.942 404.266 389.647 404.718 389.706C403.973 378.882 402.925 366.961 401.516 357.763ZM404.951 393.213C397.232 431.801 374.182 455.376 344.124 455.373C343.505 455.373 342.88 455.362 342.255 455.342C324.754 454.777 308.6 445.389 296.77 428.902C284.989 412.483 278.903 390.979 279.633 368.344C281.142 321.538 311.686 284.487 347.733 285.563C364.176 286.094 379.401 294.403 390.993 309.058C390.433 307.164 389.851 305.25 389.234 303.319C377.748 290.51 363.097 283.189 347.832 282.698C347.673 282.695 330.823 282.53 313.834 292.954C298.151 302.578 279.156 323.455 277.733 368.284C276.844 396.303 286.131 423.194 302.575 440.215C313.899 451.937 327.584 458.159 342.15 458.207C342.247 458.207 342.34 458.207 342.437 458.207C375.95 458.207 397.135 439.093 405.445 401.417C405.3 398.853 405.135 396.087 404.951 393.213ZM477.647 410.6C477.965 412.503 478.667 413.733 479.752 414.232C481.857 415.209 484.868 413.406 484.894 413.406L529.697 373.285C541.868 361.211 530.146 346.771 529.7 346.226L500.338 317.336L477.647 410.6ZM571.287 304.889C571.349 304.983 571.352 305.097 571.375 305.202L584.392 310.032L546.82 268.085L571.287 304.889ZM551.203 292.037C551.158 292.066 551.11 292.069 551.059 292.08C556.934 294.531 561.823 296.603 564.539 297.83L548.831 274.202L538.865 271.566L551.34 291.447C551.462 291.648 551.402 291.912 551.203 292.037ZM708.979 243.142C708.92 243.153 708.863 243.156 708.806 243.156C708.607 243.156 708.434 243.093 708.28 242.94C706.363 241.685 681.296 239.805 665.563 238.888C664.424 240.492 659.685 244.343 640.247 246.396C657.074 248.815 708.761 256.107 733.946 258.101L709.315 243.085C709.136 243.116 709.005 243.139 708.979 243.142ZM663.642 238.456L639.872 231.133C637.414 230.378 634.957 229.614 632.499 228.858L516.284 206.763C516.191 206.752 507.062 205.602 504.423 209.699C503 211.906 503.699 215.305 506.483 219.774L534.774 258.885C535.271 258.007 536.464 256.664 539.086 256.414C539.081 255.361 539.265 254.367 539.697 253.452C542.226 248.077 551.334 247.376 551.763 247.347L614.598 246.004C652.099 245.587 661.466 240.365 663.642 238.456ZM465.044 171.75C464.925 172.281 464.871 173.074 465.186 174.082C465.902 176.371 468.587 179.892 477.289 183.663L559.655 214.138L625.169 226.595C624.669 226.439 624.166 226.286 623.666 226.132C622.26 225.695 620.86 225.249 619.456 224.798C616.524 223.858 613.49 222.887 610.453 222.052C575.432 212.405 540.984 199.766 507.673 187.542C500.917 185.063 494.153 182.581 487.371 180.116C480.655 177.677 473.834 175.087 467.24 172.582C466.516 172.307 465.774 172.029 465.044 171.75ZM853.26 237.638C853.235 237.514 853.235 237.383 853.266 237.255L854.61 232.027C851.621 232.422 841.769 235.475 832.535 238.627C833.652 242.043 834.979 245.978 837.348 251.774L853.26 237.638ZM884.347 227.955C884.716 224.13 885.273 218.355 883.179 215.123C882.801 214.541 882.404 213.896 881.975 213.209C879.014 208.433 874.957 201.89 867.673 198.25C863.573 196.203 853.999 192.017 845.175 188.229C850.769 191.267 854.922 193.573 855.437 193.866C866.65 202.887 866.505 210.097 866.494 210.313C866.769 214.686 857.778 229.469 856.502 231.542L855.212 236.557L885.444 235.108C884.745 234.242 884.114 232.973 884.114 231.204C884.117 230.355 884.222 229.242 884.347 227.955ZM910.74 310.364L906.64 313.911C905.674 314.746 905.075 315.961 904.998 317.236L903.578 340.913C903.549 341.387 903.774 341.819 904.174 342.072C904.575 342.322 905.064 342.333 905.473 342.1L912.587 338.09C912.55 332.36 911.712 321.32 910.74 310.364ZM559.357 449.955C578.426 451.275 656.742 448.373 657.529 448.345C684.308 447.283 753.169 440.101 753.859 440.03C803.67 434.732 836.089 425.656 836.479 425.551C875.739 417.856 905.038 406.085 907.084 405.251C911.734 401.431 912.302 389.178 912.308 389.175C911.538 381.474 914.095 377.723 914.581 377.09C916.911 372.325 916.192 364.113 916.081 363.008C913.143 356.156 912.595 340.152 912.572 339.425C912.575 339.317 912.572 339.187 912.575 339.076L905.887 342.844C905.558 343.029 905.197 343.122 904.839 343.122C904.45 343.122 904.064 343.012 903.714 342.796C903.041 342.375 902.669 341.654 902.717 340.862L904.14 317.185C904.231 315.68 904.936 314.252 906.078 313.264L910.646 309.314C909.314 294.403 907.78 279.983 907.757 279.756C906.177 271.331 898.205 248.443 898.092 248.1C897.498 245.138 890.373 239.058 887.378 236.727L854.135 238.32C854.121 238.323 854.107 238.323 854.096 238.323C854.008 238.323 853.925 238.292 853.84 238.266L837.464 252.816C837.385 252.887 837.285 252.924 837.18 252.924C837.149 252.924 837.115 252.921 837.084 252.913C836.947 252.882 836.837 252.788 836.785 252.66C834.263 246.535 832.882 242.443 831.726 238.905C831.669 238.925 831.609 238.945 831.552 238.965C831.39 239.021 831.214 239.024 831.049 238.982C825.822 237.562 790.494 235.125 790.116 235.1C772.385 233.413 720.525 241.33 710.624 242.883L735.915 258.302C736.083 258.405 736.159 258.612 736.1 258.799C736.043 258.978 735.875 259.098 735.691 259.098C735.679 259.098 735.671 259.098 735.659 259.095C709.181 257.172 648.335 248.44 636.653 246.745C630.63 247.265 623.377 247.62 614.623 247.716L551.84 249.057C551.755 249.062 543.351 249.704 541.246 254.182C540.175 256.46 540.936 259.455 543.507 263.104L592.66 317.98C593.327 318.835 600.299 327.785 608.325 338.437L642.494 339.97C644.252 340.05 645.849 341.069 646.662 342.628L660.753 369.687C661.202 370.545 661.171 371.556 660.676 372.39C660.182 373.222 659.307 373.731 658.335 373.748L633.246 374.182C633.502 374.716 633.707 375.193 633.812 375.551C633.823 375.591 633.829 375.628 633.829 375.667C633.829 376.153 633.545 386.872 612.211 401.147C624.652 395.07 631.653 391.751 632.993 391.288C633.289 391.123 663.111 375.094 696.686 376.426C697.72 376.329 800.293 366.717 824.387 362.219C826.555 361.759 877.406 350.991 888.395 351.462C889.589 351.218 898.774 349.605 903.595 356.037C905.072 357.653 912.43 365.859 912.143 368.716C912.132 369.108 911.783 378.376 905.015 382.037C904.771 382.181 880.048 396.726 822.552 406.568C821.916 406.67 758.575 416.791 732.276 418.384C731.685 418.435 672.879 423.223 648.974 422.413C647.017 422.413 600.984 422.393 596.495 420.795C596.285 420.764 591.347 420.008 589.946 416.947C589.549 416.075 589.472 415.13 589.713 414.119C577.074 420.363 566.656 425.548 566.616 425.568C555.766 430.214 516.404 445.287 503.253 450.307C517.813 450.27 558.823 449.958 559.357 449.955ZM632.82 373.336L658.321 372.893C658.992 372.882 659.597 372.529 659.941 371.953C660.284 371.379 660.304 370.678 659.995 370.085L645.903 343.026C645.23 341.737 643.909 340.893 642.454 340.828L608.993 339.326C618.578 352.067 629.425 366.938 632.82 373.336ZM607.87 339.275L603.464 339.076C602.995 339.076 602.58 339.323 602.356 339.74C602.132 340.155 602.154 340.638 602.41 341.032L622.661 371.925C623.294 372.887 624.36 373.461 625.51 373.461V373.89L625.57 373.461L631.86 373.353C628.297 366.83 617.391 351.919 607.87 339.275ZM716.61 403.862L719.627 395.181C704.709 396.002 689.663 396.618 674.316 397.121L670.748 405.668C685.996 405.225 701.306 404.651 716.61 403.862ZM758.311 401.039L760.612 392.325C747.265 393.466 733.955 394.383 720.551 395.13L717.536 403.808C731.162 403.098 744.768 402.192 758.311 401.039ZM765.229 400.463C775.147 399.551 785.079 398.356 794.985 396.902L797.727 388.238C786.857 389.735 775.689 391.001 764.075 392.029C763.223 392.106 762.371 392.174 761.518 392.245L759.214 400.96C761.217 400.792 763.229 400.648 765.229 400.463ZM829.169 390.814L831.777 382.579C820.998 384.703 809.995 386.537 798.667 388.113L795.929 396.763C807.065 395.11 818.165 393.128 829.169 390.814ZM839.811 388.477L843.777 387.565C848.777 386.418 853.812 385.257 858.832 384.016L861.67 376.207C855.565 377.664 849.493 378.936 843.644 380.151L838.913 381.139C836.865 381.571 834.797 381.977 832.734 382.386L830.126 390.618C833.365 389.931 836.595 389.218 839.811 388.477ZM884.165 376.533L886.631 368.676C878.895 371.689 870.761 374.006 862.664 375.965L859.829 383.766C868.082 381.707 876.27 379.401 884.165 376.533ZM877.449 362.347C876.114 362.665 874.804 362.974 873.528 363.292C870.213 364.119 866.812 364.914 863.377 365.692L861.161 374.566C868.923 372.714 876.724 370.547 884.182 367.767L886.662 359.978C883.56 360.89 880.426 361.64 877.449 362.347ZM838.936 370.661C837.294 370.956 835.638 371.246 833.973 371.53L830.768 381.034C833.376 380.523 835.979 380.003 838.564 379.458L843.3 378.47C848.797 377.326 854.493 376.136 860.224 374.787L862.445 365.899C854.832 367.611 846.982 369.213 838.936 370.661ZM799.954 376.428L797.261 386.58C808.392 385.052 819.208 383.286 829.796 381.233L833.013 371.695C822.708 373.441 811.89 374.994 799.954 376.428ZM764.075 380.111C763.797 380.137 763.518 380.157 763.237 380.182L760.268 390.638C761.487 390.533 762.706 390.436 763.925 390.328C775.101 389.34 785.86 388.128 796.341 386.705L799.04 376.536C788.409 377.803 776.9 378.975 764.075 380.111ZM720.585 383.431L717.483 393.583C731.506 392.83 745.415 391.896 759.356 390.717L762.325 380.259C748.396 381.477 734.466 382.539 720.585 383.431ZM716.571 393.628L719.673 383.488C705.036 384.419 690.459 385.169 675.998 385.728L670.864 395.519C686.359 395.031 701.536 394.429 716.571 393.628ZM669.878 395.55L675.012 385.762C674.166 385.793 673.325 385.819 672.478 385.85L672.455 385.901L672.347 385.856C664.242 386.154 656.165 386.404 648.142 386.583C639.346 389.817 633.863 392.756 633.684 392.847C633.033 393.077 630.84 394.057 625.3 396.709C640.548 396.368 655.361 396.005 669.878 395.55ZM672.29 384.146L674.265 379.629C666.56 380.895 659.497 382.775 653.494 384.729C659.733 384.57 666 384.376 672.29 384.146ZM675.268 379.464L673.237 384.112C687.587 383.579 702.053 382.86 716.582 381.96L718.44 376.053C705.704 377.297 697.056 378.107 696.729 378.138C689.291 377.84 682.047 378.408 675.268 379.464ZM719.366 375.963L717.497 381.903C731.438 381.031 745.432 379.989 759.436 378.785L762.209 371.615C746.734 373.251 731.341 374.79 719.366 375.963ZM763.166 371.513L760.385 378.706C761.567 378.603 762.746 378.513 763.927 378.408C776.005 377.34 786.906 376.235 797.011 375.054L799.04 367.495C788.264 368.795 775.715 370.184 763.166 371.513ZM799.952 367.381L797.923 374.943C809.742 373.549 820.472 372.044 830.649 370.357L833.47 362.091C828.271 363.147 824.859 363.869 824.72 363.897C819.506 364.871 810.648 366.081 799.952 367.381ZM834.442 361.895L831.606 370.195C833.973 369.798 836.314 369.395 838.629 368.977C846.013 367.648 853.226 366.186 860.249 364.633L862.559 356.525C852.542 358.292 841.891 360.387 834.442 361.895ZM863.497 356.361L861.198 364.422C865.238 363.522 869.233 362.599 873.111 361.634C874.392 361.316 875.71 361.001 877.048 360.685C879.361 360.137 881.77 359.555 884.182 358.902L886.103 353.209C881.262 353.456 872.713 354.751 863.497 356.361ZM887.02 353.172L885.179 358.627C889.532 357.403 893.816 355.867 897.509 353.708C895.646 353.038 893.722 352.842 892.143 352.842C890.131 352.842 888.682 353.149 888.645 353.158C888.571 353.175 888.486 353.183 888.418 353.175C888.02 353.158 887.537 353.16 887.02 353.172ZM899.373 354.592C895.87 356.812 891.816 358.405 887.657 359.675L885.202 367.384C891.64 364.928 897.791 361.995 903.407 358.391C903.032 357.962 902.654 357.539 902.277 357.127C901.444 356.023 900.441 355.213 899.373 354.592ZM904.538 359.703C899.296 363.088 893.606 365.893 887.659 368.267L885.179 376.164C893.373 373.126 901.225 369.449 908.473 364.766C907.416 363.244 906.024 361.463 904.538 359.703ZM909.413 366.197C902.413 370.721 894.881 374.321 887.034 377.306L883.202 389.584C897.404 384.51 904.021 380.634 904.163 380.551C910.089 377.345 910.425 368.75 910.43 368.605C910.476 368.162 910.089 367.302 909.413 366.197ZM882.193 389.948L886.02 377.683C877.923 380.702 869.514 383.101 861.039 385.231L858.977 397.016C868.201 394.585 875.909 392.16 882.193 389.948ZM858.067 397.251L860.133 385.456C854.809 386.782 849.465 388.014 844.161 389.232L840.197 390.144C837.72 390.715 835.234 391.26 832.745 391.799L829.16 403.646C840.067 401.616 849.684 399.435 858.067 397.251ZM828.211 403.822L831.785 392.009C820.611 394.409 809.333 396.456 798.011 398.174L795.826 408.914C810.742 406.722 822.004 404.921 822.268 404.881C824.296 404.535 826.268 404.18 828.211 403.822ZM794.929 409.047L797.111 398.311C786.551 399.895 775.959 401.196 765.385 402.17C763.794 402.317 762.192 402.428 760.598 402.567L757.64 414.127C769.959 412.619 783.457 410.728 794.929 409.047ZM756.731 414.238L759.697 402.644C746.685 403.768 733.614 404.654 720.522 405.364L715.352 417.944C725.159 417.251 731.946 416.697 732.154 416.683C738.6 416.288 747.288 415.382 756.731 414.238ZM714.397 418.009L719.574 405.415C704.277 406.233 688.97 406.841 673.725 407.298L668.1 420.553C683.262 420.068 701.32 418.929 714.397 418.009ZM667.16 420.582L672.785 407.324C655.565 407.835 638.431 408.192 621.504 408.539C614.371 408.684 607.24 408.831 600.109 408.99C599.404 409.337 598.691 409.686 597.958 410.05L593.671 412.165C593.128 412.432 592.589 412.699 592.052 412.963C591.282 414.244 591.094 415.345 591.5 416.234C592.339 418.074 595.569 418.929 596.901 419.142C600.532 420.423 635.718 420.704 649 420.704C653.864 420.866 660.188 420.798 667.16 420.582ZM621.47 406.829C637.431 406.503 653.582 406.159 669.81 405.696L673.379 397.155C656.557 397.7 639.372 398.115 621.57 398.509C617.229 400.605 611.436 403.43 603.751 407.207C609.655 407.074 615.561 406.952 621.47 406.829ZM462.697 455.859C477.632 456.915 498.153 450.409 498.358 450.341C499.616 449.861 553.039 429.518 565.894 424.012C565.894 424.012 577.486 418.242 591.052 411.546C591.066 411.54 591.077 411.532 591.091 411.526C591.694 411.228 592.302 410.93 592.91 410.629L597.2 408.513C600.302 406.986 603.186 405.569 605.893 404.24C605.927 404.152 605.975 404.066 606.063 404.015C631.681 388.803 632.914 376.644 632.968 375.724C632.849 375.332 632.61 374.804 632.309 374.199L625.59 374.316C625.587 374.316 625.516 374.316 625.513 374.316C624.07 374.316 622.737 373.597 621.948 372.39L601.697 341.498C601.262 340.836 601.228 340.027 601.606 339.331C601.975 338.647 602.686 338.221 603.558 338.221H603.563L607.2 338.386C599.083 327.621 592.157 318.727 592 318.528L585.614 311.398L571.093 306.011C570.94 306.133 570.764 306.216 570.571 306.216C570.468 306.216 570.363 306.196 570.264 306.159L508.801 282.539L500.807 315.393L530.953 345.065C531.086 345.226 544.189 361.31 530.865 374.523L485.908 414.766C485.786 414.843 483.539 416.223 481.15 416.223C480.439 416.223 479.718 416.101 479.033 415.786C478.127 415.371 477.419 414.653 476.882 413.693L474.354 424.083C474.311 424.404 473.146 431.969 459.831 431.972H459.828C455.575 431.972 450.481 431.182 444.688 429.626C424.576 424.228 413.323 420.809 408.945 419.437C408.689 422.845 407.63 429.558 404.834 442.952L416.718 446.241C437.608 453.107 462.481 455.836 462.697 455.859ZM441.711 475.478C442.276 475.165 446.637 472.337 455.555 456.642C447.606 455.484 434.063 453.172 421.159 449.398C412.065 465.678 397.723 477.971 381.282 484.635C407.002 480.867 439.392 475.838 441.711 475.478ZM276.074 440.402C290.441 466.249 317.552 484.976 345.15 488.111C347.735 488.406 350.324 488.543 352.906 488.548C356.767 488.122 363.736 487.171 372.131 485.967C391.606 480.654 409.022 467.424 419.485 448.901C418.394 448.569 417.309 448.231 416.235 447.876L403.618 444.386C403.184 444.267 402.916 443.827 403.01 443.387C404.749 435.092 406.925 423.507 407.331 418.921C406.993 418.813 406.811 418.753 406.8 418.747L406.235 418.56L406.215 417.964C406.209 417.805 406.022 412.372 405.61 404.501C396.766 440.709 375.54 459.067 342.44 459.064C342.346 459.064 342.244 459.064 342.15 459.064C327.351 459.016 313.453 452.707 301.964 440.811C285.361 423.626 275.983 396.502 276.88 368.259C278.315 323.049 297.529 301.959 313.39 292.228C330.584 281.678 347.704 281.854 347.858 281.846C362.798 282.329 377.151 289.223 388.595 301.34C384.555 289.033 379.325 276.377 372.705 265.933C355.841 255.926 333.956 256.505 314.112 267.5C296.989 276.987 283.293 291.555 273.863 309.887C273.835 310.001 273.781 310.103 273.716 310.191C268.292 320.811 264.283 332.675 261.885 345.564C255.828 378.075 261.135 413.528 276.074 440.402ZM72.8414 349.31C74.6596 348.171 87.3619 339.922 88.5693 331.639L56.3834 319.315C56.0793 319.198 55.8663 318.917 55.8351 318.594C55.8237 318.449 55.5652 315.581 55.1362 310.961C54.4259 315.433 53.4429 319.869 52.1218 324.205C49.7496 331.985 44.9426 343.693 36.7094 347.805L72.8414 349.31ZM8.89862 288.803C9.11737 303.802 9.3446 319.315 14.5636 333.663C16.7739 339.74 21.6661 346.553 28.7772 347.473L30.8654 347.561C42.0902 347.101 48.2751 330.952 50.4854 323.708C52.5424 316.961 53.8549 309.984 54.3861 302.97C52.1957 279.909 48.0591 238.541 45.7863 229.733C44.7607 224.974 42.4396 216.384 39.3003 209.012C36.4678 206.834 33.6949 206.138 31.0557 206.956C23.3309 209.347 18.4245 223.378 17.1063 227.62C14.9811 234.45 13.5038 241.614 12.66 249C15.6232 230.346 21.598 217.858 28.6465 217.858C38.7321 217.858 46.6301 243.417 46.6301 276.047C46.6301 308.678 38.7321 334.237 28.6465 334.237C18.5609 334.237 10.6629 308.678 10.6629 276.047C10.6629 270.033 10.9328 264.263 11.4328 258.845C11.3277 258.893 11.2111 258.922 11.0918 258.922C11.0804 258.922 11.0662 258.922 11.0549 258.922C10.5833 258.902 10.2169 258.504 10.2339 258.03C10.6771 247.259 12.4357 236.858 15.4698 227.115C16.8535 222.671 22.0269 207.961 30.5472 205.323C32.9876 204.565 35.4848 204.844 37.9963 206.141C35.1439 200.218 31.7432 195.657 28.0896 195.592C27.9078 195.592 12.6743 195.916 8.81616 226.192C8.79059 226.553 6.43262 262.392 8.81342 283.604C8.81342 283.612 8.80768 283.621 8.80768 283.629C8.80768 283.649 8.81903 283.663 8.81903 283.683C8.84741 285.381 8.87305 287.091 8.89862 288.803ZM22.0326 269.948C22.1207 268.968 22.223 268.008 22.3565 267.083L17.4983 260.057C17.2483 262.074 17.0353 264.138 16.8819 266.259L22.0326 269.948ZM15.2625 265.098C15.4585 262.644 15.7114 260.242 16.0352 257.942L14.0551 255.077C13.6914 257.93 13.4044 260.906 13.1913 263.968C13.4214 263.916 13.6686 263.953 13.8732 264.101L15.2625 265.098ZM15.1346 253.631L16.9614 256.275C17.9785 255.534 19.0467 254.878 20.1348 254.265C18.8166 249.537 19.4672 245.334 19.4984 245.149C19.5439 244.783 20.5524 237.039 23.7684 230.094C23.7713 230.088 23.7742 230.082 23.777 230.077C24.1776 229.21 24.6066 228.356 25.0781 227.532C25.314 227.12 25.8339 226.981 26.2458 227.214C26.2515 227.217 26.2543 227.223 26.2572 227.226L26.1719 224.471C26.1578 224 26.5299 223.605 27.0015 223.588C27.3936 223.611 27.8709 223.946 27.8851 224.417L28.1323 232.55C28.5357 232.507 28.9363 232.516 29.3369 232.575L29.584 224.42C29.5982 223.949 30.0414 223.614 30.4647 223.591C30.9363 223.605 31.3085 224 31.2944 224.474L30.334 255.985C30.334 256 30.334 256.011 30.334 256.025L30.2858 257.641C30.2715 258.104 29.8909 258.47 29.4306 258.47C29.4221 258.47 29.4107 258.47 29.405 258.47C29.121 258.461 28.8823 258.305 28.7346 258.084C28.5869 258.302 28.3482 258.461 28.0641 258.47C28.0556 258.47 28.0471 258.47 28.0386 258.47C27.5783 258.47 27.1975 258.104 27.1833 257.641L27.0471 253.126C26.9022 253.171 26.7629 253.231 26.618 253.276L26.8397 257.558C26.868 257.675 26.8765 257.794 26.8566 257.911L27.0044 260.779C27.03 261.253 26.6663 261.653 26.1947 261.679C26.1805 261.682 26.1635 261.682 26.1492 261.682C25.8282 261.682 25.5527 261.5 25.4049 261.233C25.3566 261.375 25.3112 261.517 25.2657 261.665L25.8907 262.957C26.0953 263.383 25.9191 263.894 25.4929 264.101C25.3736 264.161 25.2458 264.186 25.1208 264.186C24.8026 264.186 24.4986 264.01 24.348 263.703L21.1689 257.133C20.9843 256.729 20.8195 256.329 20.6689 255.926C19.7342 256.468 18.8137 257.042 17.933 257.683C17.9302 257.683 17.9302 257.683 17.9302 257.683L23.8906 266.305C23.919 266.339 23.9389 266.373 23.9645 266.41L24.402 267.046C24.6719 267.432 24.5724 267.966 24.1832 268.236C24.1037 268.292 24.0099 268.292 23.9191 268.318C23.8082 269.229 23.7145 270.158 23.6463 271.112L23.6946 271.146C23.6946 271.132 23.6946 271.115 23.6946 271.101C23.8878 269.141 24.7003 268.849 25.1663 268.849C25.4731 268.849 25.7657 268.982 25.993 269.227C26.601 269.874 26.7515 271.427 26.6379 272.592C26.4447 274.551 25.6321 274.843 25.1663 274.843C24.8622 274.843 24.5696 274.71 24.3395 274.466C23.9759 274.077 23.7912 273.361 23.7117 272.6C23.5753 272.688 23.4219 272.745 23.2628 272.745C23.0895 272.745 22.9161 272.694 22.7656 272.583L13.0721 265.643C12.8704 269.022 12.7623 272.501 12.7623 276.047C12.7623 290.294 14.4755 303.458 17.217 313.249C17.2199 313.229 17.2142 313.21 17.2199 313.19L23.5952 289.663C23.598 289.624 23.6179 289.587 23.6264 289.547L23.9617 288.315C24.0839 287.857 24.5526 287.593 25.0129 287.713C25.4703 287.837 25.7372 288.306 25.6151 288.763L25.3538 289.729C25.4362 289.981 25.5242 290.214 25.6094 290.45C25.7515 290.396 25.9021 290.362 26.0669 290.387C26.5328 290.47 26.8425 290.913 26.7601 291.379L22.9247 312.991C22.9161 313.059 22.9133 313.127 22.8878 313.19L21.7087 319.832C21.953 319.568 22.3422 319.471 22.6888 319.633C22.8195 319.693 22.9418 319.727 23.0668 319.775L23.5724 316.416C23.5724 316.362 23.5837 316.313 23.5952 316.262L26.7913 294.993C26.7941 294.971 26.7971 294.948 26.8027 294.922L27.084 293.051C27.155 292.585 27.584 292.262 28.0584 292.333C28.2573 292.364 28.4221 292.469 28.5499 292.605C28.6863 292.441 28.8795 292.321 29.1096 292.296C29.5783 292.233 30.0073 292.571 30.0641 293.04L31.4619 304.486C32.5643 314.167 30.6551 317.324 30.6182 317.378C29.7545 319.127 27.5527 321.777 24.5014 321.777C24.294 321.777 24.0696 321.728 23.8537 321.703C23.8281 321.706 23.8026 321.717 23.777 321.717C23.7344 321.717 23.6918 321.714 23.6492 321.709C23.6094 321.703 23.5753 321.68 23.5383 321.669C23.0327 321.578 22.5156 321.439 21.973 321.186C21.6945 321.058 21.5355 320.797 21.4985 320.513C21.3394 320.729 21.0923 320.871 20.8138 320.871C20.7656 320.871 20.7144 320.865 20.6633 320.857C20.1973 320.774 19.8876 320.331 19.97 319.866L21.1888 312.999C20.7286 312.085 20.2882 311.08 19.8649 309.995L18.8791 313.636C18.7769 314.016 18.4302 314.269 18.0552 314.269C17.9813 314.269 17.9046 314.257 17.8307 314.238C17.6631 314.192 17.5324 314.09 17.4273 313.971C20.3251 323.952 24.3139 330.236 28.6436 330.236C32.9307 330.236 36.8854 324.074 39.7747 314.26C39.6639 314.422 39.5049 314.556 39.3003 314.61C39.2264 314.629 39.1497 314.641 39.0759 314.641C38.698 314.641 38.3543 314.391 38.252 314.01L37.269 310.381C36.8428 311.446 36.3968 312.432 35.9337 313.323L37.1611 320.241C37.2435 320.706 36.9337 321.149 36.4678 321.232C36.4167 321.24 36.3656 321.246 36.3173 321.246C35.911 321.246 35.5502 320.956 35.4763 320.539L30.3681 291.753C30.2857 291.288 30.5955 290.845 31.0614 290.762C31.2319 290.734 31.3881 290.768 31.533 290.828C31.6182 290.606 31.7062 290.39 31.7886 290.152L31.5131 289.132C31.3881 288.675 31.658 288.207 32.1154 288.082C32.5756 287.957 33.0416 288.227 33.1666 288.684L38.7094 309.135C38.9083 307.783 39.0759 306.471 39.2236 305.19L32.5643 283.8C32.425 283.348 32.675 282.868 33.1268 282.729C33.5785 282.584 34.0587 282.843 34.1979 283.291L35.6609 287.994C36.1382 286.971 36.5246 285.912 36.7377 284.802C36.8286 284.336 37.2775 284.032 37.7405 284.123C38.2065 284.214 38.5077 284.66 38.4196 285.126C38.1099 286.733 37.5531 288.272 36.7576 289.697C36.6553 289.882 36.4877 289.99 36.303 290.061L38.8514 298.245C39.3856 295.402 39.8145 292.372 40.1299 289.186C40.1129 286.54 40.0049 284.998 40.0021 284.95C39.9367 283.399 39.4481 280.619 38.4167 279.767C38.1724 279.566 37.928 279.506 37.6894 279.532L33.9507 280.366C33.4876 280.466 33.0302 280.179 32.9279 279.719C32.8256 279.259 33.1154 278.799 33.5756 278.697L37.3741 277.85C38.1497 277.74 38.8912 277.941 39.5048 278.452C41.4538 280.065 41.6867 284.393 41.7066 284.856C41.7095 284.896 41.8203 286.509 41.8373 289.272C41.8373 289.274 41.8373 289.277 41.8373 289.28C41.8373 289.283 41.8373 289.286 41.8373 289.289C41.8572 292.906 41.7095 298.5 40.9424 305.188C40.9424 305.205 40.9396 305.222 40.9367 305.239C40.7719 306.659 40.5873 308.115 40.3629 309.623C40.3004 310.049 39.9338 310.353 39.5162 310.353C39.4736 310.353 39.4339 310.35 39.3913 310.344C39.2265 310.322 39.093 310.239 38.9736 310.14L39.8998 313.562C39.9197 313.633 39.9111 313.701 39.914 313.769C42.7437 303.927 44.5164 290.546 44.5164 276.05C44.5164 272.716 44.4171 269.448 44.2409 266.265L42.0163 267.858C41.9197 267.986 41.7863 268.077 41.6299 268.133L34.57 273.188C34.4194 273.296 34.2462 273.35 34.0729 273.35C33.8598 273.35 33.6608 273.25 33.5018 273.1C33.3966 273.665 33.2205 274.17 32.9392 274.474C32.712 274.716 32.4194 274.849 32.1154 274.849C31.6495 274.849 30.8369 274.557 30.6437 272.597C30.5273 271.433 30.6807 269.88 31.2886 269.232C31.5159 268.988 31.8086 268.855 32.1154 268.855C32.5814 268.855 33.3911 269.147 33.5871 271.106C33.6069 271.316 33.6098 271.547 33.6098 271.777L40.4509 266.878C40.3089 264.751 40.1043 262.676 39.8629 260.648L34.3484 268.622C34.1836 268.863 33.9166 268.991 33.6439 268.991C33.4763 268.991 33.3058 268.943 33.1581 268.837C32.7689 268.568 32.6722 268.037 32.9392 267.648L42.2123 254.236C42.4084 253.949 42.7493 253.824 43.0675 253.884C40.5333 235.199 34.9478 221.864 28.6407 221.864C22.4019 221.864 16.8676 234.915 14.2937 253.285C14.6147 253.228 14.9442 253.35 15.1346 253.631ZM24.223 259.495C24.5071 258.785 24.8111 258.152 25.1321 257.601L24.939 253.864C24.0043 254.228 23.0895 254.628 22.1946 255.079C22.3536 255.52 22.524 255.96 22.7258 256.397L24.223 259.495ZM24.8452 252.084L23.9219 234.273C21.9048 239.944 21.2087 245.294 21.1973 245.388C21.1888 245.433 20.6093 249.196 21.6832 253.418C22.7059 252.916 23.7684 252.481 24.8452 252.084ZM26.5725 251.476C26.7174 251.433 26.8623 251.442 27.0015 251.47L26.314 228.853C26.0071 229.412 25.7173 229.983 25.4446 230.562L26.53 251.487C26.5442 251.487 26.5555 251.482 26.5725 251.476ZM28.7402 252.353L29.2914 234.285C28.9249 234.211 28.5584 234.203 28.1891 234.254L28.7402 252.353ZM24.7742 292.827C24.7202 292.719 24.6691 292.597 24.6151 292.483L20.6519 307.104C20.9928 308.141 21.348 309.118 21.7202 310.024L24.7742 292.827ZM29.7687 304.685L28.7289 296.166C28.7004 296.166 28.6749 296.175 28.6465 296.175C28.5499 296.175 28.459 296.146 28.3624 296.138L25.3566 316.137C26.3339 317.154 27.3226 317.716 28.3056 317.824C28.7971 317.188 29.0812 316.64 29.1266 316.555C29.1409 316.523 30.7858 313.61 29.7687 304.685ZM25.0469 318.185L24.7686 320.039C25.5811 319.976 26.2913 319.653 26.8879 319.221C26.2629 318.991 25.6464 318.662 25.0469 318.185ZM43.3062 255.662L41.3373 258.51C41.6527 260.824 41.8913 263.243 42.076 265.705L43.4766 264.7C43.6755 264.555 43.917 264.516 44.1385 264.558C43.9369 261.497 43.6584 258.521 43.3062 255.662ZM32.5131 292.824C32.4591 292.929 32.408 293.045 32.354 293.145L35.4138 310.396C35.7888 309.507 36.1525 308.55 36.4962 307.527L32.5131 292.824ZM28.6465 331.945C24.4503 331.945 20.6462 327.49 17.6547 319.968C20.632 328.331 24.4645 333.379 28.6465 333.379C32.8285 333.379 36.6609 328.331 39.6384 319.968C36.6468 327.487 32.8398 331.945 28.6465 331.945ZM28.6465 220.143C32.8427 220.143 36.6468 224.599 39.6384 232.121C36.6609 223.758 32.8285 218.709 28.6465 218.709C24.4645 218.709 20.6292 223.758 17.6547 232.121C20.6434 224.602 24.4503 220.143 28.6465 220.143ZM2.56598 270.891C3.03192 274.156 5.17682 277.99 6.78485 280.494C4.94104 258.927 7.08319 226.413 7.11163 226.019C11.1885 194.036 27.4192 193.846 28.1124 193.874C39.7322 194.084 47.15 227.927 47.4512 229.335C50.5479 241.333 56.8322 310.549 57.4942 317.906L259.397 395.212C256.951 378.78 257.141 361.642 260.192 345.252C262.627 332.158 266.707 320.107 272.227 309.319C272.758 306.869 273.269 304.398 273.778 301.919C276.329 289.513 278.966 276.683 284.878 265.277C291.375 252.737 299.998 243 309.816 237.122C332.8 223.352 352.915 239.044 364.213 251.771C364.392 251.865 364.526 252.024 364.603 252.209C367.614 255.642 369.964 258.819 371.543 261.111L384.921 255.923C375.049 236.639 357.923 220.882 341.065 215.665C329.345 212.042 318.016 213.198 307.384 219.113C285.841 231.093 271.775 257.993 265.582 299.06C265.434 300.042 265.283 301.101 265.192 302.175C265.173 302.41 264.971 302.587 264.729 302.564C264.494 302.544 264.32 302.337 264.34 302.101C264.437 301.002 264.587 299.929 264.738 298.932C270.974 257.587 285.182 230.48 306.97 218.363C317.811 212.335 329.368 211.153 341.32 214.848C358.42 220.138 375.776 236.111 385.74 255.639L489.815 235.071L430.923 180.94C425.562 176.01 425.574 169.544 425.582 163.291C425.585 161.389 425.574 159.432 425.42 157.555L379.134 131.484C377.001 131.186 357.443 128.168 348.568 116.423C348.272 115.991 319.03 73.2493 314.18 64.9206L313.754 64.2335C306.075 51.7817 298.131 38.9068 289.367 26.969C283.162 18.5154 276.934 12.3818 270.86 8.73284C263.681 4.42228 254.627 2.2386 243.942 2.2386C243.905 2.2386 243.868 2.2386 243.831 2.2386C215.094 2.27836 186.141 10.0249 162.311 24.0527C156.16 27.6732 150.06 31.6686 144.162 35.5305C143.33 36.0757 142.492 36.6067 141.659 37.1519C151.967 31.9071 163.541 26.1228 163.768 26.0092L182.712 18.4898C185.951 17.2773 203.809 13.1314 204.616 12.9469C222.523 9.91413 241.189 8.33245 256.374 17.2233C262.945 21.071 268.812 26.8752 274.841 35.485L275.753 36.7941C287.591 53.8944 297.35 72.5138 304.762 92.13C308.546 102.148 311.629 111.204 314.189 119.836C314.393 120.606 319.132 138.743 311.248 145.788L299.367 159.071C299.202 159.256 298.969 159.358 298.728 159.358C298.66 159.358 298.591 159.35 298.523 159.333L280.608 154.906L280.599 154.903C280.417 154.852 280.179 154.926 279.892 155.107C272.897 159.588 260.246 209.773 259.101 215.779C254.635 239.197 253.206 263.425 251.825 286.852L251.78 287.593C251.379 294.371 250.672 301.326 249.984 308.05C248.493 322.683 246.95 337.815 248.43 352.431C250.073 368.651 244.092 372.97 243.837 373.149C243.692 373.248 243.521 373.299 243.351 373.299C243.243 373.299 243.135 373.279 243.033 373.237C213.827 361.532 183.956 350.145 155.072 339.133C132.869 330.671 109.911 321.919 87.4072 313.082C86.5606 312.747 85.5891 312.397 84.5378 312.017C77.9041 309.615 68.8213 306.321 66.9349 299.818L65.7104 295.595C52.298 249.429 37.0956 197.103 48.2239 150.155C49.8774 143.184 52.1559 136.161 54.1702 129.968C54.7015 128.33 54.9572 125.851 55.2072 123.457C55.5424 120.22 55.8578 117.161 56.8237 115.344C57.0197 114.972 57.2413 114.606 57.4743 114.242L39.5418 107.021H39.1526L37.7576 110.681C36.6837 113.688 31.7887 121.6 28.4761 124.709C25.314 127.679 16.7285 137.042 16.6943 137.073C9.4696 146.637 7.01782 165.458 6.96954 165.767C5.44672 171.285 2.96368 205.227 3.17395 217.653C3.3728 229.395 3.57452 250.258 3.57733 250.468C3.57733 250.599 3.54895 250.729 3.49213 250.848C0.869873 256.289 1.70801 264.89 2.56598 270.891Z" fill="url(#paint21_linear)"/>
<path d="M40.2799 126.748C40.314 126.692 40.3424 126.629 40.3623 126.564L43.7687 115.89C44.1153 114.805 45.1125 114.075 46.2517 114.075C46.729 114.075 47.2006 114.209 47.6097 114.461L51.6497 116.938C52.4963 117.457 52.9679 118.391 52.8827 119.38L51.9424 130.321C51.9026 130.789 51.7349 131.241 51.4593 131.624L37.7713 150.547C37.2827 151.223 36.4957 151.626 35.6604 151.626C35.1235 151.626 34.6064 151.465 34.1661 151.155L30.1432 148.333C29.0295 147.552 28.7056 146.03 29.4045 144.862L40.2799 126.748ZM31.129 146.93L35.1519 149.75C35.544 150.025 36.1093 149.926 36.3878 149.542L50.0758 130.619C50.1695 130.488 50.2264 130.335 50.2406 130.173L51.1809 119.229C51.2094 118.891 51.0474 118.57 50.7576 118.391L46.7148 115.915C46.5728 115.827 46.4165 115.782 46.2517 115.782C45.9279 115.782 45.5358 115.975 45.3995 116.404L41.9931 127.084C41.9306 127.277 41.8453 127.461 41.7459 127.629L30.8733 145.737C30.6375 146.14 30.7483 146.663 31.129 146.93Z" fill="url(#paint22_linear)"/>
<path d="M77.6317 141.153C76.0379 145.475 71.8559 145.941 70.1314 145.941C69.4211 145.941 68.9637 145.87 68.9211 145.864C68.7137 146.131 68.5006 146.393 68.2961 146.665C67.4694 147.767 66.617 148.906 65.4409 149.723C65.0999 149.962 64.0375 150.624 62.867 150.624C62.6312 150.624 62.3868 150.595 62.1453 150.533C60.5316 150.107 60.5288 148.238 60.526 147.085C60.5231 146.336 60.4947 145.586 60.4663 144.834C60.4606 144.697 60.4578 144.561 60.4521 144.422C60.4464 144.419 60.4378 144.422 60.4321 144.416C58.6906 143.434 57.5855 142.11 57.148 140.486C56.4122 137.746 57.8923 135.176 57.9065 135.176C59.256 131.692 62.722 130.76 64.5602 130.76C64.9551 130.76 66.1596 130.76 66.3841 131.655C66.5176 132.191 66.2306 132.637 65.9778 133.029C65.9238 133.112 65.8528 133.222 65.796 133.322C65.8045 133.325 65.813 133.327 65.8216 133.33C66.1256 133.432 66.6852 133.52 67.3756 133.597C67.762 132.845 67.8756 131.956 67.9779 131.019C68.0972 129.96 68.2194 128.861 68.7791 127.901C69.4467 126.756 70.4098 126.069 71.3587 126.066C71.3616 126.066 71.3644 126.066 71.3644 126.066C71.9298 126.066 72.7367 126.305 73.41 127.438C74.4555 129.193 74.3418 131.198 74.231 133.134C74.214 133.452 74.2083 133.759 74.1941 134.068C77.4954 134.903 77.9328 138.887 77.6743 140.955C77.6686 141.028 77.6544 141.094 77.6317 141.153ZM61.3811 147.125C61.3839 148.397 61.4607 149.471 62.3641 149.709C63.2192 149.936 64.2618 149.502 64.9522 149.022C66.0148 148.287 66.8273 147.202 67.6114 146.154C67.7762 145.932 67.9495 145.722 68.1171 145.507C66.7421 144.797 63.259 142.982 61.7277 141.991C61.6766 142.423 61.6623 143.047 61.7049 143.615C61.7276 143.931 61.5771 144.232 61.3101 144.402H61.3072L61.3214 144.805C61.3498 145.566 61.3811 146.327 61.3811 147.125ZM72.6769 127.884C72.3019 127.251 71.8616 126.93 71.3701 126.93H71.3644C70.7337 126.932 70.0263 127.472 69.5206 128.341C69.0518 129.145 68.9467 130.104 68.833 131.121C68.7364 131.993 68.62 132.879 68.2791 133.694C69.8331 133.827 71.765 133.915 73.3475 133.963C73.3588 133.674 73.3645 133.39 73.3815 133.097C73.481 131.286 73.5889 129.414 72.6769 127.884ZM73.7225 135.676C73.0349 135.662 66.9665 135.522 65.2818 134.96C64.6567 134.75 64.2534 134.406 64.0886 133.935C63.8982 133.393 64.0858 132.887 64.3102 132.484C62.8641 132.563 60.4606 133.333 59.4464 135.923C59.4321 135.943 58.2503 138.01 58.8071 140.057C59.006 140.787 59.4065 141.437 60.0031 142.008C60.0685 141.355 60.2248 140.73 60.56 140.37C61.0061 139.887 61.7191 139.847 62.3186 140.316C63.2334 141.026 67.5432 143.286 69.299 144.186C69.4552 144.203 69.7507 144.229 70.1314 144.229C71.8104 144.229 74.785 143.763 75.9867 140.659C76.0492 140.009 76.2907 136.144 73.7225 135.676Z" fill="url(#paint23_linear)"/>
<path d="M28.6467 282.401C27.1808 282.401 26.4165 279.204 26.4165 276.043C26.4165 272.883 27.1836 269.686 28.6467 269.686C30.1127 269.686 30.877 272.883 30.877 276.043C30.877 279.204 30.1099 282.401 28.6467 282.401ZM28.6467 270.54C28.1808 270.54 27.2717 272.483 27.2717 276.043C27.2717 279.604 28.1808 281.547 28.6467 281.547C29.1127 281.547 30.0218 279.604 30.0218 276.043C30.019 272.483 29.1127 270.54 28.6467 270.54Z" fill="url(#paint24_linear)"/>
<path d="M34.067 239.845C34.5414 239.598 34.996 239.644 35.3028 239.774C35.5301 239.854 36.0131 240.087 36.6665 240.691C36.7716 240.757 36.8597 240.842 36.9307 240.95C38.0898 242.125 39.7007 244.44 41.4025 248.952C41.4053 248.963 41.411 248.972 41.4138 248.983C41.7689 249.926 42.127 250.948 42.4878 252.095C42.6298 252.544 42.3769 253.027 41.928 253.166C41.4763 253.316 40.9962 253.058 40.8542 252.607C40.7007 252.121 40.5502 251.669 40.3996 251.224L40.016 251.882C39.9933 251.931 39.9678 251.976 39.9365 252.022L33.0158 263.971C32.8567 264.246 32.5698 264.397 32.2743 264.397C32.1294 264.397 31.9817 264.36 31.8453 264.28C31.4362 264.042 31.297 263.519 31.5328 263.11L32.1408 262.063C32.084 261.875 32.0299 261.691 31.9731 261.509C31.8254 261.77 31.5499 261.949 31.2345 261.949C31.2118 261.949 31.189 261.949 31.1691 261.946C30.6975 261.909 30.3452 261.497 30.3822 261.026L30.6009 258.161C30.5867 258.047 30.5952 257.934 30.6265 257.826L31.2969 249.066C31.7572 243.585 32.6635 240.569 34.067 239.845ZM39.5047 248.79C39.5388 248.921 39.5672 249.063 39.5985 249.196L39.6382 249.128C39.5956 249.012 39.5501 248.904 39.5047 248.79ZM32.3368 257.914C32.6778 258.544 32.9959 259.271 33.2914 260.083L38.3456 251.357C37.5558 247.742 36.6069 244.582 35.5188 241.955C35.1267 241.592 34.8681 241.447 34.7914 241.41C34.5414 241.637 33.5272 242.929 32.9988 249.208L32.3368 257.914Z" fill="url(#paint25_linear)"/>
<path d="M24.1493 284.899C24.1493 284.901 24.1464 284.904 24.1464 284.907L21.8082 291.339C20.811 293.957 19.8366 295.133 18.6576 295.133C18.632 295.133 18.6093 295.133 18.5837 295.133C17.1149 295.073 16.4757 293.119 16.3762 292.779C16.274 292.489 13.842 285.529 13.0181 270.061C12.9926 269.59 13.3562 269.187 13.8278 269.161C14.2938 269.127 14.7001 269.499 14.7285 269.971C14.8052 271.436 14.9046 272.802 15.0069 274.116L15.6006 274.403C15.6262 274.4 15.6518 274.386 15.6774 274.383C15.9728 274.386 16.22 274.545 16.3705 274.772L22.7458 277.836C22.9759 277.836 23.1861 277.944 23.3395 278.12L23.8424 278.362C24.2686 278.566 24.4476 279.077 24.2431 279.503C24.1237 279.747 23.8993 279.881 23.6521 279.938C23.6777 280.324 23.6975 280.721 23.7316 281.096C23.7685 281.5 23.831 281.88 23.8765 282.278C23.9731 282.278 24.0726 282.286 24.1692 282.32C24.6124 282.482 24.8425 282.973 24.6806 283.416L24.1493 284.899ZM18.0041 292.25C18.149 292.753 18.4957 293.355 18.632 293.42C18.6377 293.417 19.2457 293.244 20.2003 290.74L22.4418 284.581C22.2771 283.501 22.1321 282.386 22.0298 281.25C21.973 280.622 21.9361 279.975 21.8963 279.324L16.5438 276.752C16.5637 280.954 16.7569 285.097 17.1462 289.07C17.1462 289.073 17.1462 289.076 17.1462 289.081C17.6291 291.168 17.9899 292.205 18.0041 292.25Z" fill="url(#paint26_linear)"/>
<path d="M28.6467 266.543C27.2489 266.543 27.1381 264.249 27.1381 263.545C27.1381 262.84 27.2461 260.549 28.6467 260.549C30.0473 260.549 30.1553 262.84 30.1553 263.545C30.1524 264.249 30.0445 266.543 28.6467 266.543Z" fill="url(#paint27_linear)"/>
<path d="M30.7889 282.264C31.2548 282.264 31.8685 282.533 32.1526 283.817C32.4055 284.956 32.323 286.463 31.9622 287.324C31.6213 288.136 31.0815 288.258 30.7889 288.258C30.323 288.258 29.7093 287.988 29.4252 286.705C29.1752 285.566 29.2576 284.058 29.6156 283.201C29.9565 282.386 30.4963 282.264 30.7889 282.264Z" fill="url(#paint28_linear)"/>
<path d="M27.6752 283.2C28.0331 284.06 28.1156 285.568 27.8656 286.707C27.5815 287.99 26.9678 288.26 26.5019 288.26C26.2092 288.26 25.6695 288.138 25.3285 287.326C24.9706 286.465 24.8881 284.958 25.1381 283.819C25.4222 282.535 26.0359 282.266 26.5019 282.266C26.7945 282.263 27.3343 282.385 27.6752 283.2Z" fill="url(#paint29_linear)"/>
<defs>
<linearGradient id="paint0_linear" x1="547.216" y1="217.988" x2="547.216" y2="241.921" gradientUnits="userSpaceOnUse">
<stop/>
<stop offset="1" stop-color="#0047FF"/>
</linearGradient>
<linearGradient id="paint1_linear" x1="771.003" y1="272.569" x2="771.003" y2="317.776" gradientUnits="userSpaceOnUse">
<stop/>
<stop offset="1" stop-color="#0047FF"/>
</linearGradient>
<linearGradient id="paint2_linear" x1="806.882" y1="263.874" x2="806.882" y2="307.797" gradientUnits="userSpaceOnUse">
<stop/>
<stop offset="1" stop-color="#0047FF"/>
</linearGradient>
<linearGradient id="paint3_linear" x1="344.991" y1="360.969" x2="344.991" y2="379.938" gradientUnits="userSpaceOnUse">
<stop/>
<stop offset="1" stop-color="#0047FF"/>
</linearGradient>
<linearGradient id="paint4_linear" x1="347.9" y1="290.62" x2="347.9" y2="343.264" gradientUnits="userSpaceOnUse">
<stop/>
<stop offset="1" stop-color="#0047FF"/>
</linearGradient>
<linearGradient id="paint5_linear" x1="306.513" y1="334.357" x2="306.513" y2="364.293" gradientUnits="userSpaceOnUse">
<stop/>
<stop offset="1" stop-color="#0047FF"/>
</linearGradient>
<linearGradient id="paint6_linear" x1="325.1" y1="295.826" x2="325.1" y2="351.45" gradientUnits="userSpaceOnUse">
<stop/>
<stop offset="1" stop-color="#0047FF"/>
</linearGradient>
<linearGradient id="paint7_linear" x1="376.05" y1="316.126" x2="376.05" y2="352.679" gradientUnits="userSpaceOnUse">
<stop/>
<stop offset="1" stop-color="#0047FF"/>
</linearGradient>
<linearGradient id="paint8_linear" x1="377.416" y1="374.737" x2="377.416" y2="423.726" gradientUnits="userSpaceOnUse">
<stop/>
<stop offset="1" stop-color="#0047FF"/>
</linearGradient>
<linearGradient id="paint9_linear" x1="335.372" y1="395.671" x2="335.372" y2="439.34" gradientUnits="userSpaceOnUse">
<stop/>
<stop offset="1" stop-color="#0047FF"/>
</linearGradient>
<linearGradient id="paint10_linear" x1="307.299" y1="358.558" x2="307.299" y2="397.899" gradientUnits="userSpaceOnUse">
<stop/>
<stop offset="1" stop-color="#0047FF"/>
</linearGradient>
<linearGradient id="paint11_linear" x1="368.735" y1="389.691" x2="368.735" y2="439.951" gradientUnits="userSpaceOnUse">
<stop/>
<stop offset="1" stop-color="#0047FF"/>
</linearGradient>
<linearGradient id="paint12_linear" x1="318.043" y1="388.187" x2="318.043" y2="437.458" gradientUnits="userSpaceOnUse">
<stop/>
<stop offset="1" stop-color="#0047FF"/>
</linearGradient>
<linearGradient id="paint13_linear" x1="345.606" y1="347.252" x2="345.606" y2="355.507" gradientUnits="userSpaceOnUse">
<stop/>
<stop offset="1" stop-color="#0047FF"/>
</linearGradient>
<linearGradient id="paint14_linear" x1="358.576" y1="360.353" x2="358.576" y2="368.594" gradientUnits="userSpaceOnUse">
<stop/>
<stop offset="1" stop-color="#0047FF"/>
</linearGradient>
<linearGradient id="paint15_linear" x1="352.807" y1="380.705" x2="352.807" y2="388.918" gradientUnits="userSpaceOnUse">
<stop/>
<stop offset="1" stop-color="#0047FF"/>
</linearGradient>
<linearGradient id="paint16_linear" x1="336.271" y1="380.186" x2="336.271" y2="388.383" gradientUnits="userSpaceOnUse">
<stop/>
<stop offset="1" stop-color="#0047FF"/>
</linearGradient>
<linearGradient id="paint17_linear" x1="331.821" y1="359.491" x2="331.821" y2="367.734" gradientUnits="userSpaceOnUse">
<stop/>
<stop offset="1" stop-color="#0047FF"/>
</linearGradient>
<linearGradient id="paint18_linear" x1="301.147" y1="105.919" x2="301.147" y2="111.254" gradientUnits="userSpaceOnUse">
<stop/>
<stop offset="1" stop-color="#0047FF"/>
</linearGradient>
<linearGradient id="paint19_linear" x1="301.149" y1="115.088" x2="301.149" y2="120.804" gradientUnits="userSpaceOnUse">
<stop/>
<stop offset="1" stop-color="#0047FF"/>
</linearGradient>
<linearGradient id="paint20_linear" x1="146.457" y1="146.264" x2="146.457" y2="175.533" gradientUnits="userSpaceOnUse">
<stop/>
<stop offset="1" stop-color="#0047FF"/>
</linearGradient>
<linearGradient id="paint21_linear" x1="459" y1="0.257812" x2="459" y2="490.258" gradientUnits="userSpaceOnUse">
<stop/>
<stop offset="1" stop-color="#0047FF"/>
</linearGradient>
<linearGradient id="paint22_linear" x1="40.9645" y1="114.075" x2="40.9645" y2="151.626" gradientUnits="userSpaceOnUse">
<stop/>
<stop offset="1" stop-color="#0047FF"/>
</linearGradient>
<linearGradient id="paint23_linear" x1="67.3396" y1="126.066" x2="67.3396" y2="150.624" gradientUnits="userSpaceOnUse">
<stop/>
<stop offset="1" stop-color="#0047FF"/>
</linearGradient>
<linearGradient id="paint24_linear" x1="28.6467" y1="269.686" x2="28.6467" y2="282.401" gradientUnits="userSpaceOnUse">
<stop/>
<stop offset="1" stop-color="#0047FF"/>
</linearGradient>
<linearGradient id="paint25_linear" x1="36.4534" y1="239.668" x2="36.4534" y2="264.397" gradientUnits="userSpaceOnUse">
<stop/>
<stop offset="1" stop-color="#0047FF"/>
</linearGradient>
<linearGradient id="paint26_linear" x1="18.8746" y1="269.159" x2="18.8746" y2="295.133" gradientUnits="userSpaceOnUse">
<stop/>
<stop offset="1" stop-color="#0047FF"/>
</linearGradient>
<linearGradient id="paint27_linear" x1="28.6467" y1="260.549" x2="28.6467" y2="266.543" gradientUnits="userSpaceOnUse">
<stop/>
<stop offset="1" stop-color="#0047FF"/>
</linearGradient>
<linearGradient id="paint28_linear" x1="30.7899" y1="282.264" x2="30.7899" y2="288.258" gradientUnits="userSpaceOnUse">
<stop/>
<stop offset="1" stop-color="#0047FF"/>
</linearGradient>
<linearGradient id="paint29_linear" x1="26.5019" y1="282.266" x2="26.5019" y2="288.26" gradientUnits="userSpaceOnUse">
<stop/>
<stop offset="1" stop-color="#0047FF"/>
</linearGradient>
</defs>
</svg>
