<svg width="731" height="391" viewBox="0 0 731 391" fill="none" xmlns="http://www.w3.org/2000/svg">
<path d="M435.772 193.008C432.048 193.008 429.019 188.734 429.019 183.48C429.019 178.225 432.048 173.952 435.772 173.952C439.495 173.952 442.526 178.225 442.526 183.48C442.526 188.732 439.497 193.008 435.772 193.008ZM435.772 174.63C432.424 174.63 429.7 178.601 429.7 183.478C429.7 188.357 432.424 192.325 435.772 192.325C439.12 192.325 441.845 188.355 441.845 183.478C441.845 178.601 439.12 174.63 435.772 174.63Z" fill="url(#paint0_linear)"/>
<path d="M712.949 230.435L702.105 236.597C690.358 244.924 648.862 252.218 647.045 252.53C638.511 253.292 622.257 253.405 613.327 253.405C609.87 253.405 607.644 253.387 607.615 253.387C595.556 252.751 528.103 246.518 527.422 246.454C527.261 246.441 527.109 246.369 526.996 246.253L513.528 232.47C513.331 232.269 513.279 231.968 513.397 231.711C513.514 231.455 513.77 231.288 514.057 231.315L607.699 236.857C607.699 236.857 610.689 237.071 614.001 237.284C617.385 237.501 627.591 243.725 628.747 244.438C633.462 247.381 640.316 247.82 643.98 247.82C645.392 247.82 646.276 247.755 646.306 247.752C653.628 247.345 660.937 239.726 660.95 239.726C660.959 239.712 660.969 239.701 660.978 239.69C660.98 239.687 660.98 239.685 660.982 239.683C664.733 233.999 672.17 232.242 672.44 232.183C684.886 228.387 713.368 217.564 713.655 217.453C713.877 217.371 714.125 217.408 714.313 217.552C714.501 217.697 714.6 217.928 714.573 218.165L713.291 229.918C713.266 230.135 713.139 230.329 712.949 230.435ZM527.795 245.123C530.136 245.34 548.249 247.008 566.823 248.659L564.346 242.767C564 242.719 563.739 242.425 563.755 242.07C563.762 241.932 563.821 241.808 563.898 241.7L561.283 235.475L515.733 232.78L527.795 245.123ZM613.91 238.645C610.599 238.43 607.606 238.215 607.608 238.215L562.041 235.518L564.522 241.421L625.712 244.212C621.895 241.987 615.987 238.778 613.91 238.645ZM643.978 249.183C640.207 249.183 633.177 248.722 628.186 245.688L565.103 242.812L567.59 248.727C584.743 250.248 602.109 251.736 607.653 252.028C607.653 252.028 609.875 252.046 613.324 252.046C622.23 252.046 638.438 251.933 646.864 251.184C647.247 251.119 681.067 245.172 696.594 238.082L697.522 230.476C692.963 232.473 678.231 238.505 661.846 240.743C660.679 241.933 653.719 248.709 646.392 249.116C646.355 249.116 645.444 249.183 643.978 249.183ZM663.081 239.188C679.785 236.669 694.468 230.359 697.714 228.898L698.232 224.659C689.46 227.876 679.099 231.577 672.79 233.501C672.722 233.517 666.8 234.93 663.081 239.188ZM698.949 224.394L698.44 228.577C698.77 228.448 699.146 228.588 699.3 228.911C699.462 229.251 699.318 229.658 698.976 229.818C698.956 229.827 698.7 229.949 698.248 230.15L697.323 237.745C698.908 236.99 700.281 236.221 701.374 235.446L711.974 229.42L713.098 219.119C710.886 219.96 705.396 222.027 698.949 224.394Z" fill="url(#paint1_linear)"/>
<path d="M644.031 245.459C643.393 245.459 642.742 245.419 642.097 245.337C632.225 244.091 624.591 234.555 625.423 224.511C626.283 214.169 633.757 210.486 640.466 210.486C648.63 210.486 658.081 215.965 659.522 226.119C660.23 231.102 658.678 236.347 655.376 240.15C652.403 243.574 648.374 245.459 644.031 245.459ZM658.174 226.309C656.841 216.917 648.056 211.847 640.468 211.847C634.365 211.847 627.566 215.203 626.783 224.622C626.021 233.802 633.257 242.848 642.269 243.985C646.857 244.566 651.238 242.839 654.349 239.255C657.396 235.746 658.825 230.908 658.174 226.309Z" fill="url(#paint2_linear)"/>
<path d="M274.849 287.796L275 287.798C276.586 287.85 278.047 288.696 279.11 290.177C280.155 291.633 280.696 293.534 280.63 295.535C280.497 299.664 277.875 302.899 274.663 302.899L274.511 302.897C272.926 302.845 271.467 301.999 270.401 300.518C269.356 299.062 268.816 297.159 268.881 295.158C269.015 291.029 271.636 287.796 274.849 287.796ZM270.955 300.121C271.894 301.43 273.165 302.174 274.534 302.216L274.663 302.219C277.459 302.219 279.83 299.212 279.95 295.515C280.008 293.663 279.515 291.909 278.556 290.575C277.617 289.268 276.346 288.524 274.977 288.481L274.849 288.479C272.053 288.479 269.682 291.486 269.562 295.18C269.503 297.032 269.999 298.787 270.955 300.121Z" fill="url(#paint3_linear)"/>
<path d="M278.806 271.182C278.803 271.191 278.799 271.198 278.796 271.207L278.591 273.093C278.552 273.441 278.256 273.699 277.914 273.699C277.889 273.699 277.865 273.697 277.84 273.694C277.464 273.654 277.195 273.317 277.236 272.941L277.383 271.598C276.772 271.494 276.154 271.42 275.53 271.397C275.102 271.381 274.677 271.395 274.254 271.422L274.318 272.849C274.333 273.226 274.044 273.543 273.666 273.559C273.655 273.561 273.646 273.561 273.634 273.561C273.272 273.561 272.969 273.276 272.954 272.91L272.863 270.886C272.863 270.879 272.859 270.875 272.856 270.866C272.854 270.852 272.861 270.839 272.861 270.825L271.153 232.495C271.137 232.117 271.427 231.801 271.802 231.785C272.166 231.751 272.497 232.058 272.512 232.434L272.978 242.879C274.128 242.789 275.29 242.748 276.451 242.784C277.799 242.83 279.152 242.977 280.489 243.191L281.633 232.728C281.674 232.355 282.022 232.083 282.384 232.124C282.76 232.165 283.029 232.502 282.988 232.875L278.803 271.101C278.806 271.133 278.812 271.158 278.806 271.182ZM276.408 244.15C275.286 244.112 274.157 244.155 273.042 244.243L274.193 270.09C274.652 270.063 275.114 270.027 275.573 270.038C276.231 270.061 276.883 270.14 277.53 270.246L280.341 244.553C279.041 244.336 277.722 244.191 276.408 244.15Z" fill="url(#paint4_linear)"/>
<path d="M258.813 283.004C258.904 283.042 258.981 283.099 259.044 283.164L260.279 283.926C260.6 284.125 260.7 284.544 260.501 284.865C260.372 285.073 260.148 285.188 259.92 285.188C259.797 285.188 259.675 285.154 259.562 285.086L258.902 284.679C258.399 286.006 257.988 287.386 257.682 288.81L258.635 289.113C258.994 289.228 259.191 289.61 259.078 289.968C258.985 290.257 258.716 290.442 258.429 290.442C258.361 290.442 258.291 290.431 258.221 290.411L228.11 280.818C227.75 280.702 227.554 280.32 227.667 279.963C227.782 279.603 228.167 279.409 228.524 279.52L235.763 281.826C236.482 278.514 237.455 275.287 238.66 272.208L231.619 267.869C231.297 267.67 231.198 267.252 231.395 266.931C231.594 266.609 232.012 266.512 232.333 266.709L239.617 271.197C239.672 271.204 239.724 271.206 239.776 271.226C239.905 271.278 239.997 271.371 240.07 271.477L258.766 282.997C258.784 283.002 258.8 282.999 258.813 283.004ZM237.068 282.242L256.384 288.396C256.719 286.863 257.162 285.376 257.719 283.949L239.846 272.936C238.692 275.918 237.758 279.038 237.068 282.242Z" fill="url(#paint5_linear)"/>
<path d="M268.35 237.186C267.065 238.013 265.889 238.882 264.772 239.761L265.285 244.993C265.31 245.032 265.342 245.066 265.358 245.111C265.416 245.274 265.403 245.441 265.344 245.59L267.993 272.521L267.995 272.523C268.099 272.699 268.108 272.9 268.047 273.081L268.386 276.529C268.423 276.902 268.149 277.237 267.776 277.273C267.753 277.276 267.73 277.275 267.708 277.275C267.362 277.275 267.065 277.011 267.031 276.66L266.778 274.097C265.453 275.008 264.22 276.131 263.095 277.447L264.898 279.023C265.181 279.27 265.211 279.702 264.964 279.984C264.83 280.138 264.64 280.217 264.45 280.217C264.292 280.217 264.131 280.161 264.003 280.05L254.506 271.754C246.562 264.46 249.844 256.89 249.855 256.868C250.012 256.425 253.443 247.021 263.645 238.902C263.677 238.877 263.704 238.848 263.74 238.827C264.944 237.876 266.217 236.935 267.613 236.037C267.93 235.832 268.35 235.924 268.556 236.241C268.757 236.562 268.665 236.982 268.35 237.186ZM255.413 270.744L262.068 276.557C263.442 274.951 264.971 273.613 266.627 272.57L264.048 246.338C260.207 247.853 256.565 250.114 253.21 253.083C251.76 255.618 251.143 257.316 251.118 257.379C251.088 257.444 248.2 264.119 255.413 270.744ZM255.506 249.504C258.171 247.575 260.985 246.045 263.91 244.93L263.503 240.79C260.024 243.732 257.413 246.802 255.506 249.504Z" fill="url(#paint6_linear)"/>
<path d="M286.392 281.197C286.166 281.197 285.947 281.086 285.818 280.88C285.617 280.563 285.709 280.141 286.026 279.939L287.91 278.739C286.906 277.312 285.775 276.066 284.535 275.022L283.954 277.588C283.882 277.905 283.601 278.119 283.289 278.119C283.239 278.119 283.189 278.115 283.137 278.101C282.771 278.02 282.54 277.654 282.624 277.287L283.397 273.875C283.37 273.71 283.409 273.539 283.508 273.389L285.904 262.835C287.13 257.845 289.08 254.533 291.699 252.989C293.875 251.704 295.703 252.175 295.692 252.181C295.843 252.202 297.266 252.416 299.494 253.334C299.596 253.35 299.691 253.389 299.78 253.452C303.017 254.833 307.835 257.696 312.983 263.464C313.004 263.489 313.031 263.504 313.049 263.531C313.051 263.536 313.051 263.541 313.053 263.545C314.103 264.725 315.164 266 316.232 267.436C316.456 267.739 316.392 268.166 316.091 268.388C315.788 268.612 315.361 268.549 315.139 268.248C314.2 266.982 313.264 265.856 312.334 264.795L308.837 267.025C308.778 267.093 308.706 267.151 308.62 267.194C308.593 267.208 308.565 267.203 308.538 267.212L286.761 281.09C286.646 281.163 286.519 281.197 286.392 281.197ZM295.43 253.513C295.373 253.499 294.025 253.176 292.346 254.187C290.788 255.125 288.632 257.443 287.229 263.145L284.872 273.539C286.431 274.755 287.836 276.254 289.062 278.004L307.396 266.322C305.111 261.876 302.324 257.956 299.087 254.671C296.877 253.739 295.495 253.524 295.43 253.513ZM302.53 256.437C304.808 259.163 306.815 262.238 308.547 265.591L311.42 263.76C308.188 260.267 305.114 257.967 302.53 256.437Z" fill="url(#paint7_linear)"/>
<path d="M309.441 331.93C308.871 333.678 308.227 335.478 307.457 337.341C307.349 337.606 307.095 337.764 306.826 337.764C306.74 337.764 306.652 337.748 306.566 337.712C306.218 337.569 306.053 337.169 306.195 336.823C306.887 335.143 307.471 333.518 307.998 331.926L288.447 305.334C288.223 305.031 288.288 304.606 288.592 304.383C288.895 304.161 289.322 304.224 289.544 304.53L290.347 305.622C290.998 304.052 291.51 302.402 291.876 300.686L290.374 300.77C290.001 300.797 289.677 300.503 289.655 300.127C289.634 299.75 289.922 299.431 290.297 299.408L292.444 299.289C292.571 299.228 292.711 299.191 292.862 299.216C292.903 299.223 292.935 299.246 292.973 299.259L301.827 298.764C311.821 298.493 312.572 307.2 312.572 307.231C312.644 307.702 314.067 317.75 309.441 331.926C309.444 331.928 309.444 331.928 309.441 331.93ZM308.516 330.327C309.973 325.563 310.74 321.29 311.115 317.759C309.824 321.191 308.258 324.447 306.417 327.472L308.516 330.327ZM311.222 307.383C311.199 307.078 310.593 299.965 301.886 300.125L293.288 300.604C292.844 302.807 292.177 304.918 291.288 306.895L305.535 326.271C308.034 322.068 310.032 317.444 311.445 312.486C311.493 309.309 311.231 307.451 311.222 307.383Z" fill="url(#paint8_linear)"/>
<path d="M253.797 347.983C255.132 348.275 256.403 348.458 257.638 348.591L259.557 343.99C259.559 343.897 259.579 343.802 259.622 343.714C259.649 343.658 259.692 343.615 259.733 343.572L270.302 318.228C270.304 318.215 270.299 318.201 270.304 318.188C270.326 318.097 270.367 318.018 270.419 317.95L271.297 315.843C271.442 315.495 271.84 315.336 272.188 315.477C272.536 315.621 272.699 316.022 272.555 316.368L271.937 317.851C272.627 317.98 273.324 318.077 274.027 318.097C274.566 318.115 275.113 318.088 275.656 318.041L275.199 316.368C275.099 316.004 275.314 315.63 275.676 315.531C276.043 315.434 276.414 315.646 276.513 316.008L280.354 330.065C283.394 342.068 277.468 345.69 277.28 345.794C276.986 346.016 271.265 350.196 261.47 350.196C260.389 350.196 259.249 350.135 258.068 350.022H258.066C258.064 350.022 258.061 350.02 258.059 350.02C256.611 349.88 255.098 349.656 253.51 349.31C253.141 349.231 252.908 348.867 252.99 348.501C253.067 348.134 253.433 347.901 253.797 347.983ZM279.031 330.41L276.016 319.375C275.5 319.427 274.984 319.465 274.466 319.465C274.303 319.465 274.14 319.463 273.977 319.458C273.109 319.431 272.247 319.307 271.396 319.13L261.158 343.685C264.945 345.43 268.922 346.396 272.993 346.54C275.233 345.593 276.463 344.702 276.518 344.664C276.737 344.533 281.8 341.338 279.031 330.41ZM269.849 347.639C266.693 347.214 263.608 346.307 260.636 344.942L259.057 348.729C263.398 349.025 267.031 348.446 269.849 347.639Z" fill="url(#paint9_linear)"/>
<path d="M229.574 285.878C229.954 285.844 230.282 286.113 230.322 286.486C230.51 288.324 230.761 290.036 231.039 291.682L234.65 292.491C234.756 292.432 234.874 292.394 235.003 292.403C235.215 292.412 235.394 292.525 235.512 292.686L256.237 297.328C256.282 297.314 256.325 297.291 256.375 297.287C256.583 297.273 256.766 297.35 256.902 297.477L258.913 297.927C259.279 298.008 259.512 298.374 259.429 298.741C259.359 299.057 259.076 299.272 258.764 299.272C258.714 299.272 258.664 299.267 258.614 299.256L257.237 298.946C257.318 299.598 257.413 300.246 257.535 300.882C257.743 301.958 258.033 303.007 258.359 304.034L259.365 303.007C259.628 302.738 260.06 302.736 260.329 302.996C260.598 303.26 260.603 303.69 260.338 303.959L258.574 305.759C258.544 305.795 258.515 305.829 258.476 305.858L251.188 313.295C248.523 315.89 245.956 317.199 243.542 317.199C243.325 317.199 243.11 317.188 242.897 317.168C239.959 316.878 238.416 314.676 238.393 314.638C238.122 314.314 232.381 307.332 229.768 292.408C229.759 292.374 229.755 292.342 229.752 292.308C229.442 290.52 229.166 288.641 228.961 286.622C228.927 286.251 229.2 285.916 229.574 285.878ZM234.254 294.042C234.256 293.961 234.261 293.882 234.263 293.803L231.288 293.136C232.238 298.139 233.548 302.198 234.844 305.354C234.342 301.646 234.129 297.861 234.254 294.042ZM239.479 313.815C239.493 313.833 240.753 315.601 243.056 315.818C245.227 316.015 247.645 314.848 250.229 312.334L257.282 305.137C256.836 303.848 256.463 302.512 256.198 301.142C256.04 300.319 255.922 299.478 255.827 298.632L235.613 294.103C235.441 299.487 235.907 304.809 236.998 309.919C236.998 309.921 236.998 309.921 236.998 309.921C238.389 312.485 239.439 313.763 239.479 313.815Z" fill="url(#paint10_linear)"/>
<path d="M281.762 313.877C282.108 313.737 282.508 313.902 282.651 314.25L283.046 315.216C283.994 314.538 284.895 313.746 285.741 312.855L285.01 311.711C284.809 311.395 284.901 310.972 285.218 310.771C285.535 310.572 285.958 310.665 286.159 310.979L300.835 333.98C300.842 333.984 300.849 333.987 300.854 333.991C300.949 334.077 301.003 334.186 301.039 334.299L305.88 341.886C306.084 342.203 305.988 342.626 305.672 342.827C305.559 342.899 305.432 342.933 305.305 342.933C305.081 342.933 304.86 342.822 304.731 342.619L300.268 335.626C298.241 337.801 296.06 339.727 293.762 341.364L297.198 349.746C297.341 350.094 297.173 350.492 296.825 350.634C296.741 350.668 296.653 350.684 296.567 350.684C296.3 350.684 296.044 350.523 295.936 350.261L281.386 314.768C281.246 314.418 281.411 314.02 281.762 313.877ZM299.514 334.441L286.492 314.036C285.575 314.972 284.598 315.797 283.573 316.507L293.23 340.064C295.452 338.457 297.56 336.573 299.514 334.441Z" fill="url(#paint11_linear)"/>
<path d="M260.742 311.341C260.787 311.221 260.853 311.108 260.964 311.027C260.968 311.024 260.973 311.024 260.977 311.02L261.909 309.747C262.133 309.444 262.559 309.376 262.862 309.6C263.165 309.822 263.231 310.249 263.009 310.552L262.249 311.59C263.009 312.564 263.835 313.448 264.719 314.226L265.201 313.236C265.366 312.899 265.771 312.759 266.112 312.921C266.452 313.086 266.592 313.493 266.427 313.833L265.613 315.501C265.601 315.544 265.574 315.58 265.554 315.621L253.879 339.574C253.865 339.7 253.829 339.825 253.741 339.929C253.725 339.949 253.7 339.956 253.682 339.974L249.617 348.315C249.5 348.557 249.255 348.699 249.004 348.699C248.905 348.699 248.803 348.677 248.706 348.629C248.366 348.464 248.226 348.057 248.391 347.718L252.332 339.635C250.165 337.813 248.136 335.712 246.278 333.376L241.334 340.121C241.2 340.302 240.992 340.399 240.784 340.399C240.644 340.399 240.503 340.356 240.381 340.268C240.078 340.046 240.012 339.619 240.234 339.316L260.742 311.341ZM252.952 338.371L264.104 315.494C263.145 314.68 262.242 313.758 261.414 312.731L247.113 332.244C248.9 334.53 250.861 336.583 252.952 338.371Z" fill="url(#paint12_linear)"/>
<path d="M275.14 283.441C273.663 283.394 272.507 281.881 272.566 280.07C272.625 278.277 273.814 276.873 275.348 276.873H275.35C275.97 276.893 276.563 277.174 277.024 277.664C277.628 278.309 277.956 279.249 277.925 280.246C277.866 282.039 276.674 283.446 275.21 283.446C275.206 283.443 275.149 283.441 275.14 283.441ZM276.563 280.199C276.583 279.57 276.384 278.971 276.029 278.594C275.88 278.435 275.635 278.243 275.278 278.234C274.579 278.234 273.961 279.096 273.928 280.115C273.894 281.158 274.468 282.057 275.183 282.08L275.21 282.763V282.082C275.911 282.08 276.531 281.219 276.563 280.199Z" fill="url(#paint13_linear)"/>
<path d="M284.79 287.451C286.213 286.904 287.792 287.957 288.165 289.696C288.536 291.414 287.74 293.18 286.356 293.714C286.091 293.816 285.815 293.868 285.539 293.868C284.338 293.868 283.286 292.88 282.981 291.469C282.61 289.75 283.406 287.984 284.79 287.451ZM284.313 291.182C284.514 292.115 285.202 292.701 285.865 292.441C286.614 292.151 287.057 291.026 286.833 289.983C286.666 289.203 286.161 288.658 285.609 288.658C285.501 288.658 285.39 288.679 285.281 288.722C284.533 289.013 284.089 290.137 284.313 291.182Z" fill="url(#paint14_linear)"/>
<path d="M282.537 309.419C282.071 309.833 281.521 310.05 280.944 310.05C280.026 310.05 279.189 309.492 278.707 308.556C277.949 307.088 278.264 305.137 279.42 304.11C280.63 303.039 282.465 303.45 283.252 304.972C284.007 306.442 283.693 308.395 282.537 309.419ZM282.039 305.6C281.795 305.126 281.41 304.843 281.012 304.843C280.775 304.843 280.537 304.942 280.325 305.132C279.637 305.743 279.451 307.025 279.917 307.931C280.309 308.687 281.058 308.908 281.632 308.4C282.32 307.789 282.508 306.507 282.039 305.6Z" fill="url(#paint15_linear)"/>
<path d="M269.54 303.793C270.628 304.891 270.816 306.859 269.965 308.272C269.456 309.12 268.64 309.624 267.778 309.624C267.158 309.624 266.558 309.361 266.086 308.884C264.998 307.786 264.812 305.819 265.66 304.405C266.536 302.952 268.411 302.653 269.54 303.793ZM266.83 305.109C266.303 305.984 266.407 307.275 267.054 307.928C267.592 308.473 268.355 308.306 268.796 307.571C269.32 306.696 269.219 305.405 268.572 304.751C268.355 304.534 268.106 304.417 267.848 304.417C267.463 304.417 267.092 304.67 266.83 305.109Z" fill="url(#paint16_linear)"/>
<path d="M264.235 293.182C263.909 293.182 263.59 293.11 263.287 292.97C261.939 292.348 261.258 290.534 261.74 288.843C262.226 287.129 263.875 286.18 265.253 286.82C266.601 287.441 267.28 289.255 266.8 290.946C266.42 292.284 265.388 293.182 264.235 293.182ZM264.68 288.059C264.556 288.002 264.429 287.973 264.303 287.973C263.764 287.973 263.262 288.472 263.049 289.216C262.758 290.243 263.126 291.396 263.857 291.733C264.506 292.033 265.226 291.493 265.488 290.575C265.78 289.549 265.411 288.396 264.68 288.059Z" fill="url(#paint17_linear)"/>
<path d="M244.005 88.5441C243.897 88.8086 243.643 88.9669 243.374 88.9669C243.288 88.9669 243.2 88.9511 243.116 88.9172L236.061 86.0321C235.712 85.8897 235.545 85.4918 235.688 85.1436C235.83 84.7954 236.23 84.6258 236.577 84.7705L243.632 87.6555C243.98 87.798 244.148 88.1959 244.005 88.5441Z" fill="url(#paint18_linear)"/>
<path d="M236.559 92.0782L243.693 95.2685C244.037 95.4222 244.191 95.8246 244.037 96.1683C243.924 96.4215 243.675 96.5708 243.415 96.5708C243.322 96.5708 243.227 96.5504 243.137 96.512L236.002 93.3217C235.658 93.168 235.504 92.7655 235.658 92.4219C235.81 92.0782 236.212 91.9267 236.559 92.0782Z" fill="url(#paint19_linear)"/>
<path d="M120.285 136.216C120.07 136.216 119.86 136.205 119.652 136.191C119.03 137.385 117.274 140.082 114.062 140.148C114.015 140.148 112.877 140.114 111.877 139.022C110.809 137.855 110.323 135.974 110.413 133.435C109.846 133.265 109.072 132.944 107.95 132.397C106.14 131.531 105.073 129.883 105.021 127.875C104.95 125.108 106.937 122.878 108.819 121.714C109.504 121.291 111.549 120.36 113.162 120.36C114.619 120.36 115.139 121.112 115.324 121.68L119.002 118.051C119.109 117.976 121.64 116.251 123.524 117.056C124.474 117.461 125.074 118.411 125.307 119.88C125.312 119.914 125.312 119.95 125.307 119.984L124.671 124.205C126.578 125.388 128.648 127.739 128.3 130.563C127.847 134.276 123.925 136.216 120.285 136.216ZM112.363 138.547C113.162 139.429 114.037 139.467 114.06 139.469C116.833 139.413 118.432 137.012 119.021 135.92C115.627 133.078 112.897 131.911 111.915 133.245C111.8 133.403 111.574 133.589 111.162 133.589C111.142 133.589 111.11 133.58 111.087 133.577C111.026 135.831 111.461 137.545 112.363 138.547ZM123.258 117.687C121.728 117.034 119.446 118.578 119.437 118.576L115.523 122.444C115.661 122.867 115.845 122.998 116.431 123.335C119.057 124.694 121.918 125.013 123.975 124.12C123.981 124.117 123.99 124.12 123.997 124.115L124.626 119.939C124.427 118.747 123.966 117.99 123.258 117.687ZM124.176 125.508C121.796 126.396 118.67 126.03 115.779 124.533C114.639 123.882 114.331 123.464 114.051 122.184C114.019 122.035 113.951 121.727 113.162 121.727C111.904 121.727 110.083 122.539 109.536 122.876C107.975 123.841 106.328 125.655 106.385 127.843C106.423 129.342 107.188 130.523 108.649 131.224C110.108 131.934 110.746 132.142 111.008 132.2C111.529 131.631 112.239 131.332 113.08 131.332C115.2 131.332 117.908 133.209 119.867 134.843C120.005 134.85 120.143 134.855 120.285 134.855C122.744 134.855 126.547 133.67 126.949 130.403C127.205 128.318 125.673 126.512 124.176 125.508Z" fill="url(#paint20_linear)"/>
<path d="M1.55255 199.674C1.53442 197.954 1.38281 182.57 1.23352 173.714C1.07971 164.541 2.97992 136.812 4.28516 132.112C4.36432 131.483 6.30066 116.617 12.3156 108.661C12.5847 108.364 18.6924 101.708 21.4544 99.0356C19.6832 94.7918 19.518 81.7459 19.5112 81.1693C19.509 80.9568 19.6063 80.7533 19.7759 80.6245C19.9456 80.4933 20.1673 80.4504 20.3731 80.5069L22.7189 81.1467V79.6341C22.7189 79.3651 22.875 79.1232 23.1216 79.0124C26.2953 77.5857 36.1285 77.3053 37.2505 77.2782C41.872 75.5146 46.2989 73.7556 46.8802 73.3192C46.921 73.2876 46.9662 73.2627 47.0137 73.2401L51.6758 71.1803C51.746 71.1509 51.8161 71.1419 51.8885 71.1351C52.1531 67.4655 60.0682 61.856 68.1597 56.4206C69.6437 55.4235 70.9262 54.5644 71.6546 54.0149C72.6635 53.2552 73.8353 52.283 75.0771 51.252C79.8818 47.2682 85.8469 42.3279 91.1041 41.9526C91.7193 41.5795 94.6397 39.8159 97.9875 37.8715L106.235 32.6373C108.871 30.9642 111.49 29.2504 114.107 27.5343C118.817 24.448 123.687 21.2578 128.614 18.3592C147.797 7.07009 171.094 0.834299 194.215 0.802645C197.117 0.809428 199.861 1.02648 202.471 1.41537C202.487 1.41311 202.498 1.40407 202.514 1.40407C222.803 0.0949586 244.872 0.357232 271.965 2.22933C325.434 5.92152 377.735 15.4131 426.291 25.1173C432.211 26.2998 438.027 28.5404 443.73 31.1112C443.748 31.1179 443.773 31.127 443.788 31.136C443.793 31.1383 443.795 31.1428 443.8 31.1428C446.906 32.5446 449.98 34.0391 453.016 35.5223C455.214 36.5963 457.386 37.6567 459.528 38.6561C472.04 44.5052 484.388 51.0711 496.23 58.1684C509.403 66.066 522.437 74.7301 535.041 83.107C539.262 85.9129 543.481 88.7165 547.709 91.4975C555.303 96.4898 561.627 100.659 568.113 105.059C568.33 105.206 568.816 105.486 569.452 105.855C573.508 108.206 575.98 109.825 576.684 111.071C579.896 111.039 581.909 110.999 581.986 110.996C582.063 110.999 582.154 111.01 582.235 111.037L603.788 118.93C605.937 119.574 645.365 136.403 647.008 137.104C649.419 137.981 654.065 140.256 659.175 142.89C660.349 143.383 684.891 153.681 691.546 157.005C697.692 160.078 701.176 165.696 703.481 169.416C703.815 169.956 704.13 170.462 704.426 170.919C706.349 173.89 705.897 178.582 705.569 182.007C705.474 182.997 705.39 183.854 705.39 184.462C705.39 186.678 707.068 187.519 707.136 187.553C707.163 187.567 707.184 187.587 707.206 187.603C707.224 187.614 707.245 187.617 707.261 187.63C708.134 188.302 715.82 194.293 716.467 197.56C716.73 198.313 722.912 216.064 724.197 222.926C724.362 224.48 728.262 261.112 728.047 270.624C728.051 270.755 728.497 283.803 730.768 288.961C730.795 289.024 730.813 289.09 730.823 289.157C730.859 289.472 731.675 296.888 729.472 301.292C729.449 301.337 729.418 301.385 729.386 301.423C729.366 301.45 727.23 304.114 727.832 310.203C727.814 310.634 727.343 320.811 723.084 324.171C723.034 324.209 722.98 324.241 722.921 324.266C722.684 324.365 698.755 334.194 666.41 340.531C666.154 340.604 640.242 347.862 600.452 352.092C599.9 352.151 545.028 357.873 523.661 358.719C523.032 358.741 460.596 361.063 445.399 360.001C444.965 360.003 402.191 360.331 397.183 360.281C395.746 360.736 382.558 364.796 371.252 364.796C370.271 364.796 369.302 364.765 368.359 364.699C368.305 364.692 366.771 364.525 364.242 364.172C356.203 378.432 352.599 380.115 352.212 380.259C352.169 380.275 352.124 380.286 352.079 380.293C351.638 380.363 318.091 385.575 296.477 388.675C291.491 390.013 286.349 390.739 281.162 390.739C281.131 390.739 281.099 390.737 281.067 390.737C281.058 390.737 281.049 390.739 281.043 390.739C281.038 390.739 281.033 390.737 281.029 390.737C278.932 390.732 276.831 390.617 274.729 390.377C252.334 387.834 230.338 372.651 218.693 351.698C212.893 341.262 208.911 329.217 206.869 316.615L71.8853 264.931C70.5009 272.519 59.1023 279.476 58.6001 279.779C58.4938 279.842 58.3716 279.876 58.2495 279.876C58.2405 279.876 58.2314 279.876 58.2201 279.876L24.576 278.474C24.4901 278.476 24.4109 278.495 24.325 278.495C23.8816 278.495 23.4247 278.461 22.9632 278.406L22.8907 278.404C22.8885 278.404 22.884 278.402 22.8817 278.402C22.8659 278.4 22.8501 278.402 22.8342 278.4C16.5524 277.599 12.2839 271.736 10.386 266.514C6.15363 254.872 5.9704 242.405 5.79395 230.347C5.77588 229.058 5.75549 227.774 5.73285 226.492C4.98413 225.49 1.36932 220.48 0.76532 216.259C-0.00152588 210.95 -0.591919 204.278 1.55255 199.674ZM24.0806 80.0954V82.0376C24.0806 82.2501 23.9811 82.4491 23.8115 82.5802C23.6418 82.7091 23.4224 82.7543 23.2188 82.6955L20.8889 82.0579C20.9749 86.1774 21.3842 94.534 22.513 97.9662C24.9402 95.2937 28.1276 90.0799 28.856 88.0427L30.1385 84.6784C30.238 84.4139 30.4915 84.2398 30.7765 84.2398H32.2897L30.1928 80.7872C30.0865 80.6132 30.0639 80.4006 30.1318 80.2084C30.1996 80.0163 30.3489 79.8648 30.5389 79.7947C31.3442 79.4985 32.2264 79.1706 33.1403 78.8292C30.0413 79.0237 26.0532 79.3967 24.0806 80.0954ZM47.6222 74.4633C46.0862 75.4626 35.0699 79.5731 31.7876 80.7872L34.0836 84.5676C34.2103 84.7779 34.217 85.0402 34.0949 85.255C33.975 85.4697 33.7465 85.6031 33.5 85.6031H33.3801L46.2265 90.7763C49.5608 86.0214 56.347 81.9313 62.8754 78.4856C61.7376 77.6332 60.2108 77.285 58.6092 76.9187C58.1364 76.8102 57.6681 76.7039 57.2112 76.5841C54.9197 75.9827 52.6848 74.5288 52.0672 72.5007L47.6222 74.4633ZM98.7386 113.119C98.6775 113.239 98.5577 113.307 98.4332 113.307C98.3812 113.307 98.3292 113.296 98.2817 113.271C95.7549 112.009 63.0383 98.285 62.7126 98.1493L47.1223 91.8729C46.9028 92.203 46.6947 92.5353 46.5161 92.8699C45.8713 94.0841 45.6226 96.4966 45.3805 98.8322C45.1769 100.811 44.9642 102.854 44.496 104.297C42.8243 109.445 41.0938 114.768 39.7908 120.264C31.014 157.297 43.0641 198.777 53.6982 235.373L54.6754 238.735C55.9828 243.248 63.1221 245.835 67.8453 247.546C68.6935 247.854 69.4785 248.136 70.1639 248.405C78.977 251.867 87.876 255.31 96.7502 258.72C99.519 253.445 99.3199 247.182 99.0983 241.114C99.0598 240.08 99.0236 239.056 99.001 238.05L98.9874 237.41C98.8223 229.788 98.6526 221.907 98.5644 214.384C98.3608 197.318 98.4265 179.938 98.759 161.247C99.053 144.726 99.8221 129.812 106.278 114.609L106.396 114.331C110.728 104.06 112.791 99.8745 113.91 98.2059C113.847 98.1878 113.784 98.172 113.718 98.1539C113.714 98.1539 113.711 98.1539 113.707 98.1539C113.702 98.1539 113.7 98.1493 113.695 98.1493C107.316 96.4333 100.788 94.5838 97.0804 93.2611C96.049 92.8926 71.9872 84.2443 64.0337 79.4193C59.8986 81.5763 51.3818 86.1096 47.5317 91.3076L62.9705 97.523C64.3187 98.0883 96.0377 111.394 98.5848 112.665C98.7545 112.746 98.8223 112.95 98.7386 113.119ZM197.759 245.527C198.304 240.187 198.868 234.665 199.184 229.298L199.218 228.708C200.322 210.009 201.462 190.676 205.034 171.941C205.581 169.067 215.134 129.604 221.541 123.28L131.46 102.732C131.349 102.705 126.422 101.487 120.176 99.8609C120.174 99.8609 120.172 99.8609 120.17 99.8609C120.167 99.8609 120.165 99.8587 120.163 99.8587C118.602 99.4517 116.96 99.0198 115.288 98.5744C114.548 99.4607 112.18 104.127 107.654 114.86L107.536 115.141C101.175 130.12 100.417 144.893 100.123 161.269C99.7905 179.947 99.7271 197.316 99.9285 214.366C100.019 221.884 100.189 229.761 100.352 237.379L100.365 238.018C100.385 239.018 100.424 240.035 100.46 241.059C100.686 247.259 100.91 253.658 98.0486 259.215C106.776 262.566 115.474 265.881 124.026 269.143C146.903 277.861 170.553 286.878 193.694 296.148C194.601 295.23 197.558 291.396 196.52 281.142C195.327 269.362 196.563 257.246 197.759 245.527ZM101.763 37.2769C97.3067 39.7956 92.5721 42.6557 91.7917 43.1283L65.1217 78.4788C68.4062 80.3961 74.1927 82.9171 79.9769 85.2617C91.8416 57.2753 104.948 37.1548 105.079 36.9535C105.131 36.8744 105.197 36.8088 105.274 36.7568C118.03 28.3527 132.898 22.9626 147.279 17.7465L150.307 16.6476C150.563 16.5549 150.839 16.6318 151.022 16.8195L155.911 15.5669C156.178 15.3159 156.336 15.187 156.374 15.1554C156.668 14.9225 157.098 14.9745 157.331 15.2707C157.331 15.2707 157.331 15.2729 157.333 15.2729L162.22 14.5947C162.267 14.5246 162.299 14.4748 162.306 14.468C162.423 14.2917 162.611 14.199 162.808 14.1786C162.823 14.1741 162.837 14.1651 162.855 14.1628C165.328 13.835 167.244 13.6315 169.062 13.5003C176.597 12.9554 184.626 12.7678 192.296 15.0401C199.198 17.084 205.466 20.8508 210.422 25.9312C214.202 29.8043 217.125 34.4484 219.95 38.9409C220.885 40.4264 221.819 41.9096 222.78 43.3612C222.891 43.5285 222.923 43.7388 222.864 43.9332L209.757 87.638C210.474 89.648 210.411 91.4252 209.54 93.026C208.886 94.2265 207.475 95.0699 206.057 95.6984H211.162L224.282 48.3625C224.357 48.0934 224.588 47.8967 224.866 47.8673C225.137 47.8402 225.411 47.9781 225.542 48.2245C228.72 54.2048 233.206 62.6089 235.113 66.1112L235.651 62.8554C235.713 62.4846 236.061 62.2268 236.434 62.2947C236.466 62.2992 236.491 62.3173 236.52 62.3263C231.476 51.1548 225.447 40.4739 218.512 30.4555L217.79 29.4199C213.105 22.7319 208.57 18.2371 203.514 15.2752C196.995 11.4564 189.591 10.1518 181.9 10.1518C175.769 10.1518 169.456 10.9816 163.262 12.0307C163.115 12.0646 148.527 15.4516 146.046 16.3808L131.028 22.3408C130.777 22.4606 106.608 34.5411 101.763 37.2769ZM119.783 98.3483C123.076 82.7272 136.624 48.6406 136.771 48.2698C145.788 27.8079 152.287 19.4309 154.99 16.5074L151.185 17.4819C151.151 17.595 151.099 17.7012 151.009 17.7872C150.473 18.2891 150.138 18.9267 149.785 19.6005C149.588 19.9735 149.389 20.3511 149.156 20.7151C142.426 31.2536 137.323 39.99 133.1 48.2132C129.623 54.9804 126.415 62.5049 122.694 72.6138L121.452 75.9623C118.912 82.7905 116.297 89.847 114.67 96.9963C116.412 97.462 118.136 97.9187 119.783 98.3483ZM199.815 116.925C203.071 112.464 201.609 109.748 201.146 109.093L182.995 105.147L152.214 100.82C151.848 100.77 143.218 99.5399 138.868 95.6871C137.579 94.5431 135.848 93.1458 135.846 93.1435C135.554 92.9084 135.509 92.4833 135.742 92.1894C135.672 91.8593 135.715 91.5789 135.794 91.38C136.063 90.7062 136.825 90.2653 137.441 90.0053C135.93 87.8393 135.626 82.9781 135.597 82.2908C136.059 77.4523 138.92 75.0941 142.236 72.3628L142.505 72.1412C145.335 69.8102 148.541 67.1671 152.183 66.2242C153.673 65.8376 155.336 65.659 157.419 65.659C158.408 65.659 159.399 65.6952 160.387 65.7336C161.351 65.7698 162.312 65.8082 163.265 65.8082H173.964C174.695 65.8195 175.432 65.8263 176.174 65.8308C184.583 65.9009 193.278 65.9733 199.105 72.8828C200.854 74.9562 202.469 77.0883 203.973 79.096C204.367 79.6206 204.835 80.1926 205.333 80.8031C206.547 82.2908 207.907 83.9707 208.898 85.7614L221.468 43.8428C220.563 42.4681 219.681 41.0663 218.799 39.6622C216.01 35.2307 213.126 30.6499 209.447 26.8786C204.654 21.9632 198.589 18.3208 191.909 16.3424C184.449 14.1312 176.568 14.3188 169.162 14.8547C167.429 14.9813 165.595 15.1757 163.265 15.481C161.993 17.396 153.732 30.0078 149.837 39.9335C149.735 40.1754 139.673 64.3454 137.463 72.4465C137.402 72.659 131.442 93.2227 130.179 101.003C131.157 101.247 131.74 101.392 131.776 101.401L199.815 116.925ZM203.215 111.069C206.78 110.702 223.28 108.385 225.178 97.0618H225.176H203.129C202.822 97.0618 202.573 96.8561 202.487 96.5757L187.774 95.2349V99.6642C187.774 99.7772 187.718 99.8858 187.623 99.9468C185.996 101.028 183.915 102.78 183.49 103.861L201.673 107.811C201.811 107.84 201.935 107.912 202.03 108.016C202.105 108.1 203.039 109.172 203.215 111.069ZM231.159 89.9397L234.772 68.1483C233.853 66.7646 231.645 62.6112 225.137 50.3725L212.576 95.6984H225.16C230.77 95.5583 231.136 90.2404 231.159 89.9397ZM207.848 86.6658C206.912 84.8955 205.511 83.1794 204.276 81.669C203.763 81.0405 203.283 80.4526 202.881 79.9168C201.388 77.9248 199.786 75.8108 198.06 73.7646C192.636 67.3344 184.261 67.2643 176.159 67.1965C175.414 67.1897 174.675 67.1852 173.951 67.1739H163.262C162.292 67.1739 161.315 67.1354 160.331 67.0992C159.36 67.0631 158.385 67.0246 157.415 67.0246C155.424 67.0246 153.913 67.1852 152.52 67.5447C149.17 68.4129 146.086 70.952 143.279 73.2672L143.098 73.4164C139.891 76.0595 137.357 78.1464 136.952 82.3224C137.065 84.4704 137.628 88.1739 138.669 89.3948L203.362 95.2869L203.414 95.2689C204.973 94.7081 207.583 93.7698 208.341 92.3771C209.203 90.7921 209.04 88.9245 207.848 86.6658ZM136.701 92.0831C136.719 92.0967 138.474 93.5166 139.771 94.6674C139.868 94.7533 139.977 94.8302 140.078 94.9139L181.275 99.1487C182.192 98.7711 182.99 98.2104 182.972 97.9526C182.972 97.9504 182.94 97.6836 181.886 97.4326C179.307 96.8199 154.621 92.9355 143.591 91.2104L138.294 90.7288C138.146 90.7152 138.008 90.6542 137.898 90.5547C137.337 90.7695 136.62 91.1403 136.423 91.6332C136.382 91.7349 136.38 91.8435 136.389 91.952C136.502 91.9723 136.608 92.0108 136.701 92.0831ZM182.814 103.748C183.347 102.131 186.161 100.114 187.094 99.4833V95.1739L154.065 92.1645C165.776 94.0117 180.07 96.2999 182.045 96.7679C182.71 96.9261 183.601 97.2156 183.651 97.9029C183.718 98.8344 181.983 99.6009 181.45 99.8134C181.409 99.8293 181.368 99.8383 181.323 99.8383C181.312 99.8383 181.3 99.8383 181.289 99.836L141.18 95.712C145.507 98.4817 152.321 99.4607 152.4 99.472L182.814 103.748ZM128.849 100.673C130.161 92.7366 135.9 72.9371 136.149 72.0825C138.379 63.9067 148.161 40.4106 148.572 39.4293C152.212 30.1548 159.6 18.5921 161.72 15.3543L157.415 15.9512C157.372 16.0553 157.311 16.1547 157.216 16.2293C157.141 16.2881 149.679 22.3589 138.027 48.7988C137.889 49.147 124.345 83.2291 121.102 98.6943C124.198 99.4969 126.924 100.189 128.849 100.673ZM113.352 96.6413C114.996 89.4242 117.622 82.3405 120.172 75.4875L121.411 72.1435C125.151 61.9804 128.381 54.4083 131.883 47.5915C136.126 39.3298 141.25 30.5572 148.005 19.9826C148.217 19.6502 148.396 19.3065 148.575 18.9674C148.627 18.8702 148.679 18.7707 148.731 18.6712L147.742 19.0307C133.482 24.2016 118.738 29.5465 106.142 37.8172C105.052 39.5039 92.5858 59.0162 81.2414 85.7705C89.5093 89.0873 97.3994 91.9203 97.5397 91.9723C101.08 93.2362 107.233 94.9885 113.352 96.6413ZM236.954 63.3076L232.512 90.0844C232.509 90.1342 232.267 93.7156 229.471 95.7278L224.441 122.554L237.687 125.826L246.926 115.502C252.635 110.397 248.95 96.2953 248.919 96.171C246.896 89.3451 244.453 82.1665 241.451 74.2213C240.058 70.5359 238.554 66.898 236.954 63.3076ZM227.933 96.5395C227.331 96.7656 226.648 96.9239 225.877 96.9985C224.031 108.984 206.848 111.378 203.24 111.749C203.227 113.203 202.743 115.052 201.247 117.252L223.113 122.24L227.933 96.5395ZM72.4758 55.1025C71.718 55.6745 70.4829 56.5043 68.9198 57.5534C63.5089 61.1868 53.4358 67.9516 53.2413 71.2527C53.1259 73.2129 55.3246 74.6803 57.5551 75.2659C57.9984 75.3812 58.4531 75.4852 58.91 75.5892C60.7333 76.0053 62.6108 76.4371 64.0269 77.6693L89.7784 43.5353C85.2747 44.5776 80.1533 48.8169 75.9458 52.3034C74.6926 53.3434 73.5073 54.3247 72.4758 55.1025ZM426.02 26.4558C377.509 16.7584 325.257 7.27584 271.865 3.59044C247.03 1.87435 226.44 1.51938 207.572 2.48256C210.811 3.36434 213.784 4.57849 216.435 6.16796C219.251 7.85918 222.099 10.2106 224.952 13.1544C230.322 13.2946 316.838 15.5872 341.248 18.0585C344.594 18.4022 412.409 25.3954 436.097 29.4132C432.763 28.1651 429.402 27.1318 426.02 26.4558ZM302.252 103.743C302.256 103.743 302.259 103.745 302.261 103.748C302.265 103.748 302.27 103.748 302.274 103.748C308.561 104.794 373.553 105.231 374.229 105.235C380.355 105.446 434.014 106.718 434.582 106.732C441.384 107.155 481.782 108.638 482.21 108.654C494.661 109.497 534.996 109.931 535.469 109.938C540.201 110.449 546.315 110.748 552.545 110.917C527.036 81.5402 492.907 61.6186 459.874 42.3595C454.11 38.9997 448.161 35.5291 442.359 32.0675C430.919 28.6715 342.035 19.5078 341.112 19.4128C317.946 17.0682 238.617 14.8818 226.275 14.5517C228.042 16.4916 229.811 18.6486 231.573 21.0498C238.583 30.6002 244.921 40.8763 251.052 50.8134L251.398 51.3764C255.243 57.9807 278.498 91.9723 278.715 92.2889C285.666 101.491 302.087 103.723 302.252 103.743ZM568.762 107.04C568.088 106.648 567.572 106.348 567.341 106.192C560.863 101.796 554.543 97.6316 546.953 92.6416C542.723 89.8606 538.504 87.0547 534.279 84.2466C521.688 75.8764 508.667 67.2213 495.522 59.3418C483.721 52.2672 471.415 45.7239 458.944 39.8951C457.884 39.3999 456.814 38.8889 455.739 38.3689C457.347 39.3095 458.969 40.2568 460.557 41.1838C494.043 60.7052 528.662 80.8912 554.407 110.965C562.059 111.141 569.685 111.134 574.974 111.093C574.037 110.25 571.965 108.896 568.762 107.04ZM646.501 138.379C632.315 132.324 605.053 120.741 603.352 120.23L581.88 112.369C581.362 112.378 579.319 112.414 576.32 112.443C576.288 112.448 576.261 112.461 576.229 112.461H576.227C576.193 112.461 576.166 112.448 576.134 112.443C570.771 112.493 562.437 112.516 554.108 112.319C554.104 112.319 554.099 112.321 554.095 112.321C554.09 112.321 554.086 112.319 554.081 112.319C547.295 112.158 540.522 111.853 535.38 111.297C534.973 111.292 494.599 110.861 482.133 110.015C481.726 109.999 441.311 108.514 434.518 108.093C433.976 108.08 380.31 106.809 374.198 106.599C371.768 106.583 319.736 106.235 305.242 105.375L339.73 124.8C350.789 128.254 361.865 132.458 372.576 136.525C377.824 138.517 383.248 140.577 388.587 142.517C393.986 144.479 399.375 146.455 404.756 148.429C431.254 158.151 458.653 168.206 486.483 175.871C488.928 176.544 491.356 177.322 493.704 178.075C494.817 178.432 495.927 178.787 497.043 179.133C501.343 180.467 505.643 181.794 509.943 183.117L529.736 189.213C537.738 189.674 554.054 190.714 561.349 191.874C533.679 175.364 503.229 161.584 474.309 148.893C472.085 147.916 469.859 146.944 467.629 145.98C442.553 135.155 414.879 125.776 380.534 116.466C380.353 116.416 380.244 116.23 380.294 116.047C380.344 115.866 380.525 115.758 380.712 115.808C415.089 125.127 442.793 134.515 467.898 145.354C470.13 146.317 472.356 147.29 474.582 148.266C504.082 161.215 535.19 175.278 563.319 192.24C563.847 192.36 564.272 192.48 564.559 192.6C568.504 191.967 613.934 184.77 629.28 186.215C630.424 186.294 656.882 188.118 661.87 189.285C660.84 186.133 659.886 183.296 657.836 178.973C646.802 155.689 630.974 140.262 603.205 125.724C603.037 125.636 602.974 125.43 603.062 125.263C603.15 125.098 603.356 125.035 603.524 125.121C631.435 139.733 647.349 155.253 658.454 178.681C660.524 183.049 661.485 185.907 662.521 189.086C669.868 186.572 678.36 183.861 681.018 183.777C683.373 179.92 688.782 170.469 688.621 167.856C688.621 167.804 688.655 162.502 680.421 155.866C680.161 155.719 653.459 140.909 646.501 138.379ZM344.103 143.453L344.652 143.959L380.244 156.854C380.871 156.854 384.359 157.31 390.295 166.605L421.079 206.989C421.186 207.127 421.17 207.323 421.043 207.443C420.978 207.506 420.894 207.536 420.81 207.536C420.731 207.536 420.652 207.509 420.588 207.454C420.376 207.271 400.849 190.474 389.234 184.935L391.731 187.23L391.763 187.223L392.023 187.499C392.163 187.648 405.993 202.643 406.315 220.645L406.317 220.733L405.518 224.016L452.624 242.12L450.258 238.561C446.797 236.949 430.521 230.223 419.401 225.676C419.227 225.603 419.143 225.407 419.215 225.23C419.285 225.056 419.485 224.973 419.661 225.045C425.945 227.613 432.77 230.417 438.477 232.796L428.164 216.36L407.676 210.945C407.495 210.898 407.387 210.71 407.434 210.529C407.482 210.346 407.665 210.235 407.851 210.287L436.5 217.857L431.806 210.798C430.345 208.761 429.531 206.907 429.34 205.241C426.814 205.505 426.298 207.203 426.275 207.28C426.244 207.409 426.14 207.506 426.008 207.531C425.988 207.536 425.965 207.538 425.945 207.538C425.837 207.538 425.735 207.486 425.669 207.398L402.781 175.755C400.399 171.934 399.845 168.981 401.132 166.983C403.467 163.363 410.92 164.297 411.257 164.342L441.644 170.119L379.846 147.253C372.664 144.142 370.424 141.156 369.811 139.198C369.501 138.205 369.576 137.418 369.707 136.896C360.046 133.231 350.127 129.509 340.216 126.378C340.298 127.719 340.296 129.08 340.293 130.407C340.282 135.304 340.275 139.932 344.103 143.453ZM387.707 183.533C396.861 187.182 412.676 199.95 418.657 204.933L389.738 166.996C383.597 157.378 380.274 157.523 380.235 157.534C380.181 157.543 380.129 157.536 380.077 157.516L345.955 145.153L387.707 183.533ZM335.12 320.463C335.109 320.465 335.097 320.465 335.084 320.465C334.912 320.465 334.763 320.334 334.747 320.16C332.315 296.284 329.707 278.519 326.026 260.755C321.934 241.003 315.582 222.379 307.163 205.374L296.692 209.444C297.078 210.016 297.454 210.606 297.832 211.196C297.85 211.219 297.863 211.244 297.879 211.269C309.898 230.148 316.234 258.026 318.736 271.422C318.742 271.454 318.752 271.483 318.754 271.513C319.622 276.175 320.025 279.062 320.039 279.162C323.115 292.854 324.502 323.839 324.803 331.429C324.913 331.413 325.031 331.415 325.158 331.458C325.411 331.542 325.714 331.648 325.744 332.939C328.908 333.938 337.893 336.69 354.506 341.151C359.003 342.358 362.941 342.971 366.206 342.971H366.208C375.548 342.969 376.39 338.076 376.435 337.802L379.027 327.146V327.144L404.953 220.582C404.625 204.477 393.131 190.809 391.279 188.709L307.837 205.189C316.252 222.212 322.604 240.849 326.701 260.615C330.385 278.404 332.998 296.191 335.43 320.09C335.441 320.275 335.305 320.443 335.12 320.463ZM295.083 209.507L294.588 208.797L294.592 208.795C293.364 207.032 291.593 204.662 289.36 202.116C287.055 202.014 272.677 201.73 257.067 208.673C270.225 203.624 283.893 203.927 295.199 209.684C295.162 209.627 295.124 209.566 295.083 209.507ZM233.754 223.786C233.76 223.779 233.76 223.77 233.767 223.763C253.583 201.933 281.097 200.678 288.112 200.728C279.253 191.132 264.303 180.264 247.451 190.355C239.852 194.906 233.161 202.469 228.105 212.23C223.486 221.145 221.405 231.265 219.392 241.053C219.29 241.546 219.183 242.032 219.084 242.525C223.167 235.466 228.085 229.178 233.754 223.786ZM317.564 272.589L312.49 275.282C313.458 278.449 314.178 281.75 314.646 285.112L319.548 283.892C319.279 282.257 318.996 280.742 318.695 279.401C318.681 279.295 318.322 276.736 317.564 272.589ZM313.318 285.443C312.872 282.191 312.182 279.001 311.262 275.933L292.713 285.773C293.14 287.249 293.448 288.78 293.645 290.342L313.318 285.443ZM319.763 285.244L314.497 286.555C314.404 286.625 314.302 286.679 314.178 286.695C314.148 286.7 314.119 286.7 314.092 286.7C314.055 286.7 314.024 286.686 313.988 286.682L291.733 292.223C291.677 292.237 291.622 292.244 291.568 292.244C291.263 292.244 290.984 292.038 290.907 291.728C290.817 291.362 291.039 290.993 291.403 290.903L292.317 290.674C292.143 289.225 291.855 287.808 291.473 286.433L290.738 286.824C290.636 286.878 290.527 286.903 290.419 286.903C290.175 286.903 289.939 286.772 289.817 286.541C289.641 286.209 289.767 285.798 290.1 285.621L317.306 271.189C316.295 265.829 314.696 258.311 312.4 250.024C312.339 249.981 312.28 249.934 312.234 249.868C303.05 236.929 290.5 229.562 276.896 229.124C276.471 229.108 276.052 229.103 275.629 229.103C248.24 229.103 225.241 257.755 224.081 293.718C223.509 311.442 228.263 328.268 237.47 341.097C246.636 353.871 259.121 361.145 272.623 361.579C297.074 362.382 315.827 343.073 321.547 311.227C321.613 310.865 321.952 310.63 322.312 310.677C321.719 302.059 320.885 292.567 319.763 285.244ZM322.498 313.47C316.351 344.194 297.999 362.965 274.066 362.963C273.573 362.963 273.075 362.954 272.578 362.938C258.643 362.488 245.781 355.013 236.362 341.886C226.981 328.813 222.135 311.69 222.717 293.668C223.918 256.4 248.238 226.899 276.939 227.756C290.032 228.179 302.155 234.794 311.384 246.463C310.938 244.955 310.475 243.431 309.984 241.894C300.838 231.694 289.172 225.866 277.018 225.474C276.892 225.472 263.475 225.341 249.948 233.641C237.461 241.304 222.337 257.926 221.204 293.621C220.495 315.93 227.89 337.341 240.983 350.894C250 360.227 260.896 365.181 272.494 365.219C272.571 365.219 272.646 365.219 272.723 365.219C299.406 365.219 316.275 350 322.891 320.002C322.776 317.96 322.645 315.758 322.498 313.47ZM380.38 327.314C380.633 328.829 381.192 329.808 382.056 330.206C383.732 330.983 386.13 329.548 386.15 329.548L421.824 297.602C431.514 287.988 422.181 276.491 421.826 276.057L398.447 253.054L380.38 327.314ZM454.938 243.144C454.988 243.219 454.99 243.309 455.008 243.393L465.373 247.239L435.457 213.839L454.938 243.144ZM438.948 232.911C438.911 232.933 438.873 232.936 438.832 232.945C443.51 234.896 447.403 236.547 449.566 237.523L437.059 218.71L429.123 216.611L439.056 232.441C439.153 232.601 439.106 232.811 438.948 232.911ZM564.573 193.979C564.525 193.988 564.48 193.99 564.435 193.99C564.276 193.99 564.138 193.941 564.016 193.818C562.489 192.819 542.531 191.322 530.003 190.592C529.096 191.869 525.323 194.935 509.846 196.57C523.244 198.496 564.398 204.303 584.452 205.89L564.84 193.934C564.697 193.959 564.593 193.977 564.573 193.979ZM528.474 190.248L509.547 184.417C507.591 183.816 505.634 183.208 503.677 182.606L411.144 165.013C411.07 165.004 403.802 164.089 401.7 167.351C400.567 169.108 401.123 171.814 403.34 175.373L425.866 206.514C426.262 205.815 427.212 204.746 429.3 204.547C429.295 203.708 429.442 202.917 429.786 202.189C431.799 197.909 439.052 197.35 439.393 197.327L489.424 196.258C519.283 195.926 526.742 191.768 528.474 190.248ZM370.345 137.136C370.25 137.558 370.207 138.189 370.458 138.992C371.028 140.814 373.166 143.618 380.095 146.62L445.677 170.885L497.841 180.804C497.443 180.68 497.043 180.558 496.644 180.436C495.525 180.087 494.409 179.732 493.292 179.373C490.958 178.625 488.542 177.851 486.123 177.187C458.239 169.506 430.811 159.442 404.288 149.709C398.909 147.735 393.523 145.759 388.123 143.796C382.775 141.854 377.344 139.792 372.094 137.798C371.517 137.579 370.927 137.357 370.345 137.136ZM679.453 189.597C679.432 189.498 679.432 189.394 679.457 189.292L680.527 185.129C678.148 185.444 670.303 187.874 662.951 190.384C663.84 193.104 664.896 196.238 666.783 200.852L679.453 189.597ZM704.205 181.887C704.499 178.842 704.942 174.243 703.275 171.67C702.974 171.206 702.657 170.693 702.316 170.146C699.959 166.343 696.728 161.134 690.928 158.235C687.664 156.605 680.041 153.272 673.015 150.256C677.469 152.675 680.776 154.511 681.186 154.744C690.114 161.927 689.999 167.668 689.99 167.84C690.209 171.322 683.049 183.092 682.034 184.743L681.007 188.736L705.078 187.583C704.521 186.893 704.019 185.882 704.019 184.474C704.021 183.798 704.105 182.911 704.205 181.887ZM725.219 247.503L721.955 250.327C721.186 250.992 720.709 251.96 720.648 252.975L719.517 271.827C719.494 272.204 719.673 272.548 719.992 272.749C720.311 272.948 720.7 272.957 721.025 272.772L726.69 269.579C726.66 265.017 725.993 256.226 725.219 247.503ZM445.44 358.649C460.623 359.7 522.98 357.389 523.606 357.367C544.929 356.521 599.757 350.803 600.307 350.747C639.968 346.528 665.781 339.301 666.091 339.218C697.35 333.091 720.679 323.719 722.308 323.054C726.011 320.013 726.464 310.257 726.468 310.255C725.855 304.123 727.891 301.136 728.278 300.632C730.133 296.838 729.56 290.299 729.472 289.42C727.133 283.964 726.696 271.221 726.678 270.642C726.681 270.556 726.678 270.452 726.681 270.364L721.356 273.364C721.093 273.511 720.806 273.586 720.521 273.586C720.211 273.586 719.903 273.498 719.625 273.326C719.089 272.991 718.793 272.417 718.831 271.786L719.965 252.934C720.037 251.736 720.598 250.599 721.507 249.812L725.145 246.667C724.084 234.794 722.862 223.313 722.844 223.132C721.586 216.424 715.239 198.2 715.149 197.927C714.676 195.568 709.002 190.728 706.618 188.871L680.15 190.14C680.138 190.142 680.127 190.142 680.118 190.142C680.048 190.142 679.982 190.117 679.914 190.097L666.876 201.682C666.812 201.739 666.733 201.768 666.649 201.768C666.624 201.768 666.597 201.766 666.572 201.759C666.464 201.734 666.376 201.66 666.335 201.558C664.326 196.681 663.227 193.423 662.306 190.606C662.261 190.621 662.213 190.637 662.168 190.653C662.039 190.698 661.899 190.701 661.768 190.667C657.606 189.536 629.476 187.596 629.176 187.576C615.058 186.233 573.766 192.536 565.882 193.773L586.02 206.05C586.153 206.132 586.214 206.297 586.167 206.446C586.121 206.588 585.988 206.683 585.841 206.683C585.832 206.683 585.825 206.683 585.816 206.681C564.733 205.15 516.286 198.198 506.984 196.848C502.189 197.262 496.414 197.545 489.444 197.621L439.454 198.689C439.386 198.693 432.695 199.204 431.019 202.77C430.166 204.583 430.772 206.968 432.82 209.874L471.956 253.567C472.488 254.248 478.039 261.374 484.429 269.855L511.635 271.076C513.036 271.14 514.307 271.951 514.954 273.193L526.174 294.737C526.531 295.42 526.506 296.225 526.113 296.89C525.719 297.552 525.022 297.957 524.249 297.971L504.272 298.317C504.476 298.742 504.639 299.122 504.722 299.406C504.731 299.438 504.736 299.467 504.736 299.499C504.736 299.886 504.51 308.421 487.524 319.787C497.429 314.948 503.003 312.305 504.071 311.937C504.306 311.806 528.051 299.042 554.785 300.103C555.608 300.026 637.278 292.372 656.463 288.791C658.189 288.425 698.678 279.851 707.428 280.226C708.378 280.032 715.691 278.748 719.53 283.869C720.706 285.155 726.565 291.69 726.337 293.964C726.328 294.276 726.05 301.656 720.661 304.57C720.467 304.686 700.782 316.267 655.002 324.103C654.495 324.185 604.062 332.243 583.122 333.511C582.651 333.552 535.828 337.364 516.795 336.719C515.237 336.719 478.584 336.704 475.01 335.431C474.842 335.406 470.911 334.804 469.796 332.367C469.479 331.673 469.418 330.92 469.61 330.115C459.546 335.087 451.251 339.216 451.219 339.231C442.581 342.93 411.239 354.932 400.768 358.929C412.361 358.9 445.014 358.651 445.44 358.649ZM503.933 297.643L524.237 297.29C524.771 297.281 525.253 297.001 525.527 296.542C525.8 296.085 525.816 295.527 525.57 295.054L514.35 273.509C513.814 272.483 512.762 271.811 511.604 271.759L484.961 270.563C492.593 280.708 501.23 292.549 503.933 297.643ZM484.067 270.522L480.559 270.364C480.185 270.364 479.855 270.561 479.676 270.893C479.498 271.223 479.516 271.608 479.719 271.922L495.844 296.519C496.348 297.286 497.196 297.742 498.113 297.742V298.084L498.16 297.742L503.168 297.656C500.332 292.463 491.647 280.59 484.067 270.522ZM570.649 321.948L573.051 315.037C561.173 315.69 549.193 316.181 536.973 316.581L534.132 323.386C546.272 323.034 558.463 322.577 570.649 321.948ZM603.852 319.701L605.684 312.762C595.057 313.671 584.459 314.401 573.786 314.996L571.386 321.905C582.235 321.34 593.068 320.619 603.852 319.701ZM609.36 319.242C617.257 318.516 625.165 317.564 633.053 316.407L635.236 309.508C626.581 310.7 617.689 311.708 608.441 312.527C607.763 312.588 607.084 312.642 606.405 312.699L604.571 319.638C606.166 319.504 607.767 319.389 609.36 319.242ZM660.27 311.559L662.347 305.002C653.765 306.694 645.003 308.154 635.984 309.409L633.804 316.296C642.671 314.98 651.509 313.402 660.27 311.559ZM668.744 309.698L671.902 308.973C675.883 308.059 679.892 307.134 683.889 306.146L686.149 299.929C681.287 301.089 676.453 302.101 671.796 303.069L668.029 303.856C666.398 304.2 664.751 304.523 663.109 304.849L661.033 311.403C663.611 310.856 666.183 310.288 668.744 309.698ZM704.06 300.189L706.023 293.933C699.864 296.331 693.387 298.176 686.94 299.737L684.683 305.947C691.254 304.308 697.773 302.472 704.06 300.189ZM698.712 288.893C697.649 289.146 696.606 289.393 695.591 289.646C692.951 290.304 690.243 290.937 687.508 291.556L685.744 298.622C691.924 297.148 698.135 295.423 704.073 293.209L706.048 287.007C703.578 287.733 701.083 288.33 698.712 288.893ZM668.047 295.513C666.74 295.748 665.421 295.979 664.095 296.205L661.544 303.772C663.62 303.365 665.693 302.952 667.751 302.517L671.522 301.731C675.899 300.82 680.435 299.872 684.997 298.798L686.766 291.721C680.704 293.085 674.454 294.36 668.047 295.513ZM637.009 300.105L634.865 308.188C643.728 306.972 652.339 305.565 660.77 303.931L663.331 296.336C655.126 297.726 646.512 298.963 637.009 300.105ZM608.441 303.038C608.22 303.058 607.998 303.074 607.774 303.094L605.41 311.419C606.381 311.335 607.351 311.258 608.321 311.173C617.22 310.386 625.787 309.42 634.132 308.288L636.281 300.191C627.816 301.199 618.652 302.133 608.441 303.038ZM573.813 305.681L571.343 313.764C582.509 313.164 593.584 312.421 604.684 311.482L607.048 303.155C595.957 304.125 584.866 304.971 573.813 305.681ZM570.617 313.8L573.087 305.726C561.433 306.467 549.826 307.064 538.312 307.51L534.224 315.306C546.562 314.917 558.646 314.437 570.617 313.8ZM533.44 315.331L537.527 307.537C536.853 307.562 536.183 307.582 535.509 307.607L535.491 307.648L535.405 307.612C528.952 307.849 522.52 308.048 516.132 308.19C509.129 310.766 504.763 313.106 504.621 313.178C504.103 313.361 502.356 314.141 497.945 316.253C510.086 315.982 521.88 315.692 533.44 315.331ZM535.36 306.25L536.932 302.653C530.797 303.662 525.174 305.158 520.394 306.714C525.362 306.587 530.352 306.434 535.36 306.25ZM537.731 302.522L536.113 306.223C547.539 305.798 559.058 305.226 570.626 304.509L572.105 299.807C561.964 300.797 555.079 301.441 554.819 301.466C548.896 301.229 543.128 301.681 537.731 302.522ZM572.843 299.734L571.354 304.464C582.454 303.77 593.597 302.94 604.747 301.982L606.955 296.273C594.634 297.575 582.378 298.8 572.843 299.734ZM607.717 296.191L605.503 301.918C606.444 301.837 607.383 301.765 608.324 301.681C617.94 300.831 626.619 299.951 634.666 299.011L636.281 292.992C627.701 294.027 617.709 295.133 607.717 296.191ZM637.007 292.902L635.392 298.923C644.802 297.812 653.346 296.614 661.449 295.271L663.695 288.689C659.555 289.53 656.839 290.105 656.728 290.127C652.577 290.903 645.524 291.866 637.007 292.902ZM664.469 288.533L662.211 295.142C664.095 294.826 665.959 294.505 667.803 294.172C673.682 293.114 679.426 291.95 685.018 290.713L686.857 284.258C678.88 285.664 670.4 287.333 664.469 288.533ZM687.603 284.127L685.773 290.546C688.99 289.829 692.17 289.094 695.258 288.325C696.278 288.072 697.328 287.821 698.393 287.57C700.235 287.134 702.153 286.67 704.073 286.15L705.603 281.617C701.748 281.814 694.941 282.845 687.603 284.127ZM706.333 281.588L704.867 285.931C708.333 284.956 711.744 283.733 714.685 282.015C713.201 281.481 711.669 281.325 710.412 281.325C708.81 281.325 707.656 281.57 707.627 281.576C707.568 281.59 707.5 281.597 707.446 281.59C707.129 281.576 706.745 281.579 706.333 281.588ZM716.169 282.718C713.38 284.486 710.152 285.755 706.84 286.765L704.885 292.904C710.011 290.948 714.909 288.612 719.381 285.743C719.082 285.402 718.781 285.065 718.481 284.737C717.818 283.858 717.019 283.213 716.169 282.718ZM720.281 286.788C716.108 289.483 711.577 291.717 706.842 293.607L704.867 299.895C711.391 297.475 717.644 294.548 723.414 290.819C722.573 289.607 721.464 288.19 720.281 286.788ZM724.163 291.959C718.589 295.56 712.592 298.427 706.344 300.804L703.293 310.58C714.601 306.54 719.87 303.454 719.983 303.388C724.701 300.835 724.968 293.991 724.973 293.876C725.009 293.523 724.701 292.838 724.163 291.959ZM702.49 310.87L705.537 301.104C699.09 303.508 692.394 305.418 685.646 307.114L684.004 316.497C691.349 314.562 697.486 312.631 702.49 310.87ZM683.28 316.685L684.925 307.293C680.686 308.349 676.431 309.33 672.207 310.3L669.052 311.026C667.079 311.48 665.1 311.914 663.118 312.344L660.263 321.777C668.948 320.16 676.605 318.424 683.28 316.685ZM659.508 321.917L662.354 312.511C653.457 314.422 644.476 316.052 635.462 317.42L633.722 325.971C645.598 324.225 654.565 322.792 654.776 322.76C656.391 322.484 657.961 322.202 659.508 321.917ZM633.008 326.077L634.745 317.528C626.337 318.79 617.904 319.825 609.484 320.601C608.217 320.718 606.942 320.807 605.673 320.917L603.318 330.122C613.126 328.921 623.873 327.415 633.008 326.077ZM602.594 330.21L604.955 320.978C594.595 321.874 584.187 322.579 573.764 323.144L569.647 333.161C577.455 332.609 582.859 332.168 583.025 332.157C588.157 331.842 595.075 331.121 602.594 330.21ZM568.886 333.213L573.008 323.185C560.829 323.836 548.641 324.32 536.502 324.684L532.023 335.238C544.096 334.852 558.474 333.945 568.886 333.213ZM531.275 335.261L535.754 324.705C522.043 325.112 508.4 325.396 494.923 325.672C489.243 325.788 483.565 325.905 477.887 326.032C477.326 326.308 476.758 326.586 476.175 326.875L472.761 328.56C472.329 328.772 471.899 328.985 471.472 329.195C470.859 330.215 470.71 331.092 471.033 331.8C471.7 333.265 474.272 333.945 475.333 334.115C478.224 335.134 506.24 335.358 516.815 335.358C520.688 335.487 525.724 335.433 531.275 335.261ZM494.896 324.311C507.604 324.051 520.464 323.778 533.385 323.409L536.226 316.608C522.833 317.042 509.149 317.372 494.975 317.686C491.519 319.355 486.906 321.605 480.787 324.612C485.488 324.506 490.191 324.408 494.896 324.311ZM368.477 363.349C380.369 364.19 396.708 359.01 396.87 358.956C397.873 358.574 440.409 342.376 450.645 337.992C450.645 337.992 459.874 333.398 470.676 328.067C470.687 328.062 470.696 328.055 470.707 328.051C471.187 327.813 471.671 327.576 472.155 327.336L475.571 325.652C478.041 324.435 480.337 323.307 482.493 322.249C482.52 322.179 482.558 322.111 482.629 322.07C503.026 309.958 504.008 300.277 504.05 299.544C503.955 299.232 503.765 298.812 503.526 298.33L498.176 298.423C498.174 298.423 498.117 298.423 498.115 298.423C496.966 298.423 495.905 297.851 495.276 296.89L479.152 272.293C478.806 271.766 478.778 271.121 479.079 270.568C479.373 270.023 479.939 269.683 480.633 269.683H480.638L483.533 269.815C477.071 261.243 471.556 254.162 471.431 254.004L466.346 248.326L454.784 244.037C454.662 244.134 454.522 244.2 454.368 244.2C454.287 244.2 454.203 244.184 454.124 244.155L405.186 225.348L398.82 251.507L422.823 275.132C422.93 275.261 433.362 288.068 422.753 298.588L386.958 330.631C386.861 330.692 385.071 331.79 383.169 331.79C382.603 331.79 382.029 331.693 381.484 331.442C380.762 331.112 380.199 330.54 379.771 329.776L377.758 338.049C377.724 338.304 376.797 344.328 366.194 344.33H366.192C362.806 344.33 358.75 343.701 354.137 342.462C338.124 338.164 329.164 335.442 325.678 334.35C325.474 337.063 324.631 342.408 322.405 353.073L331.867 355.691C348.5 361.158 368.305 363.331 368.477 363.349ZM351.767 378.97C352.217 378.722 355.689 376.47 362.79 363.973C356.461 363.051 345.677 361.21 335.403 358.206C328.162 371.168 316.743 380.956 303.652 386.262C324.131 383.262 349.921 379.258 351.767 378.97ZM219.882 351.043C231.322 371.622 252.909 386.533 274.883 389.03C276.941 389.265 279.002 389.373 281.058 389.378C284.133 389.039 289.681 388.281 296.366 387.323C311.872 383.092 325.739 372.558 334.07 357.81C333.202 357.545 332.338 357.276 331.483 356.994L321.437 354.215C321.091 354.12 320.878 353.77 320.953 353.419C322.337 346.815 324.07 337.59 324.393 333.938C324.124 333.853 323.979 333.805 323.97 333.8L323.52 333.651L323.504 333.176C323.5 333.05 323.35 328.725 323.022 322.457C315.98 351.287 299.08 365.904 272.725 365.902C272.65 365.902 272.569 365.902 272.494 365.902C260.711 365.863 249.645 360.84 240.497 351.368C227.277 337.685 219.81 316.088 220.525 293.6C221.667 257.603 236.966 240.811 249.595 233.062C263.285 224.663 276.916 224.803 277.039 224.796C288.935 225.181 300.363 230.67 309.475 240.318C306.258 230.519 302.094 220.442 296.823 212.126C283.395 204.158 265.97 204.619 250.17 213.374C236.536 220.928 225.63 232.526 218.123 247.123C218.1 247.214 218.057 247.295 218.005 247.365C213.687 255.821 210.495 265.268 208.586 275.53C203.763 301.416 207.988 329.645 219.882 351.043ZM58.064 278.513C59.5117 277.606 69.6255 271.038 70.587 264.443L44.9597 254.63C44.7177 254.537 44.548 254.313 44.5232 254.056C44.5141 253.94 44.3083 251.657 43.9667 247.978C43.4012 251.539 42.6185 255.071 41.5666 258.523C39.6777 264.718 35.8503 274.04 29.2948 277.314L58.064 278.513ZM7.15125 230.336C7.32538 242.278 7.50635 254.63 11.6618 266.055C13.4217 270.893 17.317 276.317 22.979 277.05L24.6417 277.12C33.5792 276.754 38.5038 263.895 40.2637 258.128C41.9014 252.756 42.9465 247.2 43.3695 241.616C41.6254 223.254 38.3318 190.316 36.5221 183.303C35.7055 179.513 33.8574 172.674 31.3578 166.804C29.1025 165.07 26.8947 164.516 24.7932 165.167C18.6426 167.071 14.736 178.242 13.6863 181.62C11.9943 187.058 10.818 192.763 10.1462 198.643C12.5056 183.791 17.2628 173.847 22.8749 173.847C30.9054 173.847 37.194 194.198 37.194 220.179C37.194 246.16 30.9054 266.511 22.8749 266.511C14.8445 266.511 8.55597 246.16 8.55597 220.179C8.55597 215.39 8.77087 210.796 9.16901 206.482C9.08533 206.521 8.99249 206.543 8.89746 206.543C8.88843 206.543 8.87714 206.543 8.8681 206.543C8.49255 206.527 8.20081 206.211 8.21442 205.833C8.56726 197.257 9.96747 188.975 12.3834 181.218C13.485 177.68 17.6043 165.968 24.3883 163.867C26.3315 163.263 28.3198 163.485 30.3195 164.518C28.0483 159.802 25.3406 156.171 22.4316 156.119C22.2868 156.119 10.1575 156.376 7.08557 180.483C7.06519 180.77 5.18774 209.306 7.08337 226.196C7.08337 226.202 7.0788 226.209 7.0788 226.216C7.0788 226.232 7.08783 226.243 7.08783 226.259C7.11047 227.611 7.13086 228.972 7.15125 230.336ZM17.6088 215.323C17.679 214.543 17.7604 213.778 17.8667 213.041L13.9985 207.448C13.7994 209.053 13.6298 210.697 13.5077 212.386L17.6088 215.323ZM12.2183 211.461C12.3743 209.507 12.5757 207.595 12.8336 205.763L11.2569 203.482C10.9673 205.754 10.7388 208.124 10.5692 210.561C10.7524 210.52 10.9492 210.55 11.1121 210.667L12.2183 211.461ZM12.1165 202.331L13.571 204.436C14.3808 203.846 15.2314 203.324 16.0977 202.835C15.0482 199.071 15.5662 195.724 15.5911 195.577C15.6273 195.286 16.4302 189.12 18.991 183.59C18.9932 183.585 18.9955 183.581 18.9978 183.576C19.3167 182.887 19.6583 182.206 20.0338 181.55C20.2215 181.222 20.6355 181.112 20.9635 181.297C20.968 181.299 20.9703 181.304 20.9725 181.306L20.9047 179.113C20.8934 178.738 21.1897 178.423 21.5652 178.41C21.8774 178.428 22.2574 178.695 22.2687 179.07L22.4655 185.545C22.7867 185.512 23.1057 185.518 23.4247 185.566L23.6214 179.072C23.6328 178.697 23.9856 178.43 24.3227 178.412C24.6982 178.423 24.9946 178.738 24.9833 179.115L24.2186 204.205C24.2186 204.217 24.2186 204.226 24.2186 204.237L24.1802 205.524C24.1689 205.892 23.8658 206.184 23.4993 206.184C23.4925 206.184 23.4835 206.184 23.4789 206.184C23.2527 206.177 23.0627 206.053 22.9451 205.876C22.8275 206.05 22.6375 206.177 22.4113 206.184C22.4045 206.184 22.3977 206.184 22.3909 206.184C22.0245 206.184 21.7213 205.892 21.71 205.524L21.6014 201.929C21.4861 201.965 21.3752 202.012 21.2599 202.048L21.4363 205.458C21.4589 205.551 21.4657 205.646 21.4498 205.738L21.5674 208.022C21.5878 208.4 21.2983 208.718 20.9228 208.739C20.9114 208.741 20.8979 208.741 20.8866 208.741C20.631 208.741 20.4116 208.596 20.2939 208.384C20.2555 208.497 20.2193 208.61 20.1831 208.727L20.6807 209.756C20.8436 210.095 20.7033 210.502 20.364 210.667C20.269 210.715 20.1672 210.735 20.0677 210.735C19.8144 210.735 19.5723 210.595 19.4525 210.351L16.9212 205.119C16.7742 204.798 16.6429 204.479 16.523 204.158C15.7787 204.59 15.0459 205.046 14.3447 205.557C14.3424 205.557 14.3423 205.557 14.3423 205.557L19.0882 212.422C19.1108 212.449 19.1266 212.476 19.147 212.505L19.4954 213.012C19.7103 213.319 19.6311 213.744 19.3212 213.959C19.2579 214.004 19.1832 214.004 19.1108 214.025C19.0226 214.751 18.9479 215.49 18.8937 216.25L18.9321 216.277C18.9321 216.265 18.9321 216.252 18.9321 216.241C19.0859 214.681 19.7329 214.448 20.1039 214.448C20.3482 214.448 20.5812 214.554 20.7622 214.748C21.2463 215.264 21.3661 216.501 21.2757 217.428C21.1218 218.988 20.4749 219.221 20.1039 219.221C19.8619 219.221 19.6289 219.114 19.4457 218.92C19.1561 218.61 19.009 218.04 18.9457 217.434C18.8372 217.504 18.715 217.55 18.5883 217.55C18.4504 217.55 18.3123 217.509 18.1924 217.421L10.4742 211.895C10.3136 214.586 10.2276 217.355 10.2276 220.179C10.2276 231.523 11.5917 242.005 13.7745 249.8C13.7769 249.785 13.7723 249.769 13.7769 249.753L18.853 231.021C18.8552 230.989 18.8711 230.96 18.8779 230.928L19.1448 229.947C19.2421 229.583 19.6153 229.372 19.9818 229.467C20.3459 229.567 20.5585 229.94 20.4613 230.304L20.2532 231.073C20.3188 231.274 20.3889 231.459 20.4568 231.647C20.5699 231.604 20.6898 231.577 20.821 231.597C21.192 231.663 21.4385 232.015 21.3729 232.386L18.3191 249.595C18.3123 249.649 18.3101 249.703 18.2897 249.753L17.3509 255.041C17.5455 254.831 17.8553 254.754 18.1313 254.883C18.2354 254.931 18.3327 254.958 18.4323 254.996L18.8348 252.321C18.8348 252.278 18.8439 252.24 18.853 252.199L21.3978 235.265C21.4 235.246 21.4024 235.228 21.4069 235.208L21.6309 233.718C21.6874 233.347 22.0289 233.089 22.4067 233.146C22.5651 233.171 22.6963 233.255 22.798 233.363C22.9066 233.232 23.0604 233.137 23.2437 233.117C23.6169 233.067 23.9585 233.336 24.0037 233.709L25.1167 242.823C25.9944 250.531 24.4742 253.045 24.4449 253.088C23.7572 254.481 22.004 256.59 19.5745 256.59C19.4094 256.59 19.2307 256.552 19.0588 256.531C19.0385 256.534 19.0181 256.543 18.9978 256.543C18.9639 256.543 18.9299 256.54 18.8959 256.536C18.8643 256.531 18.8372 256.513 18.8077 256.504C18.4051 256.432 17.9934 256.321 17.5613 256.12C17.3397 256.018 17.213 255.81 17.1836 255.584C17.0569 255.756 16.8601 255.869 16.6384 255.869C16.6 255.869 16.5592 255.864 16.5185 255.858C16.1475 255.792 15.9009 255.439 15.9665 255.068L16.937 249.601C16.5706 248.873 16.2199 248.073 15.8829 247.209L15.098 250.108C15.0165 250.411 14.7405 250.612 14.4419 250.612C14.3831 250.612 14.322 250.603 14.2632 250.587C14.1297 250.551 14.0257 250.47 13.942 250.375C16.2493 258.322 19.4253 263.326 22.8727 263.326C26.2862 263.326 29.435 258.419 31.7355 250.605C31.6473 250.734 31.5207 250.84 31.3578 250.883C31.299 250.899 31.2379 250.908 31.1791 250.908C30.8782 250.908 30.6046 250.709 30.5231 250.406L29.7404 247.517C29.4011 248.365 29.046 249.149 28.6772 249.859L29.6545 255.367C29.7201 255.738 29.4734 256.09 29.1025 256.156C29.0618 256.163 29.0211 256.167 28.9826 256.167C28.6592 256.167 28.3718 255.937 28.313 255.604L24.2458 232.685C24.1802 232.314 24.4268 231.961 24.7977 231.896C24.9335 231.873 25.0579 231.9 25.1732 231.948C25.2411 231.771 25.3112 231.599 25.3768 231.41L25.1574 230.598C25.0579 230.234 25.2728 229.861 25.637 229.761C26.0035 229.662 26.3745 229.877 26.4739 230.241L30.8873 246.524C31.0456 245.448 31.1791 244.403 31.2967 243.384L25.9944 226.352C25.8835 225.992 26.0826 225.61 26.4423 225.499C26.8019 225.384 27.1843 225.59 27.2951 225.947L28.46 229.691C28.8401 228.877 29.1477 228.034 29.3174 227.15C29.3898 226.779 29.7472 226.537 30.1159 226.609C30.4869 226.682 30.7267 227.037 30.6566 227.408C30.41 228.687 29.9666 229.913 29.3333 231.048C29.2518 231.195 29.1183 231.281 28.9713 231.337L31.0004 237.853C31.4257 235.59 31.7672 233.178 32.0183 230.641C32.0048 228.534 31.9188 227.306 31.9166 227.267C31.8645 226.033 31.4754 223.819 30.6543 223.141C30.4597 222.981 30.2652 222.933 30.0751 222.953L27.0983 223.618C26.7296 223.697 26.3654 223.469 26.2839 223.103C26.2025 222.736 26.4332 222.37 26.7997 222.289L29.8241 221.615C30.4417 221.527 31.032 221.687 31.5206 222.094C33.0724 223.379 33.2579 226.824 33.2737 227.193C33.276 227.224 33.3643 228.509 33.3779 230.709C33.3779 230.711 33.3779 230.713 33.3779 230.715C33.3779 230.718 33.3779 230.72 33.3779 230.722C33.3937 233.603 33.2761 238.057 32.6653 243.381C32.6653 243.395 32.663 243.409 32.6607 243.422C32.5295 244.553 32.3825 245.713 32.2038 246.913C32.1541 247.252 31.8622 247.494 31.5297 247.494C31.4958 247.494 31.4642 247.492 31.4302 247.487C31.299 247.469 31.1927 247.404 31.0977 247.325L31.8351 250.049C31.851 250.106 31.8442 250.16 31.8464 250.214C34.0994 242.378 35.511 231.724 35.511 220.181C35.511 217.527 35.4318 214.925 35.2916 212.39L33.5203 213.659C33.4434 213.76 33.3372 213.833 33.2127 213.878L27.5914 217.902C27.4715 217.988 27.3336 218.031 27.1956 218.031C27.0259 218.031 26.8675 217.952 26.7408 217.832C26.6572 218.282 26.5169 218.685 26.293 218.927C26.112 219.119 25.879 219.225 25.637 219.225C25.266 219.225 24.619 218.992 24.4652 217.432C24.3725 216.505 24.4946 215.268 24.9787 214.753C25.1597 214.558 25.3927 214.452 25.637 214.452C26.008 214.452 26.6527 214.685 26.8088 216.245C26.8246 216.412 26.8268 216.596 26.8268 216.779L32.2739 212.879C32.1608 211.185 31.998 209.532 31.8057 207.918L27.415 214.267C27.2838 214.459 27.0712 214.561 26.854 214.561C26.7205 214.561 26.5848 214.522 26.4672 214.439C26.1573 214.224 26.0803 213.801 26.293 213.491L33.6765 202.813C33.8325 202.584 34.1039 202.485 34.3573 202.532C32.3395 187.655 27.8923 177.037 22.8704 177.037C17.9029 177.037 13.4963 187.429 11.4469 202.055C11.7025 202.01 11.9649 202.107 12.1165 202.331ZM19.3529 207C19.5791 206.435 19.8212 205.931 20.0768 205.492L19.923 202.516C19.1787 202.806 18.4503 203.125 17.7378 203.484C17.8644 203.835 18.0001 204.185 18.1608 204.533L19.3529 207ZM19.8483 201.099L19.1131 186.918C17.507 191.433 16.9528 195.693 16.9437 195.767C16.937 195.804 16.4755 198.799 17.3306 202.161C18.145 201.761 18.9909 201.415 19.8483 201.099ZM21.2236 200.615C21.339 200.581 21.4543 200.588 21.5652 200.61L21.0178 182.602C20.7734 183.047 20.5427 183.502 20.3256 183.963L21.1897 200.624C21.201 200.624 21.21 200.619 21.2236 200.615ZM22.9496 201.314L23.3884 186.927C23.0966 186.868 22.8048 186.861 22.5107 186.902L22.9496 201.314ZM19.7917 233.539C19.7487 233.453 19.708 233.356 19.665 233.266L16.5095 244.908C16.7809 245.733 17.0637 246.511 17.36 247.232L19.7917 233.539ZM23.7685 242.981L22.9406 236.198C22.9179 236.198 22.8976 236.205 22.8749 236.205C22.798 236.205 22.7256 236.182 22.6487 236.176L20.2555 252.1C21.0336 252.909 21.8209 253.357 22.6035 253.443C22.9949 252.936 23.2211 252.5 23.2573 252.432C23.2686 252.407 24.5783 250.088 23.7685 242.981ZM20.0089 253.73L19.7872 255.206C20.4342 255.157 20.9997 254.899 21.4748 254.555C20.9771 254.372 20.4862 254.11 20.0089 253.73ZM34.5474 203.948L32.9797 206.215C33.2308 208.058 33.4208 209.984 33.5678 211.945L34.683 211.144C34.8414 211.029 35.0337 210.997 35.2101 211.031C35.0496 208.594 34.8278 206.224 34.5474 203.948ZM25.9537 233.537C25.9106 233.621 25.8699 233.713 25.827 233.793L28.2632 247.528C28.5618 246.82 28.8514 246.058 29.1251 245.245L25.9537 233.537ZM22.8749 264.687C19.5339 264.687 16.5049 261.139 14.123 255.15C16.4937 261.809 19.5452 265.828 22.8749 265.828C26.2048 265.828 29.2563 261.809 31.627 255.15C29.245 261.137 26.2138 264.687 22.8749 264.687ZM22.8749 175.667C26.2161 175.667 29.245 179.215 31.627 185.204C29.2563 178.545 26.2048 174.525 22.8749 174.525C19.5452 174.525 16.4914 178.545 14.123 185.204C16.5027 179.217 19.5339 175.667 22.8749 175.667ZM2.10901 216.073C2.47998 218.673 4.18787 221.726 5.4682 223.72C4.00006 206.548 5.70575 180.659 5.72839 180.345C8.97449 154.88 21.8978 154.728 22.4497 154.751C31.7017 154.918 37.6079 181.865 37.8477 182.986C40.3134 192.539 45.3171 247.65 45.8442 253.508L206.604 315.061C204.656 301.977 204.808 288.332 207.237 275.282C209.176 264.856 212.424 255.261 216.82 246.671C217.243 244.72 217.65 242.753 218.055 240.779C220.086 230.901 222.185 220.686 226.893 211.603C232.066 201.619 238.931 193.866 246.749 189.186C265.05 178.222 281.065 190.716 290.061 200.85C290.204 200.925 290.31 201.051 290.371 201.198C292.769 203.932 294.64 206.462 295.898 208.286L306.55 204.156C298.689 188.801 285.053 176.255 271.63 172.102C262.299 169.217 253.278 170.137 244.813 174.846C227.66 184.386 216.46 205.804 211.529 238.502C211.411 239.285 211.291 240.128 211.219 240.983C211.203 241.17 211.042 241.31 210.85 241.292C210.662 241.276 210.524 241.111 210.54 240.924C210.617 240.049 210.737 239.194 210.857 238.4C215.822 205.481 227.135 183.897 244.483 174.25C253.115 169.45 262.317 168.509 271.834 171.45C285.449 175.663 299.268 188.381 307.201 203.93L390.068 187.553L343.178 144.452C338.909 140.527 338.918 135.379 338.925 130.4C338.927 128.885 338.918 127.327 338.796 125.833L301.942 105.075C300.243 104.837 284.671 102.434 277.604 93.0825C277.369 92.7388 254.085 58.7065 250.224 52.075L249.885 51.5278C243.77 41.6134 237.445 31.3621 230.467 21.8569C225.526 15.126 220.568 10.2423 215.732 7.33689C210.015 3.90472 202.806 2.16602 194.298 2.16602C194.269 2.16602 194.239 2.16602 194.21 2.16602C171.329 2.19767 148.276 8.36564 129.302 19.5349C124.404 22.4177 119.548 25.5989 114.852 28.6738C114.189 29.1079 113.521 29.5307 112.859 29.9648C121.065 25.7888 130.281 21.1832 130.462 21.0927L145.546 15.1056C148.125 14.1402 162.344 10.8392 162.986 10.6922C177.244 8.27746 192.106 7.01809 204.197 14.0972C209.429 17.1609 214.101 21.7823 218.901 28.6376L219.627 29.6799C229.053 43.2956 236.823 58.1209 242.725 73.7398C245.738 81.7165 248.192 88.9268 250.231 95.8002C250.393 96.4129 254.167 110.854 247.889 116.463L238.429 127.04C238.298 127.187 238.113 127.269 237.92 127.269C237.866 127.269 237.812 127.262 237.757 127.248L223.493 123.723L223.486 123.721C223.341 123.68 223.151 123.739 222.923 123.884C217.353 127.452 207.28 167.41 206.369 172.192C202.813 190.838 201.675 210.129 200.576 228.782L200.539 229.372C200.22 234.769 199.657 240.307 199.11 245.661C197.922 257.311 196.694 269.36 197.872 280.997C199.18 293.912 194.418 297.351 194.215 297.494C194.099 297.573 193.963 297.613 193.828 297.613C193.742 297.613 193.656 297.598 193.574 297.564C170.32 288.244 146.537 279.177 123.538 270.409C105.86 263.672 87.5797 256.703 69.6617 249.667C68.9876 249.4 68.214 249.122 67.377 248.819C62.095 246.906 54.8632 244.284 53.3611 239.106L52.3862 235.744C41.7068 198.985 29.6024 157.322 38.463 119.941C39.7795 114.39 41.5938 108.799 43.1976 103.867C43.6206 102.563 43.8242 100.589 44.0233 98.6829C44.2902 96.1054 44.5413 93.6703 45.3104 92.2233C45.4664 91.9271 45.6429 91.6354 45.8284 91.346L31.55 85.5964H31.2402L30.1295 88.5108C29.2744 90.9052 25.3768 97.2043 22.7393 99.68C20.2216 102.045 13.3855 109.499 13.3583 109.524C7.6059 117.139 5.65369 132.125 5.61523 132.372C4.40277 136.765 2.42566 163.79 2.59308 173.684C2.7514 183.034 2.91205 199.645 2.91431 199.812C2.91431 199.916 2.89166 200.02 2.84644 200.115C0.758545 204.447 1.42584 211.296 2.10901 216.073Z" fill="url(#paint21_linear)"/>
<path d="M32.1387 101.303C32.1658 101.257 32.1884 101.208 32.2042 101.156L34.9165 92.6567C35.1925 91.793 35.9865 91.2119 36.8935 91.2119C37.2736 91.2119 37.6491 91.3182 37.9748 91.5194L41.1915 93.491C41.8656 93.9047 42.2412 94.6486 42.1733 95.4354L41.4246 104.147C41.3929 104.52 41.2594 104.88 41.04 105.185L30.1412 120.252C29.7522 120.79 29.1255 121.111 28.4605 121.111C28.033 121.111 27.6213 120.982 27.2706 120.736L24.0676 118.488C23.1808 117.867 22.9229 116.655 23.4794 115.726L32.1387 101.303ZM24.8525 117.372L28.0556 119.617C28.3678 119.836 28.8179 119.757 29.0396 119.452L39.9383 104.384C40.013 104.28 40.0583 104.158 40.0696 104.029L40.8183 95.3156C40.8409 95.0465 40.712 94.7911 40.4812 94.6486L37.2623 92.677C37.1492 92.6069 37.0248 92.5708 36.8935 92.5708C36.6357 92.5708 36.3235 92.7245 36.215 93.0659L33.5027 101.569C33.4529 101.723 33.3851 101.87 33.3059 102.004L24.6489 116.422C24.4611 116.743 24.5493 117.159 24.8525 117.372Z" fill="url(#paint22_linear)"/>
<path d="M61.8776 112.771C60.6086 116.213 57.2788 116.583 55.9057 116.583C55.3402 116.583 54.976 116.527 54.9421 116.522C54.7769 116.735 54.6073 116.943 54.4444 117.16C53.7861 118.037 53.1075 118.944 52.171 119.595C51.8995 119.785 51.0536 120.312 50.1216 120.312C49.9338 120.312 49.7392 120.289 49.547 120.239C48.2621 119.9 48.2599 118.413 48.2576 117.495C48.2554 116.898 48.2327 116.301 48.2101 115.702C48.2056 115.593 48.2033 115.485 48.1988 115.374C48.1943 115.372 48.1874 115.374 48.1829 115.369C46.7963 114.587 45.9164 113.533 45.568 112.24C44.9821 110.058 46.1607 108.012 46.172 108.012C47.2465 105.238 50.0062 104.496 51.4697 104.496C51.7842 104.496 52.7433 104.496 52.922 105.208C53.0283 105.636 52.7998 105.991 52.5985 106.303C52.5555 106.368 52.499 106.456 52.4537 106.536C52.4605 106.538 52.4673 106.54 52.4741 106.542C52.7162 106.624 53.1618 106.694 53.7115 106.755C54.0191 106.156 54.1096 105.448 54.191 104.702C54.286 103.859 54.3833 102.984 54.829 102.219C55.3606 101.308 56.1274 100.761 56.8829 100.759C56.8852 100.759 56.8875 100.759 56.8875 100.759C57.3376 100.759 57.9801 100.949 58.5162 101.851C59.3486 103.248 59.2582 104.844 59.1699 106.386C59.1564 106.64 59.1518 106.884 59.1405 107.13C61.7691 107.795 62.1174 110.967 61.9115 112.613C61.907 112.672 61.8957 112.724 61.8776 112.771ZM48.9385 117.526C48.9408 118.539 49.0018 119.394 49.7212 119.584C50.4021 119.765 51.2322 119.419 51.7819 119.037C52.6279 118.451 53.2749 117.587 53.8992 116.753C54.0304 116.577 54.1684 116.409 54.3019 116.237C53.2071 115.672 50.4338 114.227 49.2145 113.438C49.1738 113.782 49.1624 114.279 49.1963 114.732C49.2144 114.983 49.0946 115.222 48.882 115.358H48.8797L48.891 115.679C48.9136 116.285 48.9385 116.891 48.9385 117.526ZM57.9325 102.206C57.6339 101.702 57.2833 101.446 56.892 101.446H56.8875C56.3853 101.448 55.822 101.878 55.4194 102.57C55.0461 103.21 54.9624 103.974 54.8719 104.783C54.795 105.477 54.7023 106.183 54.4309 106.832C55.6682 106.938 57.2064 107.008 58.4664 107.047C58.4755 106.816 58.48 106.59 58.4936 106.357C58.5727 104.914 58.6586 103.424 57.9325 102.206ZM58.765 108.41C58.2176 108.399 53.3857 108.288 52.0443 107.84C51.5466 107.673 51.2255 107.399 51.0943 107.024C50.9427 106.592 51.092 106.19 51.2707 105.869C50.1193 105.932 48.2056 106.545 47.398 108.607C47.3867 108.622 46.4457 110.268 46.889 111.899C47.0474 112.48 47.3663 112.998 47.8413 113.452C47.8934 112.932 48.0178 112.435 48.2847 112.147C48.6399 111.763 49.2077 111.731 49.685 112.104C50.4133 112.67 53.8449 114.469 55.2429 115.186C55.3673 115.2 55.6026 115.22 55.9057 115.22C57.2426 115.22 59.611 114.849 60.5679 112.378C60.6176 111.86 60.8099 108.783 58.765 108.41Z" fill="url(#paint23_linear)"/>
<path d="M22.8746 225.239C21.7074 225.239 21.0989 222.693 21.0989 220.177C21.0989 217.66 21.7097 215.114 22.8746 215.114C24.0419 215.114 24.6504 217.66 24.6504 220.177C24.6504 222.693 24.0396 225.239 22.8746 225.239ZM22.8746 215.795C22.5037 215.795 21.7798 217.341 21.7798 220.177C21.7798 223.012 22.5037 224.558 22.8746 224.558C23.2456 224.558 23.9695 223.012 23.9695 220.177C23.9673 217.341 23.2456 215.795 22.8746 215.795Z" fill="url(#paint24_linear)"/>
<path d="M27.1914 191.354C27.5691 191.157 27.9311 191.194 28.1754 191.298C28.3563 191.361 28.7409 191.546 29.2612 192.028C29.3449 192.08 29.415 192.148 29.4715 192.234C30.3945 193.17 31.6771 195.012 33.0321 198.605C33.0343 198.614 33.0389 198.621 33.0411 198.63C33.3239 199.381 33.6089 200.194 33.8962 201.108C34.0093 201.465 33.808 201.85 33.4506 201.96C33.0909 202.08 32.7086 201.874 32.5955 201.515C32.4734 201.128 32.3535 200.769 32.2336 200.414L31.9282 200.938C31.9101 200.977 31.8897 201.013 31.8649 201.049L26.3544 210.563C26.2277 210.783 25.9993 210.903 25.764 210.903C25.6487 210.903 25.531 210.873 25.4225 210.81C25.0967 210.62 24.9858 210.204 25.1736 209.878L25.6577 209.044C25.6125 208.895 25.5694 208.748 25.5242 208.603C25.4066 208.811 25.1872 208.954 24.9361 208.954C24.918 208.954 24.8999 208.954 24.8841 208.951C24.5086 208.922 24.228 208.594 24.2574 208.219L24.4316 205.937C24.4203 205.847 24.4271 205.757 24.452 205.671L24.9858 198.695C25.3523 194.332 26.0739 191.931 27.1914 191.354ZM31.521 198.476C31.5481 198.58 31.5708 198.693 31.5957 198.799L31.6273 198.745C31.5934 198.653 31.5572 198.567 31.521 198.476ZM25.8138 205.741C26.0853 206.243 26.3386 206.821 26.5739 207.468L30.5981 200.52C29.9692 197.642 29.2137 195.125 28.3473 193.034C28.0352 192.745 27.8293 192.629 27.7682 192.6C27.5691 192.781 26.7616 193.809 26.3409 198.809L25.8138 205.741Z" fill="url(#paint25_linear)"/>
<path d="M19.2935 227.226C19.2935 227.229 19.2912 227.231 19.2912 227.233L17.4295 232.354C16.6355 234.439 15.8597 235.375 14.9209 235.375C14.9005 235.375 14.8824 235.375 14.8621 235.375C13.6926 235.328 13.1836 233.772 13.1044 233.501C13.023 233.27 11.0866 227.728 10.4306 215.413C10.4103 215.037 10.6998 214.716 11.0753 214.696C11.4463 214.669 11.7698 214.965 11.7924 215.34C11.8535 216.507 11.9327 217.595 12.0141 218.641L12.4868 218.87C12.5072 218.868 12.5276 218.856 12.5479 218.854C12.7832 218.856 12.98 218.983 13.0999 219.164L18.176 221.603C18.3593 221.603 18.5266 221.689 18.6488 221.829L19.0492 222.022C19.3885 222.184 19.531 222.591 19.3682 222.931C19.2732 223.125 19.0944 223.231 18.8976 223.276C18.918 223.584 18.9338 223.901 18.9609 224.199C18.9903 224.52 19.0401 224.823 19.0763 225.14C19.1532 225.14 19.2324 225.146 19.3094 225.173C19.6622 225.302 19.8455 225.693 19.7165 226.046L19.2935 227.226ZM14.4006 233.08C14.516 233.48 14.792 233.96 14.9005 234.012C14.9051 234.009 15.3891 233.871 16.1492 231.877L17.934 226.973C17.8028 226.114 17.6874 225.225 17.606 224.321C17.5607 223.821 17.5313 223.306 17.4996 222.788L13.2379 220.74C13.2537 224.086 13.4075 227.385 13.7174 230.548C13.7174 230.55 13.7174 230.552 13.7174 230.557C14.102 232.219 14.3893 233.044 14.4006 233.08Z" fill="url(#paint26_linear)"/>
<path d="M22.8743 212.614C21.7612 212.614 21.6729 210.786 21.6729 210.226C21.6729 209.665 21.7589 207.84 22.8743 207.84C23.9897 207.84 24.0757 209.665 24.0757 210.226C24.0734 210.786 23.9874 212.614 22.8743 212.614Z" fill="url(#paint27_linear)"/>
<path d="M24.5803 225.13C24.9513 225.13 25.44 225.345 25.6663 226.367C25.8676 227.274 25.802 228.474 25.5146 229.16C25.2432 229.806 24.8133 229.904 24.5803 229.904C24.2092 229.904 23.7205 229.689 23.4943 228.667C23.2952 227.76 23.3608 226.559 23.6459 225.876C23.9174 225.227 24.3472 225.13 24.5803 225.13Z" fill="url(#paint28_linear)"/>
<path d="M22.1017 225.875C22.3868 226.56 22.4524 227.761 22.2533 228.668C22.0271 229.69 21.5384 229.905 21.1673 229.905C20.9343 229.905 20.5044 229.807 20.2329 229.161C19.9479 228.475 19.8822 227.275 20.0813 226.368C20.3076 225.346 20.7963 225.131 21.1673 225.131C21.4004 225.129 21.8302 225.226 22.1017 225.875Z" fill="url(#paint29_linear)"/>
<defs>
<linearGradient id="paint0_linear" x1="435.773" y1="173.952" x2="435.773" y2="193.008" gradientUnits="userSpaceOnUse">
<stop/>
<stop offset="1" stop-color="#0047FF"/>
</linearGradient>
<linearGradient id="paint1_linear" x1="613.956" y1="217.41" x2="613.956" y2="253.405" gradientUnits="userSpaceOnUse">
<stop/>
<stop offset="1" stop-color="#0047FF"/>
</linearGradient>
<linearGradient id="paint2_linear" x1="642.526" y1="210.486" x2="642.526" y2="245.459" gradientUnits="userSpaceOnUse">
<stop/>
<stop offset="1" stop-color="#0047FF"/>
</linearGradient>
<linearGradient id="paint3_linear" x1="274.756" y1="287.796" x2="274.756" y2="302.899" gradientUnits="userSpaceOnUse">
<stop/>
<stop offset="1" stop-color="#0047FF"/>
</linearGradient>
<linearGradient id="paint4_linear" x1="277.072" y1="231.782" x2="277.072" y2="273.699" gradientUnits="userSpaceOnUse">
<stop/>
<stop offset="1" stop-color="#0047FF"/>
</linearGradient>
<linearGradient id="paint5_linear" x1="244.119" y1="266.607" x2="244.119" y2="290.443" gradientUnits="userSpaceOnUse">
<stop/>
<stop offset="1" stop-color="#0047FF"/>
</linearGradient>
<linearGradient id="paint6_linear" x1="258.918" y1="235.928" x2="258.918" y2="280.217" gradientUnits="userSpaceOnUse">
<stop/>
<stop offset="1" stop-color="#0047FF"/>
</linearGradient>
<linearGradient id="paint7_linear" x1="299.486" y1="252.092" x2="299.486" y2="281.197" gradientUnits="userSpaceOnUse">
<stop/>
<stop offset="1" stop-color="#0047FF"/>
</linearGradient>
<linearGradient id="paint8_linear" x1="300.574" y1="298.758" x2="300.574" y2="337.764" gradientUnits="userSpaceOnUse">
<stop/>
<stop offset="1" stop-color="#0047FF"/>
</linearGradient>
<linearGradient id="paint9_linear" x1="267.097" y1="315.426" x2="267.097" y2="350.196" gradientUnits="userSpaceOnUse">
<stop/>
<stop offset="1" stop-color="#0047FF"/>
</linearGradient>
<linearGradient id="paint10_linear" x1="244.746" y1="285.875" x2="244.746" y2="317.199" gradientUnits="userSpaceOnUse">
<stop/>
<stop offset="1" stop-color="#0047FF"/>
</linearGradient>
<linearGradient id="paint11_linear" x1="293.662" y1="310.666" x2="293.662" y2="350.684" gradientUnits="userSpaceOnUse">
<stop/>
<stop offset="1" stop-color="#0047FF"/>
</linearGradient>
<linearGradient id="paint12_linear" x1="253.299" y1="309.468" x2="253.299" y2="348.699" gradientUnits="userSpaceOnUse">
<stop/>
<stop offset="1" stop-color="#0047FF"/>
</linearGradient>
<linearGradient id="paint13_linear" x1="275.245" y1="276.873" x2="275.245" y2="283.446" gradientUnits="userSpaceOnUse">
<stop/>
<stop offset="1" stop-color="#0047FF"/>
</linearGradient>
<linearGradient id="paint14_linear" x1="285.573" y1="287.306" x2="285.573" y2="293.868" gradientUnits="userSpaceOnUse">
<stop/>
<stop offset="1" stop-color="#0047FF"/>
</linearGradient>
<linearGradient id="paint15_linear" x1="280.979" y1="303.511" x2="280.979" y2="310.05" gradientUnits="userSpaceOnUse">
<stop/>
<stop offset="1" stop-color="#0047FF"/>
</linearGradient>
<linearGradient id="paint16_linear" x1="267.813" y1="303.097" x2="267.813" y2="309.624" gradientUnits="userSpaceOnUse">
<stop/>
<stop offset="1" stop-color="#0047FF"/>
</linearGradient>
<linearGradient id="paint17_linear" x1="264.269" y1="286.619" x2="264.269" y2="293.182" gradientUnits="userSpaceOnUse">
<stop/>
<stop offset="1" stop-color="#0047FF"/>
</linearGradient>
<linearGradient id="paint18_linear" x1="239.846" y1="84.7188" x2="239.846" y2="88.9669" gradientUnits="userSpaceOnUse">
<stop/>
<stop offset="1" stop-color="#0047FF"/>
</linearGradient>
<linearGradient id="paint19_linear" x1="239.848" y1="92.0195" x2="239.848" y2="96.5708" gradientUnits="userSpaceOnUse">
<stop/>
<stop offset="1" stop-color="#0047FF"/>
</linearGradient>
<linearGradient id="paint20_linear" x1="116.679" y1="116.843" x2="116.679" y2="140.148" gradientUnits="userSpaceOnUse">
<stop/>
<stop offset="1" stop-color="#0047FF"/>
</linearGradient>
<linearGradient id="paint21_linear" x1="365.533" y1="0.588867" x2="365.533" y2="390.739" gradientUnits="userSpaceOnUse">
<stop/>
<stop offset="1" stop-color="#0047FF"/>
</linearGradient>
<linearGradient id="paint22_linear" x1="32.6837" y1="91.2119" x2="32.6837" y2="121.111" gradientUnits="userSpaceOnUse">
<stop/>
<stop offset="1" stop-color="#0047FF"/>
</linearGradient>
<linearGradient id="paint23_linear" x1="53.6828" y1="100.759" x2="53.6828" y2="120.312" gradientUnits="userSpaceOnUse">
<stop/>
<stop offset="1" stop-color="#0047FF"/>
</linearGradient>
<linearGradient id="paint24_linear" x1="22.8746" y1="215.114" x2="22.8746" y2="225.239" gradientUnits="userSpaceOnUse">
<stop/>
<stop offset="1" stop-color="#0047FF"/>
</linearGradient>
<linearGradient id="paint25_linear" x1="29.0915" y1="191.213" x2="29.0915" y2="210.903" gradientUnits="userSpaceOnUse">
<stop/>
<stop offset="1" stop-color="#0047FF"/>
</linearGradient>
<linearGradient id="paint26_linear" x1="15.0937" y1="214.694" x2="15.0937" y2="235.375" gradientUnits="userSpaceOnUse">
<stop/>
<stop offset="1" stop-color="#0047FF"/>
</linearGradient>
<linearGradient id="paint27_linear" x1="22.8743" y1="207.84" x2="22.8743" y2="212.614" gradientUnits="userSpaceOnUse">
<stop/>
<stop offset="1" stop-color="#0047FF"/>
</linearGradient>
<linearGradient id="paint28_linear" x1="24.5811" y1="225.13" x2="24.5811" y2="229.904" gradientUnits="userSpaceOnUse">
<stop/>
<stop offset="1" stop-color="#0047FF"/>
</linearGradient>
<linearGradient id="paint29_linear" x1="21.1673" y1="225.131" x2="21.1673" y2="229.905" gradientUnits="userSpaceOnUse">
<stop/>
<stop offset="1" stop-color="#0047FF"/>
</linearGradient>
</defs>
</svg>
