<svg width="299" height="160" viewBox="0 0 299 160" fill="none" xmlns="http://www.w3.org/2000/svg">
<line x1="7.07022" y1="311.164" x2="371.852" y2="1.09627" stroke="#0047FF" stroke-opacity="0.15"/>
<line x1="-25.1588" y1="311.164" x2="339.623" y2="1.09627" stroke="#0047FF" stroke-opacity="0.15"/>
<line x1="-9.04404" y1="311.164" x2="355.737" y2="1.09627" stroke="#0047FF" stroke-opacity="0.15"/>
<line x1="-57.3883" y1="311.164" x2="307.393" y2="1.09627" stroke="#0047FF" stroke-opacity="0.15"/>
<line x1="-41.273" y1="311.164" x2="323.508" y2="1.09627" stroke="#0047FF" stroke-opacity="0.15"/>
<line x1="-89.6173" y1="311.164" x2="275.164" y2="1.09627" stroke="#0047FF" stroke-opacity="0.15"/>
<line x1="-73.5025" y1="311.164" x2="291.279" y2="1.09627" stroke="#0047FF" stroke-opacity="0.15"/>
<line x1="-105.732" y1="311.164" x2="259.05" y2="1.09627" stroke="#0047FF" stroke-opacity="0.15"/>
<line x1="-121.846" y1="311.164" x2="242.936" y2="1.09627" stroke="#0047FF" stroke-opacity="0.15"/>
<line x1="-154.075" y1="311.164" x2="210.707" y2="1.09627" stroke="#0047FF" stroke-opacity="0.15"/>
<line x1="-137.961" y1="311.164" x2="226.821" y2="1.09627" stroke="#0047FF" stroke-opacity="0.15"/>
<line x1="-186.304" y1="311.164" x2="178.478" y2="1.09627" stroke="#0047FF" stroke-opacity="0.15"/>
<line x1="-170.19" y1="311.164" x2="194.592" y2="1.09627" stroke="#0047FF" stroke-opacity="0.15"/>
<line x1="-250.762" y1="311.164" x2="114.02" y2="1.09627" stroke="#0047FF" stroke-opacity="0.15"/>
<line x1="-218.533" y1="311.164" x2="146.249" y2="1.09627" stroke="#0047FF" stroke-opacity="0.15"/>
<line x1="-282.991" y1="311.164" x2="81.7901" y2="1.09627" stroke="#0047FF" stroke-opacity="0.15"/>
<line x1="-202.419" y1="311.164" x2="162.363" y2="1.09627" stroke="#0047FF" stroke-opacity="0.15"/>
<line x1="-266.876" y1="311.164" x2="97.9054" y2="1.09627" stroke="#0047FF" stroke-opacity="0.15"/>
<line x1="-234.648" y1="311.164" x2="130.133" y2="1.09627" stroke="#0047FF" stroke-opacity="0.15"/>
<line x1="-315.22" y1="311.164" x2="49.5611" y2="1.09627" stroke="#0047FF" stroke-opacity="0.15"/>
<line x1="-299.106" y1="311.164" x2="65.6759" y2="1.09627" stroke="#0047FF" stroke-opacity="0.15"/>
<line x1="-347.449" y1="311.164" x2="17.3321" y2="1.09627" stroke="#0047FF" stroke-opacity="0.15"/>
<line x1="-331.335" y1="311.164" x2="33.4469" y2="1.09627" stroke="#0047FF" stroke-opacity="0.15"/>
<line x1="-363.564" y1="311.164" x2="1.21787" y2="1.09627" stroke="#0047FF" stroke-opacity="0.15"/>
</svg>
