<svg width="1920" height="1038" viewBox="0 0 1920 1038" fill="none" xmlns="http://www.w3.org/2000/svg">
<path d="M196.482 413.088L-542.361 1037.63L355.515 1037.63L1087.73 413.088L196.482 413.088Z" fill="#F7F7F7"/>
<path d="M225.659 489.329L128.021 571.861L175.762 571.861L272.524 489.328L225.659 489.329Z" fill="white"/>
<path d="M189.232 254.495L91.5938 337.027L139.335 337.027L236.097 254.494L189.232 254.495Z" fill="#F2F2F2"/>
<line x1="1912.78" y1="488.964" x2="2277.56" y2="178.896" stroke="#0047FF" stroke-opacity="0.15"/>
<line x1="1848.32" y1="488.964" x2="2213.1" y2="178.896" stroke="#0047FF" stroke-opacity="0.15"/>
<line x1="1880.55" y1="488.964" x2="2245.33" y2="178.896" stroke="#0047FF" stroke-opacity="0.15"/>
<line x1="1816.09" y1="488.964" x2="2180.87" y2="178.896" stroke="#0047FF" stroke-opacity="0.15"/>
<line x1="1896.67" y1="488.964" x2="2261.45" y2="178.896" stroke="#0047FF" stroke-opacity="0.15"/>
<line x1="1832.21" y1="488.964" x2="2196.99" y2="178.896" stroke="#0047FF" stroke-opacity="0.15"/>
<line x1="1864.44" y1="488.964" x2="2229.22" y2="178.896" stroke="#0047FF" stroke-opacity="0.15"/>
<line x1="1783.86" y1="488.964" x2="2148.65" y2="178.896" stroke="#0047FF" stroke-opacity="0.15"/>
<line x1="1799.98" y1="488.964" x2="2164.76" y2="178.896" stroke="#0047FF" stroke-opacity="0.15"/>
<line x1="1751.64" y1="488.964" x2="2116.42" y2="178.896" stroke="#0047FF" stroke-opacity="0.15"/>
<line x1="1767.75" y1="488.964" x2="2132.53" y2="178.896" stroke="#0047FF" stroke-opacity="0.15"/>
<line x1="1735.52" y1="488.964" x2="2100.3" y2="178.896" stroke="#0047FF" stroke-opacity="0.15"/>
<line x1="1741.38" y1="799.016" x2="2106.16" y2="488.948" stroke="#0047FF" stroke-opacity="0.15"/>
<line x1="1709.15" y1="799.016" x2="2073.93" y2="488.948" stroke="#0047FF" stroke-opacity="0.15"/>
<line x1="1725.26" y1="799.016" x2="2090.04" y2="488.948" stroke="#0047FF" stroke-opacity="0.15"/>
<line x1="1676.92" y1="799.016" x2="2041.7" y2="488.948" stroke="#0047FF" stroke-opacity="0.15"/>
<line x1="1693.03" y1="799.016" x2="2057.81" y2="488.948" stroke="#0047FF" stroke-opacity="0.15"/>
<line x1="1644.69" y1="799.016" x2="2009.47" y2="488.948" stroke="#0047FF" stroke-opacity="0.15"/>
<line x1="1660.8" y1="799.016" x2="2025.58" y2="488.948" stroke="#0047FF" stroke-opacity="0.15"/>
<line x1="1628.57" y1="799.016" x2="1993.36" y2="488.948" stroke="#0047FF" stroke-opacity="0.15"/>
<line x1="1612.46" y1="799.016" x2="1977.24" y2="488.948" stroke="#0047FF" stroke-opacity="0.15"/>
<line x1="1580.23" y1="799.016" x2="1945.01" y2="488.948" stroke="#0047FF" stroke-opacity="0.15"/>
<line x1="1596.35" y1="799.016" x2="1961.13" y2="488.948" stroke="#0047FF" stroke-opacity="0.15"/>
<line x1="1548" y1="799.016" x2="1912.78" y2="488.948" stroke="#0047FF" stroke-opacity="0.15"/>
<line x1="1564.12" y1="799.016" x2="1928.9" y2="488.948" stroke="#0047FF" stroke-opacity="0.15"/>
<line x1="1483.54" y1="799.016" x2="1848.32" y2="488.948" stroke="#0047FF" stroke-opacity="0.15"/>
<line x1="1515.77" y1="799.016" x2="1880.55" y2="488.948" stroke="#0047FF" stroke-opacity="0.15"/>
<line x1="1451.31" y1="799.016" x2="1816.1" y2="488.948" stroke="#0047FF" stroke-opacity="0.15"/>
<line x1="1531.89" y1="799.016" x2="1896.67" y2="488.948" stroke="#0047FF" stroke-opacity="0.15"/>
<line x1="1467.43" y1="799.016" x2="1832.21" y2="488.948" stroke="#0047FF" stroke-opacity="0.15"/>
<line x1="1499.66" y1="799.016" x2="1864.44" y2="488.948" stroke="#0047FF" stroke-opacity="0.15"/>
<line x1="1419.09" y1="799.016" x2="1783.87" y2="488.948" stroke="#0047FF" stroke-opacity="0.15"/>
<line x1="1435.2" y1="799.016" x2="1799.98" y2="488.948" stroke="#0047FF" stroke-opacity="0.15"/>
<line x1="1386.86" y1="799.016" x2="1751.64" y2="488.948" stroke="#0047FF" stroke-opacity="0.15"/>
<line x1="1402.97" y1="799.016" x2="1767.75" y2="488.948" stroke="#0047FF" stroke-opacity="0.15"/>
<line x1="1370.74" y1="799.016" x2="1735.52" y2="488.948" stroke="#0047FF" stroke-opacity="0.15"/>
<g opacity="0.5">
<line x1="169.373" y1="310.774" x2="534.155" y2="0.706618" stroke="#D4D6D9"/>
<line x1="137.144" y1="310.774" x2="501.925" y2="0.706618" stroke="#D4D6D9"/>
<line x1="153.259" y1="310.774" x2="518.041" y2="0.706618" stroke="#D4D6D9"/>
<line x1="104.915" y1="310.774" x2="469.697" y2="0.706618" stroke="#D4D6D9"/>
<line x1="121.03" y1="310.774" x2="485.811" y2="0.706618" stroke="#D4D6D9"/>
<line x1="72.6859" y1="310.774" x2="437.467" y2="0.706618" stroke="#D4D6D9"/>
<line x1="88.8012" y1="310.774" x2="453.583" y2="0.706618" stroke="#D4D6D9"/>
<line x1="56.5717" y1="310.774" x2="421.353" y2="0.706618" stroke="#D4D6D9"/>
<line x1="40.4574" y1="310.774" x2="405.239" y2="0.706618" stroke="#D4D6D9"/>
<line x1="8.22891" y1="310.774" x2="373.01" y2="0.706618" stroke="#D4D6D9"/>
<line x1="24.3432" y1="310.774" x2="389.125" y2="0.706618" stroke="#D4D6D9"/>
<line x1="-24.0006" y1="310.774" x2="340.781" y2="0.706618" stroke="#D4D6D9"/>
<line x1="-7.88633" y1="310.774" x2="356.895" y2="0.706618" stroke="#D4D6D9"/>
<line x1="-88.4586" y1="310.774" x2="276.323" y2="0.706618" stroke="#D4D6D9"/>
<line x1="-56.2301" y1="310.774" x2="308.551" y2="0.706618" stroke="#D4D6D9"/>
<line x1="-120.688" y1="310.774" x2="244.093" y2="0.706618" stroke="#D4D6D9"/>
<line x1="-40.1158" y1="310.774" x2="324.666" y2="0.706618" stroke="#D4D6D9"/>
<line x1="-104.573" y1="310.774" x2="260.209" y2="0.706618" stroke="#D4D6D9"/>
<line x1="-72.3443" y1="310.774" x2="292.437" y2="0.706618" stroke="#D4D6D9"/>
<line x1="-152.917" y1="310.774" x2="211.865" y2="0.706618" stroke="#D4D6D9"/>
<line x1="-136.802" y1="310.774" x2="227.979" y2="0.706618" stroke="#D4D6D9"/>
<line x1="-185.146" y1="310.774" x2="179.635" y2="0.706618" stroke="#D4D6D9"/>
<line x1="-169.031" y1="310.774" x2="195.751" y2="0.706618" stroke="#D4D6D9"/>
<line x1="-201.26" y1="310.774" x2="163.521" y2="0.706618" stroke="#D4D6D9"/>
</g>
</svg>
