<svg width="1920" height="1207" viewBox="0 0 1920 1207" fill="none" xmlns="http://www.w3.org/2000/svg">
<line x1="185.579" y1="310.897" x2="550.36" y2="0.829177" stroke="#D4D6D9" stroke-opacity="0.5"/>
<line x1="153.349" y1="310.897" x2="518.13" y2="0.829177" stroke="#D4D6D9" stroke-opacity="0.5"/>
<line x1="169.464" y1="310.897" x2="534.246" y2="0.829177" stroke="#D4D6D9" stroke-opacity="0.5"/>
<line x1="121.121" y1="310.897" x2="485.902" y2="0.829177" stroke="#D4D6D9" stroke-opacity="0.5"/>
<line x1="137.235" y1="310.897" x2="502.016" y2="0.829177" stroke="#D4D6D9" stroke-opacity="0.5"/>
<line x1="88.891" y1="310.897" x2="453.672" y2="0.829177" stroke="#D4D6D9" stroke-opacity="0.5"/>
<line x1="105.006" y1="310.897" x2="469.788" y2="0.829177" stroke="#D4D6D9" stroke-opacity="0.5"/>
<line x1="72.7768" y1="310.897" x2="437.558" y2="0.829177" stroke="#D4D6D9" stroke-opacity="0.5"/>
<line x1="56.6625" y1="310.897" x2="421.444" y2="0.829177" stroke="#D4D6D9" stroke-opacity="0.5"/>
<line x1="24.434" y1="310.897" x2="389.215" y2="0.829177" stroke="#D4D6D9" stroke-opacity="0.5"/>
<line x1="40.5482" y1="310.897" x2="405.33" y2="0.829177" stroke="#D4D6D9" stroke-opacity="0.5"/>
<line x1="-7.79551" y1="310.897" x2="356.986" y2="0.829177" stroke="#D4D6D9" stroke-opacity="0.5"/>
<line x1="8.31875" y1="310.897" x2="373.1" y2="0.829177" stroke="#D4D6D9" stroke-opacity="0.5"/>
<line x1="-72.2535" y1="310.897" x2="292.528" y2="0.829177" stroke="#D4D6D9" stroke-opacity="0.5"/>
<line x1="-40.025" y1="310.897" x2="324.756" y2="0.829177" stroke="#D4D6D9" stroke-opacity="0.5"/>
<line x1="-104.483" y1="310.897" x2="260.298" y2="0.829177" stroke="#D4D6D9" stroke-opacity="0.5"/>
<line x1="-23.9107" y1="310.897" x2="340.871" y2="0.829177" stroke="#D4D6D9" stroke-opacity="0.5"/>
<line x1="-88.3678" y1="310.897" x2="276.414" y2="0.829177" stroke="#D4D6D9" stroke-opacity="0.5"/>
<line x1="-56.1393" y1="310.897" x2="308.642" y2="0.829177" stroke="#D4D6D9" stroke-opacity="0.5"/>
<line x1="-136.712" y1="310.897" x2="228.07" y2="0.829177" stroke="#D4D6D9" stroke-opacity="0.5"/>
<line x1="-120.597" y1="310.897" x2="244.184" y2="0.829177" stroke="#D4D6D9" stroke-opacity="0.5"/>
<line x1="-168.941" y1="310.897" x2="195.84" y2="0.829177" stroke="#D4D6D9" stroke-opacity="0.5"/>
<line x1="-152.826" y1="310.897" x2="211.956" y2="0.829177" stroke="#D4D6D9" stroke-opacity="0.5"/>
<line x1="-185.055" y1="310.897" x2="179.726" y2="0.829177" stroke="#D4D6D9" stroke-opacity="0.5"/>
<line x1="1595.96" y1="1018.41" x2="1960.74" y2="708.341" stroke="#0047FF" stroke-opacity="0.15"/>
<line x1="1563.73" y1="1018.41" x2="1928.51" y2="708.341" stroke="#0047FF" stroke-opacity="0.15"/>
<line x1="1579.85" y1="1018.41" x2="1944.63" y2="708.341" stroke="#0047FF" stroke-opacity="0.15"/>
<line x1="1531.5" y1="1018.41" x2="1896.29" y2="708.341" stroke="#0047FF" stroke-opacity="0.15"/>
<line x1="1547.62" y1="1018.41" x2="1912.4" y2="708.341" stroke="#0047FF" stroke-opacity="0.15"/>
<line x1="1499.27" y1="1018.41" x2="1864.06" y2="708.341" stroke="#0047FF" stroke-opacity="0.15"/>
<line x1="1515.39" y1="1018.41" x2="1880.17" y2="708.341" stroke="#0047FF" stroke-opacity="0.15"/>
<line x1="1483.16" y1="1018.41" x2="1847.94" y2="708.341" stroke="#0047FF" stroke-opacity="0.15"/>
<line x1="1467.05" y1="1018.41" x2="1831.83" y2="708.341" stroke="#0047FF" stroke-opacity="0.15"/>
<line x1="1434.82" y1="1018.41" x2="1799.6" y2="708.341" stroke="#0047FF" stroke-opacity="0.15"/>
<line x1="1450.93" y1="1018.41" x2="1815.71" y2="708.341" stroke="#0047FF" stroke-opacity="0.15"/>
<line x1="1402.59" y1="1018.41" x2="1767.37" y2="708.341" stroke="#0047FF" stroke-opacity="0.15"/>
<line x1="1418.7" y1="1018.41" x2="1783.48" y2="708.341" stroke="#0047FF" stroke-opacity="0.15"/>
<line x1="1338.13" y1="1018.41" x2="1702.91" y2="708.341" stroke="#0047FF" stroke-opacity="0.15"/>
<line x1="1370.36" y1="1018.41" x2="1735.14" y2="708.341" stroke="#0047FF" stroke-opacity="0.15"/>
<line x1="1305.9" y1="1018.41" x2="1670.68" y2="708.341" stroke="#0047FF" stroke-opacity="0.15"/>
<line x1="1386.47" y1="1018.41" x2="1751.25" y2="708.341" stroke="#0047FF" stroke-opacity="0.15"/>
<line x1="1322.02" y1="1018.41" x2="1686.8" y2="708.341" stroke="#0047FF" stroke-opacity="0.15"/>
<line x1="1354.24" y1="1018.41" x2="1719.03" y2="708.341" stroke="#0047FF" stroke-opacity="0.15"/>
<line x1="1273.67" y1="1018.41" x2="1638.45" y2="708.341" stroke="#0047FF" stroke-opacity="0.15"/>
<line x1="1289.79" y1="1018.41" x2="1654.57" y2="708.341" stroke="#0047FF" stroke-opacity="0.15"/>
<line x1="1241.44" y1="1018.41" x2="1606.22" y2="708.341" stroke="#0047FF" stroke-opacity="0.15"/>
<line x1="1257.56" y1="1018.41" x2="1622.34" y2="708.341" stroke="#0047FF" stroke-opacity="0.15"/>
<line x1="1225.33" y1="1018.41" x2="1590.11" y2="708.341" stroke="#0047FF" stroke-opacity="0.15"/>
<path d="M1477.59 973.605L1325.7 1101.31L1455.62 1101.31L1606.55 973.606L1477.59 973.605Z" fill="#F3F3F3" fill-opacity="0.67"/>
<path d="M1607.23 907.635L1467.37 1025.85L1506.03 1025.85L1644.63 907.635L1607.23 907.635Z" fill="white"/>
<path d="M1828.12 813.22L1688.26 931.439L1707.7 931.439L1846.3 813.22H1828.12Z" fill="#0047FF" fill-opacity="0.05"/>
<path d="M379.334 62.2952L191.033 221.465L210.241 221.464L396.853 62.2949L379.334 62.2952Z" fill="white"/>
<path d="M229.172 151.265L40.8711 310.434L60.0788 310.434L246.691 151.265L229.172 151.265Z" fill="white"/>
<line x1="185.438" y1="1205.72" x2="550.219" y2="895.652" stroke="#D4D6D9" stroke-opacity="0.5"/>
<line x1="153.208" y1="1205.72" x2="517.99" y2="895.652" stroke="#D4D6D9" stroke-opacity="0.5"/>
<line x1="169.324" y1="1205.72" x2="534.105" y2="895.652" stroke="#D4D6D9" stroke-opacity="0.5"/>
<line x1="120.98" y1="1205.72" x2="485.761" y2="895.652" stroke="#D4D6D9" stroke-opacity="0.5"/>
<line x1="137.094" y1="1205.72" x2="501.876" y2="895.652" stroke="#D4D6D9" stroke-opacity="0.5"/>
<line x1="88.7504" y1="1205.72" x2="453.532" y2="895.652" stroke="#D4D6D9" stroke-opacity="0.5"/>
<line x1="104.866" y1="1205.72" x2="469.647" y2="895.652" stroke="#D4D6D9" stroke-opacity="0.5"/>
<line x1="72.6361" y1="1205.72" x2="437.418" y2="895.652" stroke="#D4D6D9" stroke-opacity="0.5"/>
<line x1="56.5219" y1="1205.72" x2="421.303" y2="895.652" stroke="#D4D6D9" stroke-opacity="0.5"/>
<line x1="24.2934" y1="1205.72" x2="389.075" y2="895.652" stroke="#D4D6D9" stroke-opacity="0.5"/>
<line x1="40.4076" y1="1205.72" x2="405.189" y2="895.652" stroke="#D4D6D9" stroke-opacity="0.5"/>
<line x1="-7.93613" y1="1205.72" x2="356.845" y2="895.652" stroke="#D4D6D9" stroke-opacity="0.5"/>
<line x1="8.17813" y1="1205.72" x2="372.96" y2="895.652" stroke="#D4D6D9" stroke-opacity="0.5"/>
<line x1="-72.3941" y1="1205.72" x2="292.387" y2="895.652" stroke="#D4D6D9" stroke-opacity="0.5"/>
<line x1="-40.1656" y1="1205.72" x2="324.616" y2="895.652" stroke="#D4D6D9" stroke-opacity="0.5"/>
<line x1="-104.624" y1="1205.72" x2="260.158" y2="895.652" stroke="#D4D6D9" stroke-opacity="0.5"/>
<line x1="-24.0514" y1="1205.72" x2="340.73" y2="895.652" stroke="#D4D6D9" stroke-opacity="0.5"/>
<line x1="-88.5084" y1="1205.72" x2="276.273" y2="895.652" stroke="#D4D6D9" stroke-opacity="0.5"/>
<line x1="-56.2799" y1="1205.72" x2="308.502" y2="895.652" stroke="#D4D6D9" stroke-opacity="0.5"/>
<line x1="-136.852" y1="1205.72" x2="227.929" y2="895.652" stroke="#D4D6D9" stroke-opacity="0.5"/>
<line x1="-120.738" y1="1205.72" x2="244.044" y2="895.652" stroke="#D4D6D9" stroke-opacity="0.5"/>
<line x1="-169.082" y1="1205.72" x2="195.7" y2="895.652" stroke="#D4D6D9" stroke-opacity="0.5"/>
<line x1="-152.966" y1="1205.72" x2="211.815" y2="895.652" stroke="#D4D6D9" stroke-opacity="0.5"/>
<line x1="-185.196" y1="1205.72" x2="179.586" y2="895.652" stroke="#D4D6D9" stroke-opacity="0.5"/>
</svg>
