<svg width="768" height="1003" viewBox="0 0 768 1003" fill="none" xmlns="http://www.w3.org/2000/svg">
<line x1="653.805" y1="310.529" x2="1018.59" y2="0.461501" stroke="#0047FF" stroke-opacity="0.15"/>
<line x1="621.576" y1="310.529" x2="986.357" y2="0.461501" stroke="#0047FF" stroke-opacity="0.15"/>
<line x1="637.69" y1="310.529" x2="1002.47" y2="0.461501" stroke="#0047FF" stroke-opacity="0.15"/>
<line x1="589.346" y1="310.529" x2="954.128" y2="0.461501" stroke="#0047FF" stroke-opacity="0.15"/>
<line x1="605.461" y1="310.529" x2="970.243" y2="0.461501" stroke="#0047FF" stroke-opacity="0.15"/>
<line x1="557.117" y1="310.529" x2="921.899" y2="0.461501" stroke="#0047FF" stroke-opacity="0.15"/>
<line x1="573.232" y1="310.529" x2="938.013" y2="0.461501" stroke="#0047FF" stroke-opacity="0.15"/>
<line x1="541.003" y1="310.529" x2="905.784" y2="0.461501" stroke="#0047FF" stroke-opacity="0.15"/>
<line x1="524.889" y1="310.529" x2="889.67" y2="0.461501" stroke="#0047FF" stroke-opacity="0.15"/>
<line x1="492.66" y1="310.529" x2="857.441" y2="0.461501" stroke="#0047FF" stroke-opacity="0.15"/>
<line x1="508.774" y1="310.529" x2="873.555" y2="0.461501" stroke="#0047FF" stroke-opacity="0.15"/>
<line x1="460.431" y1="310.529" x2="825.212" y2="0.461501" stroke="#0047FF" stroke-opacity="0.15"/>
<line x1="476.545" y1="310.529" x2="841.326" y2="0.461501" stroke="#0047FF" stroke-opacity="0.15"/>
<line x1="395.973" y1="310.529" x2="760.754" y2="0.461501" stroke="#0047FF" stroke-opacity="0.15"/>
<line x1="428.202" y1="310.529" x2="792.983" y2="0.461501" stroke="#0047FF" stroke-opacity="0.15"/>
<line x1="363.743" y1="310.529" x2="728.525" y2="0.461501" stroke="#0047FF" stroke-opacity="0.15"/>
<line x1="444.316" y1="310.529" x2="809.097" y2="0.461501" stroke="#0047FF" stroke-opacity="0.15"/>
<line x1="379.858" y1="310.529" x2="744.64" y2="0.461501" stroke="#0047FF" stroke-opacity="0.15"/>
<line x1="412.086" y1="310.529" x2="776.868" y2="0.461501" stroke="#0047FF" stroke-opacity="0.15"/>
<line x1="331.514" y1="310.529" x2="696.296" y2="0.461501" stroke="#0047FF" stroke-opacity="0.15"/>
<line x1="347.629" y1="310.529" x2="712.41" y2="0.461501" stroke="#0047FF" stroke-opacity="0.15"/>
<line x1="299.285" y1="310.529" x2="664.067" y2="0.461501" stroke="#0047FF" stroke-opacity="0.15"/>
<line x1="315.4" y1="310.529" x2="680.181" y2="0.461501" stroke="#0047FF" stroke-opacity="0.15"/>
<line x1="283.171" y1="310.529" x2="647.952" y2="0.461501" stroke="#0047FF" stroke-opacity="0.15"/>
<path d="M665.068 199.756L525.212 317.975L563.87 317.975L702.472 199.756L665.068 199.756Z" fill="white"/>
<line x1="47.3051" y1="1001.75" x2="412.087" y2="691.677" stroke="#D4D6D9" stroke-opacity="0.5"/>
<line x1="15.0756" y1="1001.75" x2="379.857" y2="691.677" stroke="#D4D6D9" stroke-opacity="0.5"/>
<line x1="31.1908" y1="1001.75" x2="395.972" y2="691.677" stroke="#D4D6D9" stroke-opacity="0.5"/>
<line x1="-17.1534" y1="1001.75" x2="347.628" y2="691.677" stroke="#D4D6D9" stroke-opacity="0.5"/>
<line x1="-1.03818" y1="1001.75" x2="363.743" y2="691.677" stroke="#D4D6D9" stroke-opacity="0.5"/>
<line x1="-49.3824" y1="1001.75" x2="315.399" y2="691.677" stroke="#D4D6D9" stroke-opacity="0.5"/>
<line x1="-33.2677" y1="1001.75" x2="331.514" y2="691.677" stroke="#D4D6D9" stroke-opacity="0.5"/>
<line x1="-65.4967" y1="1001.75" x2="299.285" y2="691.677" stroke="#D4D6D9" stroke-opacity="0.5"/>
<line x1="-81.6109" y1="1001.75" x2="283.171" y2="691.677" stroke="#D4D6D9" stroke-opacity="0.5"/>
<line x1="-113.84" y1="1001.75" x2="250.942" y2="691.677" stroke="#D4D6D9" stroke-opacity="0.5"/>
<line x1="-97.7257" y1="1001.75" x2="267.056" y2="691.677" stroke="#D4D6D9" stroke-opacity="0.5"/>
<line x1="-146.069" y1="1001.75" x2="218.713" y2="691.677" stroke="#D4D6D9" stroke-opacity="0.5"/>
<line x1="-129.955" y1="1001.75" x2="234.827" y2="691.677" stroke="#D4D6D9" stroke-opacity="0.5"/>
<line x1="-210.527" y1="1001.75" x2="154.255" y2="691.677" stroke="#D4D6D9" stroke-opacity="0.5"/>
<line x1="-178.298" y1="1001.75" x2="186.484" y2="691.677" stroke="#D4D6D9" stroke-opacity="0.5"/>
<line x1="-242.756" y1="1001.75" x2="122.025" y2="691.677" stroke="#D4D6D9" stroke-opacity="0.5"/>
<line x1="-162.184" y1="1001.75" x2="202.598" y2="691.677" stroke="#D4D6D9" stroke-opacity="0.5"/>
<line x1="-226.641" y1="1001.75" x2="138.14" y2="691.677" stroke="#D4D6D9" stroke-opacity="0.5"/>
<line x1="-194.413" y1="1001.75" x2="170.368" y2="691.677" stroke="#D4D6D9" stroke-opacity="0.5"/>
<line x1="-274.985" y1="1001.75" x2="89.796" y2="691.677" stroke="#D4D6D9" stroke-opacity="0.5"/>
<line x1="-258.871" y1="1001.75" x2="105.911" y2="691.677" stroke="#D4D6D9" stroke-opacity="0.5"/>
<line x1="-307.214" y1="1001.75" x2="57.567" y2="691.677" stroke="#D4D6D9" stroke-opacity="0.5"/>
<line x1="-291.1" y1="1001.75" x2="73.6817" y2="691.677" stroke="#D4D6D9" stroke-opacity="0.5"/>
<line x1="-323.329" y1="1001.75" x2="41.4527" y2="691.677" stroke="#D4D6D9" stroke-opacity="0.5"/>
<path d="M241.061 753.144L52.7598 912.313L71.9674 912.313L258.58 753.144L241.061 753.144Z" fill="white"/>
<path d="M90.8987 842.114L-97.4023 1001.28L-78.1947 1001.28L108.418 842.113L90.8987 842.114Z" fill="white"/>
</svg>
