<svg width="128" height="28" viewBox="0 0 128 28" fill="none" xmlns="http://www.w3.org/2000/svg">
<path fill-rule="evenodd" clip-rule="evenodd" d="M14.1929 0.286999C16.4159 0.286999 18.6389 0.286511 20.8619 0.287406C21.3773 0.287569 21.4141 0.348241 21.1738 0.81809C20.6132 1.91394 20.0427 3.00476 19.4906 4.10484C19.3401 4.40471 19.1518 4.52711 18.8 4.52703C15.2085 4.52646 11.6169 4.54419 8.02532 4.55948C5.88436 4.56859 4.33565 6.15812 4.38949 8.28549C4.43439 10.0583 5.93616 11.5762 7.70845 11.5919C9.61948 11.6088 11.5314 11.6101 13.4419 11.5706C14.9711 11.5391 16.3601 11.9901 17.6292 12.7681C20.9666 14.8138 22.1872 18.6652 20.8476 22.2591C19.9613 24.6372 18.1993 26.1892 15.7419 26.9414C14.7543 27.2437 13.7617 27.3486 12.7381 27.3446C8.7259 27.329 4.71368 27.3313 0.701459 27.327C0.0796019 27.3262 0.0413803 27.2661 0.319207 26.7258C0.925285 25.5473 1.52339 24.3643 2.14866 23.196C2.22479 23.0538 2.44796 22.9044 2.60379 22.9035C6.20928 22.8831 9.81517 22.8542 13.4203 22.8908C15.2282 22.9091 16.6818 21.8836 17.0401 20.1838C17.4035 18.4606 16.4457 16.7033 14.7733 16.1167C14.3355 15.9631 13.8445 15.9074 13.3768 15.9016C11.4794 15.8781 9.58134 15.9094 7.68389 15.8871C5.23331 15.8584 3.25883 14.8092 1.76958 12.9053C-0.00815458 10.6326 -0.3434 8.05655 0.607603 5.38092C1.43807 3.04444 3.12041 1.47289 5.49381 0.681617C6.40301 0.378497 7.34027 0.274962 8.29647 0.279435C10.2619 0.288544 12.2274 0.282119 14.1929 0.282119C14.1929 0.283909 14.1929 0.285535 14.1929 0.286999Z" fill="url(#paint0_linear)"/>
<path fill-rule="evenodd" clip-rule="evenodd" d="M31.9637 22.8172C31.4692 21.8494 31.0303 20.9826 30.5844 20.1195C29.4794 17.9809 28.3701 15.8444 27.2643 13.7061C26.6431 12.5049 26.028 11.3006 25.4008 10.1026C25.3508 10.0069 25.2367 9.91729 25.1347 9.88858C25.0884 9.87565 24.9763 10.0073 24.9313 10.093C24.1943 11.4932 23.4648 12.8973 22.7284 14.2978C22.6766 14.3962 22.5849 14.4737 22.5117 14.5609C22.4263 14.4722 22.3179 14.3966 22.259 14.293C21.6474 13.2179 20.8614 12.2964 19.8451 11.5879C19.5593 11.3886 19.527 11.2065 19.6813 10.9105C21.2131 7.97234 22.737 5.03003 24.2614 2.08805C24.5284 1.57281 24.7874 1.05335 25.0881 0.460938C25.2129 0.593344 25.3304 0.673942 25.3883 0.78561C27.1754 4.23079 28.9584 7.67817 30.7382 11.1272C32.3631 14.2759 33.9777 17.4298 35.6079 20.5758C36.7088 22.7005 37.8291 24.8153 38.94 26.9349C39.0855 27.2125 39.0027 27.323 38.6274 27.3257C37.2449 27.3351 35.8625 27.344 34.48 27.3431C31.1863 27.341 27.8927 27.3334 24.5989 27.3272C24.041 27.3262 24.002 27.2496 24.263 26.7481C24.8686 25.5842 25.4816 24.4238 26.0596 23.2462C26.2003 22.9593 26.375 22.887 26.6579 22.8873C28.2167 22.8889 29.7754 22.8823 31.3341 22.8737C31.5158 22.8728 31.6973 22.842 31.9637 22.8172Z" fill="url(#paint1_linear)"/>
<path fill-rule="evenodd" clip-rule="evenodd" d="M110.498 13.6277C110.498 12.6166 110.491 11.6056 110.501 10.5945C110.504 10.2811 110.391 10.1022 110.068 10.0782C109.823 10.0599 109.577 10.0417 109.332 10.0198C108.904 9.98178 108.773 9.83872 108.774 9.42052C108.775 9.14204 108.786 8.86242 108.766 8.58524C108.748 8.34581 108.852 8.19998 109.065 8.15012C109.283 8.09929 109.509 8.07115 109.733 8.06627C110.377 8.05196 110.497 7.94151 110.497 7.31494C110.496 6.72691 110.496 6.13881 110.495 5.55079C110.495 5.19748 110.601 5.06719 110.942 5.06166C111.55 5.05206 112.159 5.05174 112.768 5.06467C113.175 5.07337 113.291 5.21001 113.291 5.61683C113.291 6.22551 113.29 6.83427 113.291 7.44295C113.292 7.87628 113.471 8.05545 113.912 8.06188C114.18 8.06578 114.448 8.05903 114.717 8.06383C115.05 8.06969 115.204 8.23267 115.203 8.56272C115.203 8.89276 115.204 9.22264 115.208 9.55251C115.211 9.84693 115.059 10.0172 114.763 10.0244C114.485 10.0311 114.206 10.0147 113.928 10.0274C113.458 10.0487 113.29 10.2348 113.29 10.7C113.291 12.3405 113.3 13.9809 113.285 15.6212C113.281 16.0736 113.395 16.4809 113.629 16.8498C113.705 16.9682 113.882 17.063 114.027 17.0872C114.289 17.1308 114.561 17.1095 114.829 17.1222C115.255 17.142 115.4 17.2953 115.4 17.7124C115.4 17.9393 115.4 18.1662 115.4 18.3932C115.4 19.0918 114.974 19.5443 114.264 19.5727C113.831 19.5899 113.397 19.5887 112.964 19.5702C112.817 19.564 112.67 19.4884 112.53 19.4284C112.362 19.3564 112.209 19.2307 112.035 19.1932C111.665 19.1132 111.44 18.8563 111.185 18.6137C110.589 18.0475 110.519 17.315 110.507 16.5679C110.491 15.588 110.503 14.6077 110.503 13.6277C110.501 13.6277 110.499 13.6277 110.498 13.6277Z" fill="#0B4EC0"/>
<path fill-rule="evenodd" clip-rule="evenodd" d="M46.7504 19.6488C46.3606 19.6168 45.9293 19.6802 45.5899 19.5324C44.9376 19.2486 44.2199 19.1684 43.6068 18.7277C42.9661 18.2673 42.6373 17.6434 42.3189 16.9858C42.1935 16.7269 42.3582 16.4977 42.6456 16.4609C43.3014 16.3768 43.476 16.5282 43.739 17.1167C43.8872 17.4484 44.147 17.7842 44.4458 17.9853C45.5977 18.7596 46.8685 18.7367 48.1518 18.3865C48.746 18.2245 49.1711 17.802 49.5355 17.3271C49.8058 16.9747 49.6588 16.0284 49.4123 15.6612C49.167 15.2957 48.8179 15.081 48.5049 14.8104C48.4439 14.7579 48.3714 14.7057 48.2956 14.6852C47.5641 14.4876 46.829 14.3029 46.0984 14.1016C45.7532 14.0066 45.4216 13.8573 45.0733 13.7796C44.4524 13.6411 43.9451 13.3005 43.4505 12.9319C43.3475 12.8552 43.2688 12.7408 43.1933 12.6337C43.0751 12.4662 42.9566 12.2969 42.8619 12.1159C42.7777 11.9555 42.6846 11.782 42.6683 11.6073C42.6368 11.2699 42.6293 10.9246 42.6649 10.5883C42.6876 10.3737 42.7893 10.1612 42.886 9.96247C42.9796 9.76963 43.1121 9.59575 43.2274 9.41348C43.2495 9.37875 43.263 9.33232 43.2941 9.3106C43.6956 9.03017 44.0869 8.73201 44.5076 8.48355C44.7503 8.34 45.0414 8.27851 45.3106 8.17969C45.3782 8.15489 45.4437 8.11162 45.5127 8.10552C46.4047 8.0259 47.2986 7.90423 48.1715 8.23711C48.4207 8.33219 48.7002 8.367 48.9274 8.49656C49.2907 8.70395 49.6661 8.92379 49.9556 9.21788C50.3255 9.59371 50.6971 10.0006 50.7627 10.5723C50.7912 10.8202 50.7849 11.0608 50.517 11.1798C50.2468 11.2998 49.8191 11.1985 49.6773 10.9786C49.4605 10.643 49.314 10.2434 49.0407 9.9667C48.5301 9.44943 47.9167 9.06693 47.1469 9.06051C46.438 9.05473 45.7266 8.99357 45.0539 9.33093C44.4347 9.64146 44.0285 10.097 43.8774 10.7787C43.7773 11.2307 43.9237 11.619 44.197 11.9552C44.4303 12.242 44.7544 12.4139 45.0769 12.6053C45.5893 12.9096 46.1408 12.9605 46.6871 13.086C46.8754 13.1293 47.0513 13.2247 47.2383 13.2768C47.5536 13.3646 47.8734 13.4367 48.1912 13.516C48.814 13.6715 49.3583 13.9897 49.8674 14.3636C50.0778 14.5181 50.2631 14.7221 50.4161 14.9349C50.5666 15.1442 50.7441 15.3865 50.7641 15.6265C50.8127 16.2067 50.8283 16.8 50.7594 17.3764C50.6946 17.9188 50.2873 18.28 49.8766 18.6234C49.4698 18.9638 49.017 19.1654 48.5062 19.2842C48.2123 19.3527 47.9424 19.5329 47.6478 19.5875C47.3587 19.6409 47.0518 19.5991 46.7528 19.5991C46.752 19.6157 46.7512 19.6322 46.7504 19.6488Z" fill="#0B4EC0" stroke="#0B4EC0"/>
<path fill-rule="evenodd" clip-rule="evenodd" d="M84.4229 11.3291C84.4228 13.8894 84.4229 16.4498 84.4226 19.0101C84.4226 19.2048 84.4599 19.4563 84.2178 19.5024C83.9894 19.5458 83.738 19.5002 83.5035 19.4563C83.4436 19.445 83.3917 19.2972 83.3695 19.2039C83.3459 19.1061 83.3615 18.9988 83.3615 18.8955C83.3612 13.7853 83.361 8.67492 83.3607 3.56465C83.3607 3.15929 83.4749 3.05218 83.9093 3.0508C84.3315 3.04934 84.4224 3.13644 84.4226 3.55529C84.4234 6.14642 84.4231 8.73779 84.4229 11.3291Z" fill="#0B4EC0" stroke="#0B4EC0"/>
<path fill-rule="evenodd" clip-rule="evenodd" d="M57.9131 18.6214C57.6242 18.6242 57.3335 18.6405 57.0469 18.6149C56.8478 18.5969 56.592 18.5791 56.4699 18.4548C56.1088 18.0872 55.7779 17.7069 55.797 17.1065C55.8362 15.8696 55.8088 14.6306 55.8088 13.3923C55.8043 13.3923 55.7998 13.3923 55.7952 13.3923C55.7952 12.1128 55.7934 10.8333 55.7964 9.55382C55.7965 9.49339 55.7988 9.44069 55.8033 9.39352V9.04404H56.2312H58.1836V8.06327H56.4866H55.8033V7.6606C55.7992 7.61212 55.797 7.55836 55.7966 7.49761C55.7922 6.83736 55.7942 6.17679 55.7996 5.51655C55.8013 5.29875 55.7463 5.12705 55.5125 5.06793C55.177 4.98294 54.8307 5.07362 54.7315 5.27695C54.7014 5.3386 54.6875 5.41456 54.688 5.48377C54.6924 6.12287 54.7066 6.76189 54.7077 7.40091C54.7078 7.43539 54.7067 7.46776 54.705 7.49907V8.06327H53.8892C53.7627 8.06449 53.6362 8.064 53.5095 8.06327H53.306V8.06294C53.2664 8.06302 53.2267 8.06286 53.187 8.06327H52.4336V9.04404H54.2095H54.7049V9.55325C54.7074 9.59294 54.7089 9.63474 54.709 9.68061C54.7102 10.8673 54.6999 12.054 54.7118 13.2406C54.7269 14.7462 54.7515 16.2518 54.7934 17.7569C54.7994 17.9704 54.9074 18.1891 54.9999 18.391C55.1917 18.8099 55.4512 19.1653 55.9429 19.275C56.0276 19.2938 56.0937 19.3848 56.1777 19.4193C56.3282 19.481 56.484 19.5613 56.6408 19.5693C57.0629 19.5912 57.4867 19.585 57.9096 19.5778C58.179 19.5732 58.2836 19.4036 58.2801 19.0133C58.2782 18.7705 58.1805 18.619 57.9131 18.6214Z" fill="#0B4EC0" stroke="#0B4EC0"/>
<path fill-rule="evenodd" clip-rule="evenodd" d="M69.0985 13.5891C68.9462 12.4487 69.067 11.2463 68.3775 10.2223C68.144 9.87542 67.9359 9.50374 67.659 9.19525C67.1126 8.58632 66.2849 8.46181 65.6037 8.08199C65.5614 8.05848 65.5027 8.0597 65.4512 8.05913C64.9972 8.05352 64.5264 7.96983 64.0934 8.0641C63.4771 8.1974 62.8402 8.37877 62.3026 8.69409C61.802 8.98769 61.3728 9.44477 60.9987 9.90079C60.6164 10.3672 60.2125 10.8542 60.1704 11.5146C60.1611 11.6532 60.0818 11.7865 60.0422 11.924C59.9474 12.2578 59.7981 12.5886 59.7752 12.9274C59.6872 14.2277 59.6736 15.5261 60.3117 16.728C60.3836 16.863 60.4281 17.0147 60.5136 17.1397C60.9639 17.7958 61.4663 18.3891 62.1521 18.8326C62.7715 19.2336 63.4697 19.4658 64.1498 19.5754C64.446 19.6233 64.7508 19.6585 65.0561 19.6609L65.0568 19.6616C65.0593 19.6616 65.0623 19.6616 65.0655 19.6609C65.2934 19.6628 65.5213 19.646 65.7461 19.6028C66.1328 19.5401 66.6277 19.3996 67.2001 19.0663C67.4176 18.9398 67.6461 18.7856 67.8839 18.5973C67.8846 18.5966 67.8858 18.5961 67.8864 18.5955C67.9917 18.5119 68.0988 18.422 68.2078 18.3248L68.2084 18.3241C68.3256 18.2244 68.4427 18.1247 68.5609 18.0262C68.7189 17.8949 68.7258 17.7505 68.5981 17.597C68.5194 17.5016 68.4434 17.4024 68.3534 17.3182C68.1806 17.1545 68.0159 17.1552 67.8536 17.3498C67.4453 17.8385 66.9131 18.1631 66.3408 18.414C65.7647 18.6673 65.1428 18.5583 64.5375 18.5874C63.6914 18.6271 63.0602 18.1898 62.432 17.7134C62.0685 17.4372 61.8542 17.0636 61.6156 16.687C61.2489 16.1097 61.0173 15.4989 60.956 14.8262C60.9378 14.6262 60.9346 14.4828 60.9591 14.3784V14.0815H61.7051C61.7267 14.0814 61.7482 14.0815 61.7698 14.0815H63.1944V14.0816H65.0227V14.0834C66.137 14.0834 67.252 14.0884 68.3664 14.0784C68.5461 14.0771 68.7467 14.0468 68.8961 13.9595C69.0032 13.8963 69.114 13.7055 69.0985 13.5891ZM67.3975 13.0644C66.4479 13.0676 65.4981 13.0651 64.5481 13.0651H61.8534C61.7815 13.0651 61.709 13.0681 61.6365 13.0633C61.0666 13.0217 60.9762 12.8259 61.1155 12.2704C61.2729 11.6435 61.5672 11.0816 61.8613 10.5235C62.0193 10.2249 62.29 9.96789 62.5551 9.7461C63.5586 8.90612 65.2472 8.76793 66.2447 9.46787C66.7749 9.8402 67.1161 10.3085 67.4395 10.8654C67.7573 11.4136 67.7808 11.9693 67.854 12.5429C67.9006 12.9083 67.7716 13.0632 67.3975 13.0644Z" fill="#0B4EC0" stroke="#0B4EC0"/>
<path fill-rule="evenodd" clip-rule="evenodd" d="M80.0246 14.0565C80.4818 14.0559 80.6218 13.9202 80.5976 13.4612C80.5711 12.9471 80.4756 12.4335 80.4886 11.9219C80.5091 11.124 80.0363 10.5274 79.7204 9.87142C79.588 9.59579 79.347 9.34984 79.103 9.15595C78.6903 8.82647 77.4068 7.93436 75.2864 8.18274C74.6861 8.35053 74.0698 8.53596 73.5428 8.96832C72.8848 9.50787 72.3484 10.1304 71.9662 10.8663C71.719 11.342 71.6174 11.8946 71.4552 12.4137C71.4248 12.5108 71.4057 12.6156 71.4025 12.7171C71.3653 13.9375 71.2427 15.1522 71.7494 16.338C71.8844 16.6532 72.0361 16.9531 72.2096 17.2355C72.2096 17.2355 72.2096 17.2362 72.2103 17.2372C72.2301 17.2981 72.8031 18.981 75.3293 19.4623L75.33 19.463C75.6359 19.5206 75.9711 19.5615 76.3372 19.5795H76.3422C76.5106 19.5881 76.6847 19.5913 76.8662 19.5894L76.8519 19.5819C76.8805 19.5826 76.9083 19.5831 76.9362 19.5831C77.2193 19.5856 77.4844 19.5287 77.7402 19.4432C78.0711 19.3528 78.4736 19.2041 78.8912 18.9612C78.9085 18.9545 78.9258 18.9476 78.9432 18.9408C79.2381 18.8273 79.4853 18.5791 79.728 18.335C79.7844 18.2823 79.8402 18.2266 79.8953 18.169C79.8985 18.1652 79.9021 18.1621 79.9053 18.159C79.9207 18.1436 79.9368 18.128 79.953 18.1133C80.062 18.0109 80.132 17.9429 80.166 17.8828C80.1666 17.8822 80.1666 17.8816 80.1666 17.8816C80.2188 17.8233 80.2423 17.7942 80.2423 17.7942L80.1556 17.7002C80.1216 17.6412 80.0614 17.5694 79.9778 17.4689C79.8633 17.3316 79.7919 17.2553 79.7257 17.2355H79.725C79.7015 17.2281 79.6785 17.2281 79.6538 17.2355C79.5844 17.2553 79.5045 17.3321 79.3712 17.4598C79.196 17.6282 79.0168 17.7924 78.8279 17.9411C78.4761 18.1802 78.0238 18.4217 77.4968 18.5618H77.4949C77.2069 18.638 76.8959 18.6838 76.5671 18.682C76.2697 18.6801 75.9691 18.6522 75.6743 18.5916C75.4421 18.5446 75.2128 18.477 74.9898 18.3866C74.4726 18.101 73.9727 17.8031 73.5831 17.3619C73.4592 17.2139 73.3427 17.051 73.2349 16.8725C73.2152 16.8373 73.1958 16.8007 73.1772 16.7636C73.0924 16.5944 73.0069 16.4278 72.9259 16.2605C72.7089 15.7426 72.5516 15.1256 72.4724 14.3972C72.4741 14.3871 72.4764 14.3772 72.4786 14.3676V14.0593H73.1076C73.1944 14.0535 73.2819 14.0559 73.3694 14.0559H76.6196C76.6196 14.0565 76.6196 14.0571 76.6196 14.0571C77.7549 14.0571 78.8897 14.0584 80.0246 14.0565ZM76.0936 13.0821V13.0797H73.464C73.381 13.0797 73.2986 13.0815 73.2162 13.0779C72.5541 13.0487 72.417 12.8214 72.6705 12.2063C72.764 11.9796 72.7932 11.7224 72.9053 11.5075C73.1395 11.0584 73.4008 10.6216 73.6678 10.1906C73.9577 9.7229 74.4644 9.52405 74.9024 9.24151C74.9284 9.22483 74.9558 9.20686 74.9849 9.19889C75.9512 8.94863 76.8785 8.87666 77.8033 9.43613C78.5603 9.89386 78.9623 10.5852 79.2534 11.3441C79.4177 11.7727 79.4164 12.2744 79.4344 12.7453C79.4449 13.0383 79.1817 13.0816 78.9394 13.0823C77.991 13.0827 77.0419 13.0821 76.0936 13.0821Z" fill="#0B4EC0" stroke="#0B4EC0"/>
<path fill-rule="evenodd" clip-rule="evenodd" d="M96.5546 19.0726C96.3732 18.1182 96.2685 17.158 96.3006 16.1836C96.3181 15.6682 96.3038 15.1516 96.3038 14.6355C96.3038 13.8408 96.3354 13.0448 96.2956 12.2519C96.2907 12.1516 96.2858 12.0511 96.2796 11.9508V11.949C96.2758 11.7514 96.2584 11.5488 96.2258 11.3439C96.1557 10.8042 96.0096 10.284 95.6528 9.82738C95.1497 9.05937 94.306 8.4219 92.9809 8.17172C92.6891 8.1165 92.3739 8.07998 92.0332 8.0651C91.9192 8.06014 91.8021 8.05762 91.682 8.05762C91.5661 8.05762 91.4534 8.06079 91.3432 8.06624C91.0384 8.08112 90.754 8.11642 90.4889 8.16847C90.0553 8.25338 89.6731 8.38286 89.3368 8.54267C87.5365 9.39193 87.0417 11.0805 86.9907 11.2715C86.987 11.2831 86.9859 11.2894 86.9859 11.2894L86.9926 11.2913C87.0144 11.4486 87.1654 11.5166 87.4312 11.5173C87.5769 11.5173 87.723 11.5166 87.8687 11.5161C88.1678 11.5136 88.467 11.5111 88.7655 11.5122C88.9922 11.5122 89.2178 11.5154 89.4438 11.5222C89.7072 11.5309 89.867 11.4442 89.9958 11.2268C90.2753 10.7572 90.6809 10.5038 91.2434 10.5286C91.4806 10.5385 91.7186 10.5299 91.9557 10.5299C92.7537 10.528 93.4165 11.192 93.4195 11.9979C93.4214 12.3765 93.3242 12.5202 92.9482 12.5529C92.6111 12.5821 92.2729 12.5914 91.9341 12.5932C88.8715 12.4619 87.7099 13.7257 87.2639 14.3655C87.1643 14.5018 87.0836 14.6475 87.0447 14.7966C86.8706 15.4669 86.7114 16.1466 86.8347 16.8656C86.9369 17.4635 87.1964 17.9658 87.5775 18.3994H87.5769C87.5769 18.3994 87.5991 18.4279 87.6457 18.4755C87.6487 18.4787 87.6518 18.4817 87.6555 18.4861C87.7472 18.5846 87.8475 18.6689 87.9541 18.7413C87.9572 18.7432 87.9603 18.7457 87.9633 18.7482C88.2558 18.9637 88.7247 19.2333 89.4018 19.4078C89.7901 19.5088 90.2479 19.5782 90.7807 19.5894C90.7919 19.5894 90.8029 19.59 90.8141 19.59C90.8421 19.5894 90.8711 19.5882 90.9008 19.5862C90.9119 19.5856 90.9231 19.5851 90.9343 19.5845C91.0612 19.5777 91.187 19.5602 91.3109 19.5268C91.8969 19.4017 92.6322 19.0882 93.2994 18.6045C93.4009 18.6391 93.4759 18.7581 93.5384 18.9743C93.6456 19.3442 93.8989 19.5473 94.2484 19.5647C94.897 19.5969 95.5485 19.5863 96.1984 19.5702C96.5212 19.562 96.6184 19.4053 96.5546 19.0726ZM90.2033 14.9892C90.7446 14.5829 91.3436 14.4919 91.9905 14.5414C92.3305 14.5594 92.67 14.5735 93.0095 14.5971C93.2678 14.6151 93.4022 14.7756 93.4133 15.0226C93.4251 15.2897 93.4133 15.5585 93.4054 15.8268C93.3855 16.5218 92.823 16.738 92.3312 16.9665C91.7717 17.2261 91.1467 17.1817 90.5626 17.0744C90.0831 16.9864 89.7914 16.5776 89.6161 16.1365C89.504 15.8539 89.9023 15.2154 90.2033 14.9892Z" fill="#0B4EC0"/>
<path fill-rule="evenodd" clip-rule="evenodd" d="M127.102 13.8455C127.083 13.4955 127.096 13.1397 127.035 12.7968C127.016 12.6898 126.993 12.5835 126.966 12.4776L126.967 12.4777C126.881 12.0765 126.774 11.7098 126.649 11.3727C126.608 11.2325 126.561 11.0951 126.489 10.9727C126.483 10.9621 126.477 10.9517 126.47 10.9413C125.656 9.15963 124.245 8.36535 122.587 8.13364C122.494 8.10843 122.4 8.08703 122.305 8.07329C122.019 8.03189 121.722 8.03466 121.43 8.05727C121.43 8.05727 121.43 8.05727 121.43 8.05727C121.381 8.06101 121.333 8.06516 121.286 8.06987C120.963 8.10159 120.644 8.18284 120.329 8.26499C120.052 8.33762 119.769 8.41309 119.513 8.53801C119.075 8.752 118.621 8.96094 118.238 9.2556C117.897 9.51838 117.606 9.86924 117.359 10.2267C117.099 10.6018 116.826 11.0092 116.723 11.4414C116.557 12.1388 116.451 12.8685 116.454 13.5838C116.46 14.7682 116.441 15.9826 117.144 17.0312C117.403 17.4166 117.686 17.7938 118.007 18.1265C118.258 18.3853 118.574 18.5874 118.883 18.7807C119.12 18.9291 119.388 19.0302 119.647 19.1407C119.769 19.1927 119.917 19.1929 120.029 19.258C120.834 19.7281 121.721 19.6317 122.567 19.5308C123.189 19.4565 123.802 19.192 124.384 18.9318C124.747 18.7692 125.041 18.4539 125.371 18.2127C125.984 17.7633 126.336 17.0927 126.595 16.4379C126.916 15.6267 127.192 14.7602 127.102 13.8455ZM123.56 16.2624C123.378 16.5154 123.145 16.7373 122.847 16.9162C122.677 17.0182 122.465 17.0651 122.266 17.0992C122.075 17.132 121.872 17.0935 121.68 17.124C120.64 17.2887 119.776 16.2733 119.504 15.4483C119.281 14.7685 119.159 14.1062 119.24 13.4301C119.368 12.3579 119.656 11.3288 120.66 10.6952C120.745 10.642 120.848 10.5952 120.945 10.5905C121.407 10.5683 121.882 10.49 122.33 10.5668C122.618 10.6163 122.861 10.739 123.076 10.9074C123.804 11.428 124.307 12.538 124.307 13.8233C124.307 14.7972 124.017 15.6701 123.56 16.2624Z" fill="#0B4EC0"/>
<path fill-rule="evenodd" clip-rule="evenodd" d="M107.704 8.00691C107.044 7.99951 106.384 8.00447 105.724 8.00569L105.682 8.00325H104.897L103.612 13.3411C103.549 13.5468 103.493 13.7542 103.461 13.9655C103.46 13.9705 103.459 13.976 103.458 13.981L103.344 14.4567L103.08 15.5532L102.939 15.0663L100.891 8.00325H97.6084L97.9039 8.863L101.569 19.5195C101.663 19.6037 101.788 19.644 101.951 19.6428C102.591 19.6391 103.231 19.6477 103.871 19.6359C104.089 19.6315 104.226 19.6249 104.32 19.5896H104.321L104.321 19.5889C104.365 19.5735 104.4 19.5505 104.429 19.5201L104.429 19.5195L108.078 8.13883C108.006 8.05408 107.88 8.00943 107.704 8.00691Z" fill="#0B4EC0"/>
<defs>
<linearGradient id="paint0_linear" x1="10.7347" y1="0.279297" x2="10.7347" y2="27.3447" gradientUnits="userSpaceOnUse">
<stop stop-color="#0059D3"/>
<stop offset="1" stop-color="#1544AD"/>
</linearGradient>
<linearGradient id="paint1_linear" x1="29.2987" y1="0.460937" x2="29.2987" y2="27.3432" gradientUnits="userSpaceOnUse">
<stop stop-color="#0059D3"/>
<stop offset="1" stop-color="#1544AD"/>
</linearGradient>
</defs>
</svg>
