<svg width="768" height="858" viewBox="0 0 768 858" fill="none" xmlns="http://www.w3.org/2000/svg">
<line x1="651.222" y1="361.074" x2="1016" y2="51.0064" stroke="#D4D6D9" stroke-opacity="0.5"/>
<line x1="618.993" y1="361.074" x2="983.774" y2="51.0064" stroke="#D4D6D9" stroke-opacity="0.5"/>
<line x1="635.108" y1="361.074" x2="999.889" y2="51.0064" stroke="#D4D6D9" stroke-opacity="0.5"/>
<line x1="586.764" y1="361.074" x2="951.545" y2="51.0064" stroke="#D4D6D9" stroke-opacity="0.5"/>
<line x1="602.879" y1="361.074" x2="967.66" y2="51.0064" stroke="#D4D6D9" stroke-opacity="0.5"/>
<line x1="554.535" y1="361.074" x2="919.316" y2="51.0064" stroke="#D4D6D9" stroke-opacity="0.5"/>
<line x1="570.649" y1="361.074" x2="935.431" y2="51.0064" stroke="#D4D6D9" stroke-opacity="0.5"/>
<line x1="538.42" y1="361.074" x2="903.202" y2="51.0064" stroke="#D4D6D9" stroke-opacity="0.5"/>
<line x1="522.306" y1="361.074" x2="887.088" y2="51.0064" stroke="#D4D6D9" stroke-opacity="0.5"/>
<line x1="490.077" y1="361.074" x2="854.859" y2="51.0064" stroke="#D4D6D9" stroke-opacity="0.5"/>
<line x1="506.191" y1="361.074" x2="870.973" y2="51.0064" stroke="#D4D6D9" stroke-opacity="0.5"/>
<line x1="457.848" y1="361.074" x2="822.63" y2="51.0064" stroke="#D4D6D9" stroke-opacity="0.5"/>
<line x1="473.962" y1="361.074" x2="838.744" y2="51.0064" stroke="#D4D6D9" stroke-opacity="0.5"/>
<line x1="393.39" y1="361.074" x2="758.172" y2="51.0064" stroke="#D4D6D9" stroke-opacity="0.5"/>
<line x1="425.619" y1="361.074" x2="790.401" y2="51.0064" stroke="#D4D6D9" stroke-opacity="0.5"/>
<line x1="361.161" y1="361.074" x2="725.942" y2="51.0064" stroke="#D4D6D9" stroke-opacity="0.5"/>
<line x1="441.733" y1="361.074" x2="806.515" y2="51.0064" stroke="#D4D6D9" stroke-opacity="0.5"/>
<line x1="377.276" y1="361.074" x2="742.057" y2="51.0064" stroke="#D4D6D9" stroke-opacity="0.5"/>
<line x1="409.505" y1="361.075" x2="833.613" y2="1.2469" stroke="#0047FF"/>
<line x1="328.932" y1="361.074" x2="693.713" y2="51.0064" stroke="#D4D6D9" stroke-opacity="0.5"/>
<line x1="345.046" y1="361.074" x2="709.828" y2="51.0064" stroke="#D4D6D9" stroke-opacity="0.5"/>
<line x1="296.703" y1="361.074" x2="661.484" y2="51.0064" stroke="#D4D6D9" stroke-opacity="0.5"/>
<line x1="312.817" y1="361.074" x2="677.599" y2="51.0064" stroke="#D4D6D9" stroke-opacity="0.5"/>
<line x1="280.588" y1="361.074" x2="645.37" y2="51.0064" stroke="#D4D6D9" stroke-opacity="0.5"/>
<path d="M617.918 251.892L550.973 308.18L608.236 308.18L674.758 251.892L617.918 251.892Z" fill="#0047FF"/>
<g opacity="0.5">
<line x1="93.0668" y1="856.874" x2="457.848" y2="546.806" stroke="#D4D6D9" stroke-opacity="0.5"/>
<line x1="60.8373" y1="856.874" x2="425.619" y2="546.806" stroke="#D4D6D9" stroke-opacity="0.5"/>
<line x1="76.9525" y1="856.874" x2="441.734" y2="546.806" stroke="#D4D6D9" stroke-opacity="0.5"/>
<line x1="28.6083" y1="856.874" x2="393.39" y2="546.806" stroke="#D4D6D9" stroke-opacity="0.5"/>
<line x1="44.7235" y1="856.874" x2="409.505" y2="546.806" stroke="#D4D6D9" stroke-opacity="0.5"/>
<line x1="-3.6207" y1="856.874" x2="361.161" y2="546.806" stroke="#D4D6D9" stroke-opacity="0.5"/>
<line x1="12.494" y1="856.874" x2="377.275" y2="546.806" stroke="#D4D6D9" stroke-opacity="0.5"/>
<line x1="-19.735" y1="856.874" x2="345.046" y2="546.806" stroke="#D4D6D9" stroke-opacity="0.5"/>
<line x1="-35.8492" y1="856.874" x2="328.932" y2="546.806" stroke="#D4D6D9" stroke-opacity="0.5"/>
<line x1="-68.0782" y1="856.874" x2="296.703" y2="546.806" stroke="#D4D6D9" stroke-opacity="0.5"/>
<line x1="-51.964" y1="856.874" x2="312.817" y2="546.806" stroke="#D4D6D9" stroke-opacity="0.5"/>
<line x1="-100.307" y1="856.874" x2="264.474" y2="546.806" stroke="#D4D6D9" stroke-opacity="0.5"/>
<line x1="-84.193" y1="856.874" x2="280.588" y2="546.806" stroke="#D4D6D9" stroke-opacity="0.5"/>
<line x1="-164.765" y1="856.874" x2="200.016" y2="546.806" stroke="#D4D6D9" stroke-opacity="0.5"/>
<line x1="-132.536" y1="856.874" x2="232.245" y2="546.806" stroke="#D4D6D9" stroke-opacity="0.5"/>
<line x1="-196.995" y1="856.874" x2="167.787" y2="546.806" stroke="#D4D6D9" stroke-opacity="0.5"/>
<line x1="-116.422" y1="856.874" x2="248.359" y2="546.806" stroke="#D4D6D9" stroke-opacity="0.5"/>
<line x1="-180.879" y1="856.874" x2="183.902" y2="546.806" stroke="#D4D6D9" stroke-opacity="0.5"/>
<line x1="-148.651" y1="856.874" x2="282.704" y2="489.337" stroke="#0047FF"/>
<line x1="-229.224" y1="856.874" x2="135.558" y2="546.806" stroke="#D4D6D9" stroke-opacity="0.5"/>
<line x1="-213.109" y1="856.874" x2="151.672" y2="546.806" stroke="#D4D6D9" stroke-opacity="0.5"/>
<line x1="-261.453" y1="856.874" x2="103.329" y2="546.806" stroke="#D4D6D9" stroke-opacity="0.5"/>
<line x1="-245.338" y1="856.874" x2="119.443" y2="546.806" stroke="#D4D6D9" stroke-opacity="0.5"/>
<line x1="-277.567" y1="856.874" x2="87.2145" y2="546.806" stroke="#D4D6D9" stroke-opacity="0.5"/>
<line x1="-148.651" y1="856.874" x2="282.704" y2="489.337" stroke="#0047FF"/>
</g>
<path d="M668.14 439.862L516.255 567.569L646.173 567.569L797.099 439.862L668.14 439.862Z" fill="url(#paint0_linear)" fill-opacity="0.67"/>
<path d="M602.041 536.041L517.275 607.693L540.706 607.693L624.711 536.041L602.041 536.041Z" fill="#0047FF"/>
<path d="M153.578 630.569L68.8125 702.221L92.2428 702.221L176.248 630.57L153.578 630.569Z" fill="#EEEEEE"/>
<defs>
<linearGradient id="paint0_linear" x1="570.391" y1="669.177" x2="668.208" y2="439.862" gradientUnits="userSpaceOnUse">
<stop stop-color="#F3F3F3"/>
<stop offset="1" stop-color="#F3F3F3" stop-opacity="0"/>
</linearGradient>
</defs>
</svg>
