<svg width="1866" height="672" viewBox="0 0 1866 672" fill="none" xmlns="http://www.w3.org/2000/svg">
<line x1="1500.31" y1="360.694" x2="1865.09" y2="50.6265" stroke="#D4D6D9" stroke-opacity="0.5"/>
<line x1="1468.08" y1="360.694" x2="1832.86" y2="50.6265" stroke="#D4D6D9" stroke-opacity="0.5"/>
<line x1="1484.2" y1="360.694" x2="1848.98" y2="50.6265" stroke="#D4D6D9" stroke-opacity="0.5"/>
<line x1="1435.85" y1="360.694" x2="1800.63" y2="50.6265" stroke="#D4D6D9" stroke-opacity="0.5"/>
<line x1="1451.97" y1="360.694" x2="1816.75" y2="50.6265" stroke="#D4D6D9" stroke-opacity="0.5"/>
<line x1="1403.62" y1="360.694" x2="1768.4" y2="50.6265" stroke="#D4D6D9" stroke-opacity="0.5"/>
<line x1="1419.74" y1="360.694" x2="1784.52" y2="50.6265" stroke="#D4D6D9" stroke-opacity="0.5"/>
<line x1="1387.51" y1="360.694" x2="1752.29" y2="50.6265" stroke="#D4D6D9" stroke-opacity="0.5"/>
<line x1="1371.39" y1="360.694" x2="1736.18" y2="50.6265" stroke="#D4D6D9" stroke-opacity="0.5"/>
<line x1="1339.17" y1="360.694" x2="1703.95" y2="50.6265" stroke="#D4D6D9" stroke-opacity="0.5"/>
<line x1="1355.28" y1="360.694" x2="1720.06" y2="50.6265" stroke="#D4D6D9" stroke-opacity="0.5"/>
<line x1="1306.94" y1="360.694" x2="1671.72" y2="50.6265" stroke="#D4D6D9" stroke-opacity="0.5"/>
<line x1="1323.05" y1="360.694" x2="1687.83" y2="50.6265" stroke="#D4D6D9" stroke-opacity="0.5"/>
<line x1="1242.48" y1="360.694" x2="1607.26" y2="50.6265" stroke="#D4D6D9" stroke-opacity="0.5"/>
<line x1="1274.71" y1="360.694" x2="1639.49" y2="50.6265" stroke="#D4D6D9" stroke-opacity="0.5"/>
<line x1="1210.25" y1="360.694" x2="1575.03" y2="50.6265" stroke="#D4D6D9" stroke-opacity="0.5"/>
<line x1="1290.82" y1="360.694" x2="1655.6" y2="50.6265" stroke="#D4D6D9" stroke-opacity="0.5"/>
<line x1="1226.36" y1="360.694" x2="1591.15" y2="50.6265" stroke="#D4D6D9" stroke-opacity="0.5"/>
<line x1="1258.59" y1="360.695" x2="1682.7" y2="0.867013" stroke="#0047FF"/>
<line x1="1178.02" y1="360.694" x2="1542.8" y2="50.6265" stroke="#D4D6D9" stroke-opacity="0.5"/>
<line x1="1194.13" y1="360.694" x2="1558.92" y2="50.6265" stroke="#D4D6D9" stroke-opacity="0.5"/>
<line x1="1145.79" y1="360.694" x2="1510.57" y2="50.6265" stroke="#D4D6D9" stroke-opacity="0.5"/>
<line x1="1161.91" y1="360.694" x2="1526.69" y2="50.6265" stroke="#D4D6D9" stroke-opacity="0.5"/>
<line x1="1129.68" y1="360.694" x2="1494.46" y2="50.6265" stroke="#D4D6D9" stroke-opacity="0.5"/>
<path d="M1487.01 231.512L1420.06 287.8L1477.32 287.8L1543.85 231.512L1487.01 231.512Z" fill="#0047FF"/>
<g opacity="0.5">
<line x1="244.102" y1="670.765" x2="608.883" y2="360.697" stroke="#D4D6D9" stroke-opacity="0.5"/>
<line x1="211.872" y1="670.765" x2="576.654" y2="360.697" stroke="#D4D6D9" stroke-opacity="0.5"/>
<line x1="227.988" y1="670.765" x2="592.769" y2="360.697" stroke="#D4D6D9" stroke-opacity="0.5"/>
<line x1="179.644" y1="670.765" x2="544.425" y2="360.697" stroke="#D4D6D9" stroke-opacity="0.5"/>
<line x1="195.758" y1="670.765" x2="560.54" y2="360.697" stroke="#D4D6D9" stroke-opacity="0.5"/>
<line x1="147.414" y1="670.765" x2="512.196" y2="360.697" stroke="#D4D6D9" stroke-opacity="0.5"/>
<line x1="163.53" y1="670.765" x2="528.311" y2="360.697" stroke="#D4D6D9" stroke-opacity="0.5"/>
<line x1="131.3" y1="670.765" x2="496.082" y2="360.697" stroke="#D4D6D9" stroke-opacity="0.5"/>
<line x1="115.186" y1="670.765" x2="479.967" y2="360.697" stroke="#D4D6D9" stroke-opacity="0.5"/>
<line x1="82.9574" y1="670.765" x2="447.739" y2="360.697" stroke="#D4D6D9" stroke-opacity="0.5"/>
<line x1="99.0717" y1="670.765" x2="463.853" y2="360.697" stroke="#D4D6D9" stroke-opacity="0.5"/>
<line x1="50.7279" y1="670.765" x2="415.509" y2="360.697" stroke="#D4D6D9" stroke-opacity="0.5"/>
<line x1="66.8422" y1="670.765" x2="431.624" y2="360.697" stroke="#D4D6D9" stroke-opacity="0.5"/>
<line x1="-13.7301" y1="670.765" x2="351.051" y2="360.697" stroke="#D4D6D9" stroke-opacity="0.5"/>
<line x1="18.4984" y1="670.765" x2="383.28" y2="360.697" stroke="#D4D6D9" stroke-opacity="0.5"/>
<line x1="-45.9596" y1="670.765" x2="318.822" y2="360.697" stroke="#D4D6D9" stroke-opacity="0.5"/>
<line x1="34.6127" y1="670.765" x2="399.394" y2="360.697" stroke="#D4D6D9" stroke-opacity="0.5"/>
<line x1="-29.8443" y1="670.765" x2="334.937" y2="360.697" stroke="#D4D6D9" stroke-opacity="0.5"/>
<line x1="2.38373" y1="670.765" x2="433.739" y2="303.227" stroke="#0047FF"/>
<line x1="-78.1881" y1="670.765" x2="286.593" y2="360.697" stroke="#D4D6D9" stroke-opacity="0.5"/>
<line x1="-62.0738" y1="670.765" x2="302.708" y2="360.697" stroke="#D4D6D9" stroke-opacity="0.5"/>
<line x1="-110.418" y1="670.765" x2="254.364" y2="360.697" stroke="#D4D6D9" stroke-opacity="0.5"/>
<line x1="-94.3023" y1="670.765" x2="270.479" y2="360.697" stroke="#D4D6D9" stroke-opacity="0.5"/>
<line x1="-126.532" y1="670.765" x2="238.25" y2="360.697" stroke="#D4D6D9" stroke-opacity="0.5"/>
<path d="M235.929 530.072L168.984 586.36L226.247 586.36L292.769 530.072L235.929 530.072Z" fill="#0047FF"/>
<line x1="2.38373" y1="670.765" x2="433.739" y2="303.227" stroke="#0047FF"/>
<path d="M235.929 530.072L168.984 586.36L226.247 586.36L292.769 530.072L235.929 530.072Z" fill="#0047FF"/>
</g>
<line x1="2.38373" y1="670.764" x2="433.739" y2="303.226" stroke="#0047FF"/>
<path d="M235.929 530.072L168.984 586.36L226.247 586.36L292.769 530.072L235.929 530.072Z" fill="#0047FF"/>
</svg>
