<svg width="1920" height="624" viewBox="0 0 1920 624" fill="none" xmlns="http://www.w3.org/2000/svg">
<path d="M1273.9 623.605L535.408 -17.0664L518.314 -41.2712L2324.91 -51.4487L2283.83 588.58L1273.9 623.605Z" fill="#F9F9F9"/>
<line x1="185.928" y1="309.687" x2="550.71" y2="-0.380784" stroke="#D4D6D9" stroke-opacity="0.5"/>
<line x1="153.699" y1="309.687" x2="518.48" y2="-0.380784" stroke="#D4D6D9" stroke-opacity="0.5"/>
<line x1="169.814" y1="309.687" x2="534.595" y2="-0.380784" stroke="#D4D6D9" stroke-opacity="0.5"/>
<line x1="121.47" y1="309.687" x2="486.252" y2="-0.380784" stroke="#D4D6D9" stroke-opacity="0.5"/>
<line x1="137.584" y1="309.687" x2="502.366" y2="-0.380784" stroke="#D4D6D9" stroke-opacity="0.5"/>
<line x1="89.2406" y1="309.687" x2="454.022" y2="-0.380784" stroke="#D4D6D9" stroke-opacity="0.5"/>
<line x1="105.356" y1="309.687" x2="470.137" y2="-0.380784" stroke="#D4D6D9" stroke-opacity="0.5"/>
<line x1="73.1264" y1="309.687" x2="437.908" y2="-0.380784" stroke="#D4D6D9" stroke-opacity="0.5"/>
<line x1="57.0121" y1="309.687" x2="421.794" y2="-0.380784" stroke="#D4D6D9" stroke-opacity="0.5"/>
<line x1="24.7836" y1="309.687" x2="389.565" y2="-0.380784" stroke="#D4D6D9" stroke-opacity="0.5"/>
<line x1="40.8979" y1="309.687" x2="405.679" y2="-0.380784" stroke="#D4D6D9" stroke-opacity="0.5"/>
<line x1="-7.4459" y1="309.687" x2="357.336" y2="-0.380784" stroke="#D4D6D9" stroke-opacity="0.5"/>
<line x1="8.66836" y1="309.687" x2="373.45" y2="-0.380784" stroke="#D4D6D9" stroke-opacity="0.5"/>
<line x1="-71.9039" y1="309.687" x2="292.878" y2="-0.380784" stroke="#D4D6D9" stroke-opacity="0.5"/>
<line x1="-39.6754" y1="309.687" x2="325.106" y2="-0.380784" stroke="#D4D6D9" stroke-opacity="0.5"/>
<line x1="-104.133" y1="309.687" x2="260.648" y2="-0.380784" stroke="#D4D6D9" stroke-opacity="0.5"/>
<line x1="-23.5611" y1="309.687" x2="341.22" y2="-0.380784" stroke="#D4D6D9" stroke-opacity="0.5"/>
<line x1="-88.0182" y1="309.687" x2="276.763" y2="-0.380784" stroke="#D4D6D9" stroke-opacity="0.5"/>
<line x1="-55.7896" y1="309.687" x2="308.992" y2="-0.380784" stroke="#D4D6D9" stroke-opacity="0.5"/>
<line x1="-136.362" y1="309.687" x2="228.42" y2="-0.380784" stroke="#D4D6D9" stroke-opacity="0.5"/>
<line x1="-120.248" y1="309.687" x2="244.534" y2="-0.380784" stroke="#D4D6D9" stroke-opacity="0.5"/>
<line x1="-168.591" y1="309.687" x2="196.19" y2="-0.380784" stroke="#D4D6D9" stroke-opacity="0.5"/>
<line x1="-152.476" y1="309.687" x2="212.305" y2="-0.380784" stroke="#D4D6D9" stroke-opacity="0.5"/>
<line x1="-184.706" y1="309.687" x2="180.076" y2="-0.380784" stroke="#D4D6D9" stroke-opacity="0.5"/>
</svg>
