<svg width="768" height="993" viewBox="0 0 768 993" fill="none" xmlns="http://www.w3.org/2000/svg">
<path d="M-52.8454 737.57L-348.45 977.073L55.37 977.073L347.994 737.57L-52.8454 737.57Z" fill="#373E4B"/>
<g filter="url(#filter0_d)">
<path d="M231.547 654.757L-135.041 972.876L397.169 972.876L759.828 654.758L231.547 654.757Z" fill="#373E4B"/>
</g>
<g filter="url(#filter1_d)">
<path d="M625.482 654.201L255.344 972.876L852.784 972.876L1218.51 654.201L625.482 654.201Z" fill="#373E4B"/>
</g>
<path d="M530.523 178.861L297.797 374.541L496.863 374.541L728.12 178.861L530.523 178.861Z" fill="#F3F3F3"/>
<line x1="595.852" y1="310.858" x2="960.633" y2="0.790603" stroke="#C4C4C4" stroke-opacity="0.5"/>
<line x1="563.622" y1="310.858" x2="928.404" y2="0.790603" stroke="#C4C4C4" stroke-opacity="0.5"/>
<line x1="579.738" y1="310.858" x2="944.519" y2="0.790603" stroke="#C4C4C4" stroke-opacity="0.5"/>
<line x1="531.393" y1="310.858" x2="896.175" y2="0.790603" stroke="#C4C4C4" stroke-opacity="0.5"/>
<line x1="547.509" y1="310.858" x2="912.29" y2="0.790603" stroke="#C4C4C4" stroke-opacity="0.5"/>
<line x1="499.164" y1="310.858" x2="863.946" y2="0.790603" stroke="#C4C4C4" stroke-opacity="0.5"/>
<line x1="515.279" y1="310.858" x2="880.061" y2="0.790603" stroke="#C4C4C4" stroke-opacity="0.5"/>
<line x1="483.05" y1="310.858" x2="847.832" y2="0.790603" stroke="#C4C4C4" stroke-opacity="0.5"/>
<line x1="466.936" y1="310.858" x2="831.717" y2="0.790603" stroke="#C4C4C4" stroke-opacity="0.5"/>
<line x1="434.707" y1="310.858" x2="799.488" y2="0.790603" stroke="#C4C4C4" stroke-opacity="0.5"/>
<line x1="450.821" y1="310.858" x2="815.603" y2="0.790603" stroke="#C4C4C4" stroke-opacity="0.5"/>
<line x1="402.478" y1="310.858" x2="767.259" y2="0.790603" stroke="#C4C4C4" stroke-opacity="0.5"/>
<line x1="418.592" y1="310.858" x2="783.374" y2="0.790603" stroke="#C4C4C4" stroke-opacity="0.5"/>
<line x1="338.02" y1="310.858" x2="702.801" y2="0.790603" stroke="#C4C4C4" stroke-opacity="0.5"/>
<line x1="370.249" y1="310.858" x2="735.03" y2="0.790603" stroke="#C4C4C4" stroke-opacity="0.5"/>
<line x1="305.79" y1="310.858" x2="670.572" y2="0.790603" stroke="#C4C4C4" stroke-opacity="0.5"/>
<line x1="386.363" y1="310.858" x2="751.145" y2="0.790603" stroke="#C4C4C4" stroke-opacity="0.5"/>
<line x1="321.906" y1="310.858" x2="686.687" y2="0.790603" stroke="#C4C4C4" stroke-opacity="0.5"/>
<line x1="354.134" y1="310.858" x2="718.915" y2="0.790603" stroke="#C4C4C4" stroke-opacity="0.5"/>
<line x1="273.561" y1="310.858" x2="638.343" y2="0.790603" stroke="#C4C4C4" stroke-opacity="0.5"/>
<line x1="289.676" y1="310.858" x2="654.458" y2="0.790603" stroke="#C4C4C4" stroke-opacity="0.5"/>
<line x1="241.332" y1="310.858" x2="606.114" y2="0.790603" stroke="#C4C4C4" stroke-opacity="0.5"/>
<line x1="257.447" y1="310.858" x2="622.229" y2="0.790603" stroke="#C4C4C4" stroke-opacity="0.5"/>
<line x1="225.218" y1="310.858" x2="590" y2="0.790603" stroke="#C4C4C4" stroke-opacity="0.5"/>
<line x1="726.03" y1="310.858" x2="1090.81" y2="0.790603" stroke="#C4C4C4"/>
<line x1="758.259" y1="310.858" x2="1123.04" y2="0.790603" stroke="#C4C4C4"/>
<line x1="693.801" y1="310.858" x2="1058.58" y2="0.790603" stroke="#C4C4C4"/>
<line x1="709.916" y1="310.858" x2="1074.7" y2="0.790603" stroke="#C4C4C4"/>
<line x1="742.144" y1="310.858" x2="1106.93" y2="0.790603" stroke="#C4C4C4"/>
<line x1="661.572" y1="310.858" x2="1026.35" y2="0.790603" stroke="#C4C4C4"/>
<line x1="677.686" y1="310.858" x2="1042.47" y2="0.790603" stroke="#C4C4C4"/>
<line x1="629.343" y1="310.858" x2="994.124" y2="0.790603" stroke="#C4C4C4"/>
<line x1="645.457" y1="310.858" x2="1010.24" y2="0.790603" stroke="#C4C4C4"/>
<line x1="613.228" y1="310.858" x2="978.01" y2="0.790603" stroke="#C4C4C4"/>
<line x1="-200.449" y1="926.98" x2="164.333" y2="616.913" stroke="#0047FF"/>
<line x1="-232.678" y1="926.98" x2="132.103" y2="616.913" stroke="#0047FF"/>
<line x1="-216.563" y1="926.98" x2="148.218" y2="616.913" stroke="#0047FF"/>
<line x1="-264.907" y1="926.98" x2="99.8741" y2="616.913" stroke="#0047FF"/>
<line x1="-248.792" y1="926.98" x2="115.989" y2="616.913" stroke="#0047FF"/>
<line x1="-297.136" y1="926.98" x2="67.6451" y2="616.913" stroke="#0047FF"/>
<line x1="-281.022" y1="926.98" x2="83.7599" y2="616.913" stroke="#0047FF"/>
<line x1="-313.251" y1="926.98" x2="51.5309" y2="616.913" stroke="#0047FF"/>
<line x1="-329.365" y1="926.98" x2="35.4166" y2="616.913" stroke="#0047FF"/>
<line x1="-361.594" y1="926.98" x2="3.1876" y2="616.913" stroke="#0047FF"/>
<line x1="-345.48" y1="926.98" x2="19.3019" y2="616.913" stroke="#0047FF"/>
<path d="M709.23 100.743L578.004 211.667L599.104 211.667L729.153 100.743H709.23Z" fill="#0047FF"/>
<defs>
<filter id="filter0_d" x="-155.041" y="634.757" width="934.869" height="358.119" filterUnits="userSpaceOnUse" color-interpolation-filters="sRGB">
<feFlood flood-opacity="0" result="BackgroundImageFix"/>
<feColorMatrix in="SourceAlpha" type="matrix" values="0 0 0 0 0 0 0 0 0 0 0 0 0 0 0 0 0 0 127 0"/>
<feOffset/>
<feGaussianBlur stdDeviation="10"/>
<feColorMatrix type="matrix" values="0 0 0 0 0 0 0 0 0 0 0 0 0 0 0 0 0 0 0.2 0"/>
<feBlend mode="normal" in2="BackgroundImageFix" result="effect1_dropShadow"/>
<feBlend mode="normal" in="SourceGraphic" in2="effect1_dropShadow" result="shape"/>
</filter>
<filter id="filter1_d" x="235.344" y="634.201" width="1003.17" height="358.675" filterUnits="userSpaceOnUse" color-interpolation-filters="sRGB">
<feFlood flood-opacity="0" result="BackgroundImageFix"/>
<feColorMatrix in="SourceAlpha" type="matrix" values="0 0 0 0 0 0 0 0 0 0 0 0 0 0 0 0 0 0 127 0"/>
<feOffset/>
<feGaussianBlur stdDeviation="10"/>
<feColorMatrix type="matrix" values="0 0 0 0 0 0 0 0 0 0 0 0 0 0 0 0 0 0 0.2 0"/>
<feBlend mode="normal" in2="BackgroundImageFix" result="effect1_dropShadow"/>
<feBlend mode="normal" in="SourceGraphic" in2="effect1_dropShadow" result="shape"/>
</filter>
</defs>
</svg>
