<svg width="768" height="1170" viewBox="0 0 768 1170" fill="none" xmlns="http://www.w3.org/2000/svg">
<line x1="651.222" y1="1169.07" x2="1016" y2="859.006" stroke="#D4D6D9" stroke-opacity="0.5"/>
<line x1="618.993" y1="1169.07" x2="983.774" y2="859.006" stroke="#D4D6D9" stroke-opacity="0.5"/>
<line x1="635.108" y1="1169.07" x2="999.889" y2="859.006" stroke="#D4D6D9" stroke-opacity="0.5"/>
<line x1="586.764" y1="1169.07" x2="951.545" y2="859.006" stroke="#D4D6D9" stroke-opacity="0.5"/>
<line x1="602.879" y1="1169.07" x2="967.66" y2="859.006" stroke="#D4D6D9" stroke-opacity="0.5"/>
<line x1="554.535" y1="1169.07" x2="919.316" y2="859.006" stroke="#D4D6D9" stroke-opacity="0.5"/>
<line x1="570.649" y1="1169.07" x2="935.431" y2="859.006" stroke="#D4D6D9" stroke-opacity="0.5"/>
<line x1="538.42" y1="1169.07" x2="903.202" y2="859.006" stroke="#D4D6D9" stroke-opacity="0.5"/>
<line x1="522.306" y1="1169.07" x2="887.088" y2="859.006" stroke="#D4D6D9" stroke-opacity="0.5"/>
<line x1="490.077" y1="1169.07" x2="854.859" y2="859.006" stroke="#D4D6D9" stroke-opacity="0.5"/>
<line x1="506.191" y1="1169.07" x2="870.973" y2="859.006" stroke="#D4D6D9" stroke-opacity="0.5"/>
<line x1="457.848" y1="1169.07" x2="822.63" y2="859.006" stroke="#D4D6D9" stroke-opacity="0.5"/>
<line x1="473.962" y1="1169.07" x2="838.744" y2="859.006" stroke="#D4D6D9" stroke-opacity="0.5"/>
<line x1="393.39" y1="1169.07" x2="758.172" y2="859.006" stroke="#D4D6D9" stroke-opacity="0.5"/>
<line x1="425.619" y1="1169.07" x2="790.401" y2="859.006" stroke="#D4D6D9" stroke-opacity="0.5"/>
<line x1="361.161" y1="1169.07" x2="725.942" y2="859.006" stroke="#D4D6D9" stroke-opacity="0.5"/>
<line x1="441.733" y1="1169.07" x2="806.515" y2="859.006" stroke="#D4D6D9" stroke-opacity="0.5"/>
<line x1="377.276" y1="1169.07" x2="742.057" y2="859.006" stroke="#D4D6D9" stroke-opacity="0.5"/>
<line x1="409.505" y1="1169.07" x2="833.613" y2="809.247" stroke="#0047FF"/>
<line x1="328.932" y1="1169.07" x2="693.713" y2="859.006" stroke="#D4D6D9" stroke-opacity="0.5"/>
<line x1="345.046" y1="1169.07" x2="709.828" y2="859.006" stroke="#D4D6D9" stroke-opacity="0.5"/>
<line x1="296.703" y1="1169.07" x2="661.484" y2="859.006" stroke="#D4D6D9" stroke-opacity="0.5"/>
<line x1="312.817" y1="1169.07" x2="677.599" y2="859.006" stroke="#D4D6D9" stroke-opacity="0.5"/>
<line x1="280.588" y1="1169.07" x2="645.37" y2="859.006" stroke="#D4D6D9" stroke-opacity="0.5"/>
<path d="M617.918 1059.89L550.973 1116.18L608.236 1116.18L674.758 1059.89L617.918 1059.89Z" fill="#0047FF"/>
<line x1="47.3051" y1="310.745" x2="412.087" y2="0.677321" stroke="#D4D6D9" stroke-opacity="0.5"/>
<line x1="15.0756" y1="310.745" x2="379.857" y2="0.677321" stroke="#D4D6D9" stroke-opacity="0.5"/>
<line x1="31.1908" y1="310.745" x2="395.972" y2="0.677321" stroke="#D4D6D9" stroke-opacity="0.5"/>
<line x1="-17.1534" y1="310.745" x2="347.628" y2="0.677321" stroke="#D4D6D9" stroke-opacity="0.5"/>
<line x1="-1.03818" y1="310.745" x2="363.743" y2="0.677321" stroke="#D4D6D9" stroke-opacity="0.5"/>
<line x1="-49.3824" y1="310.745" x2="315.399" y2="0.677321" stroke="#D4D6D9" stroke-opacity="0.5"/>
<line x1="-33.2677" y1="310.745" x2="331.514" y2="0.677321" stroke="#D4D6D9" stroke-opacity="0.5"/>
<line x1="-65.4967" y1="310.745" x2="299.285" y2="0.677321" stroke="#D4D6D9" stroke-opacity="0.5"/>
<line x1="-81.6109" y1="310.745" x2="283.171" y2="0.677321" stroke="#D4D6D9" stroke-opacity="0.5"/>
<line x1="-113.84" y1="310.745" x2="250.942" y2="0.677321" stroke="#D4D6D9" stroke-opacity="0.5"/>
<line x1="-97.7257" y1="310.745" x2="267.056" y2="0.677321" stroke="#D4D6D9" stroke-opacity="0.5"/>
<line x1="-146.069" y1="310.745" x2="218.713" y2="0.677321" stroke="#D4D6D9" stroke-opacity="0.5"/>
<line x1="-129.955" y1="310.745" x2="234.827" y2="0.677321" stroke="#D4D6D9" stroke-opacity="0.5"/>
<line x1="-210.527" y1="310.745" x2="154.255" y2="0.677321" stroke="#D4D6D9" stroke-opacity="0.5"/>
<line x1="-178.298" y1="310.745" x2="186.484" y2="0.677321" stroke="#D4D6D9" stroke-opacity="0.5"/>
<line x1="-242.756" y1="310.745" x2="122.025" y2="0.677321" stroke="#D4D6D9" stroke-opacity="0.5"/>
<line x1="-162.184" y1="310.745" x2="202.598" y2="0.677321" stroke="#D4D6D9" stroke-opacity="0.5"/>
<line x1="-226.641" y1="310.745" x2="138.14" y2="0.677321" stroke="#D4D6D9" stroke-opacity="0.5"/>
<line x1="-194.413" y1="310.745" x2="170.368" y2="0.677321" stroke="#D4D6D9" stroke-opacity="0.5"/>
<line x1="-274.985" y1="310.745" x2="89.796" y2="0.677321" stroke="#D4D6D9" stroke-opacity="0.5"/>
<line x1="-258.871" y1="310.745" x2="105.911" y2="0.677321" stroke="#D4D6D9" stroke-opacity="0.5"/>
<line x1="-307.214" y1="310.745" x2="57.567" y2="0.677321" stroke="#D4D6D9" stroke-opacity="0.5"/>
<line x1="-291.1" y1="310.745" x2="73.6817" y2="0.677321" stroke="#D4D6D9" stroke-opacity="0.5"/>
<line x1="-323.329" y1="310.745" x2="41.4527" y2="0.677321" stroke="#D4D6D9" stroke-opacity="0.5"/>
<path d="M241.061 62.1439L52.7598 221.313L71.9674 221.313L258.58 62.1436L241.061 62.1439Z" fill="white"/>
<path d="M90.8987 151.114L-97.4023 310.283L-78.1947 310.283L108.418 151.113L90.8987 151.114Z" fill="white"/>
<g opacity="0.5">
<mask id="mask0" mask-type="alpha" maskUnits="userSpaceOnUse" x="220" y="263" width="561" height="327">
<rect x="220.381" y="263.502" width="560.331" height="326.331" fill="#C4C4C4"/>
</mask>
<g mask="url(#mask0)">
<line x1="673.606" y1="573.888" x2="1038.39" y2="263.82" stroke="#0047FF" stroke-width="0.5"/>
<line x1="641.376" y1="573.888" x2="1006.16" y2="263.82" stroke="#0047FF" stroke-width="0.5"/>
<line x1="657.491" y1="573.888" x2="1022.27" y2="263.82" stroke="#0047FF" stroke-width="0.5"/>
<line x1="609.147" y1="573.888" x2="973.929" y2="263.82" stroke="#0047FF" stroke-width="0.5"/>
<line x1="625.262" y1="573.888" x2="990.044" y2="263.82" stroke="#0047FF" stroke-width="0.5"/>
<line x1="576.918" y1="573.888" x2="941.7" y2="263.82" stroke="#0047FF" stroke-width="0.5"/>
<line x1="593.033" y1="573.888" x2="957.814" y2="263.82" stroke="#0047FF" stroke-width="0.5"/>
<line x1="560.804" y1="573.888" x2="925.585" y2="263.82" stroke="#0047FF" stroke-width="0.5"/>
<line x1="544.69" y1="573.888" x2="909.471" y2="263.82" stroke="#0047FF" stroke-width="0.5"/>
<line x1="512.461" y1="573.888" x2="877.242" y2="263.82" stroke="#0047FF" stroke-width="0.5"/>
<line x1="528.575" y1="573.888" x2="893.356" y2="263.82" stroke="#0047FF" stroke-width="0.5"/>
<line x1="480.232" y1="573.888" x2="845.013" y2="263.82" stroke="#0047FF" stroke-width="0.5"/>
<line x1="496.346" y1="573.888" x2="861.127" y2="263.82" stroke="#0047FF" stroke-width="0.5"/>
<line x1="415.773" y1="573.888" x2="780.555" y2="263.82" stroke="#0047FF" stroke-width="0.5"/>
<line x1="448.003" y1="573.888" x2="812.784" y2="263.82" stroke="#0047FF" stroke-width="0.5"/>
<line x1="383.544" y1="573.888" x2="748.326" y2="263.82" stroke="#0047FF" stroke-width="0.5"/>
<line x1="464.117" y1="573.888" x2="828.898" y2="263.82" stroke="#0047FF" stroke-width="0.5"/>
<line x1="399.659" y1="573.888" x2="764.44" y2="263.82" stroke="#0047FF" stroke-width="0.5"/>
<line x1="431.887" y1="573.888" x2="796.669" y2="263.82" stroke="#0047FF" stroke-width="0.5"/>
<line x1="351.315" y1="573.888" x2="716.097" y2="263.82" stroke="#0047FF" stroke-width="0.5"/>
<line x1="367.43" y1="573.888" x2="732.211" y2="263.82" stroke="#0047FF" stroke-width="0.5"/>
<line x1="319.086" y1="573.888" x2="683.868" y2="263.82" stroke="#0047FF" stroke-width="0.5"/>
<line x1="335.201" y1="573.888" x2="699.982" y2="263.82" stroke="#0047FF" stroke-width="0.5"/>
<line x1="302.972" y1="573.888" x2="667.753" y2="263.82" stroke="#0047FF" stroke-width="0.5"/>
</g>
</g>
<path d="M473.702 358.399L321.817 486.106L451.735 486.107L602.661 358.399L473.702 358.399Z" fill="#F3F3F3" fill-opacity="0.67"/>
<path d="M566.33 311.126L481.564 382.778L504.995 382.778L589 311.126L566.33 311.126Z" fill="#0047FF"/>
<path d="M385.912 620.839L309.97 684.692L374.929 684.692L450.392 620.839L385.912 620.839Z" fill="#C4C4C4" fill-opacity="0.09"/>
</svg>
