<svg width="378" height="312" viewBox="0 0 378 312" fill="none" xmlns="http://www.w3.org/2000/svg">
<line x1="371.119" y1="310.88" x2="735.901" y2="0.812087" stroke="#0047FF" stroke-opacity="0.15"/>
<line x1="338.89" y1="310.88" x2="703.672" y2="0.812087" stroke="#0047FF" stroke-opacity="0.15"/>
<line x1="355.005" y1="310.88" x2="719.786" y2="0.812087" stroke="#0047FF" stroke-opacity="0.15"/>
<line x1="306.661" y1="310.88" x2="671.442" y2="0.812087" stroke="#0047FF" stroke-opacity="0.15"/>
<line x1="322.776" y1="310.88" x2="687.557" y2="0.812087" stroke="#0047FF" stroke-opacity="0.15"/>
<line x1="274.432" y1="310.88" x2="639.213" y2="0.812087" stroke="#0047FF" stroke-opacity="0.15"/>
<line x1="290.546" y1="310.88" x2="655.328" y2="0.812087" stroke="#0047FF" stroke-opacity="0.15"/>
<line x1="258.317" y1="310.88" x2="623.099" y2="0.812087" stroke="#0047FF" stroke-opacity="0.15"/>
<line x1="242.203" y1="310.88" x2="606.984" y2="0.812087" stroke="#0047FF" stroke-opacity="0.15"/>
<line x1="209.974" y1="310.88" x2="574.755" y2="0.812087" stroke="#0047FF" stroke-opacity="0.15"/>
<line x1="226.088" y1="310.88" x2="590.87" y2="0.812087" stroke="#0047FF" stroke-opacity="0.15"/>
<line x1="177.745" y1="310.88" x2="542.526" y2="0.812087" stroke="#0047FF" stroke-opacity="0.15"/>
<line x1="193.859" y1="310.88" x2="558.641" y2="0.812087" stroke="#0047FF" stroke-opacity="0.15"/>
<line x1="113.287" y1="310.88" x2="478.068" y2="0.812087" stroke="#0047FF" stroke-opacity="0.15"/>
<line x1="145.516" y1="310.88" x2="510.297" y2="0.812087" stroke="#0047FF" stroke-opacity="0.15"/>
<line x1="81.0575" y1="310.88" x2="445.839" y2="0.812087" stroke="#0047FF" stroke-opacity="0.15"/>
<line x1="161.63" y1="310.88" x2="526.412" y2="0.812087" stroke="#0047FF" stroke-opacity="0.15"/>
<line x1="97.1728" y1="310.88" x2="461.954" y2="0.812087" stroke="#0047FF" stroke-opacity="0.15"/>
<line x1="129.401" y1="310.88" x2="494.182" y2="0.812087" stroke="#0047FF" stroke-opacity="0.15"/>
<line x1="48.8285" y1="310.88" x2="413.61" y2="0.812087" stroke="#0047FF" stroke-opacity="0.15"/>
<line x1="64.9433" y1="310.88" x2="429.725" y2="0.812087" stroke="#0047FF" stroke-opacity="0.15"/>
<line x1="16.5995" y1="310.88" x2="381.381" y2="0.812087" stroke="#0047FF" stroke-opacity="0.15"/>
<line x1="32.7143" y1="310.88" x2="397.496" y2="0.812087" stroke="#0047FF" stroke-opacity="0.15"/>
<line x1="0.485256" y1="310.88" x2="365.267" y2="0.812087" stroke="#0047FF" stroke-opacity="0.15"/>
</svg>
